<svg width="43" height="32" viewBox="0 0 43 32" fill="none" xmlns="http://www.w3.org/2000/svg">
<path d="M3.21988 32.004H10.0077V15.5192L0.310799 8.24651V29.095C0.310799 30.7047 1.61503 32.004 3.21988 32.004Z" fill="#4285F4"/>
<path d="M33.2805 32.004H40.0684C41.6781 32.004 42.9775 30.6998 42.9775 29.095V8.24651L33.2805 15.5192" fill="#34A853"/>
<path d="M33.2805 2.91328V15.5192L42.9775 8.24651V4.36782C42.9775 0.770253 38.8708 -1.28065 35.9957 0.876919" fill="#FBBC05"/>
<path d="M10.0077 15.5192L10.0075 2.91318L21.6438 11.6404L33.2805 2.91328V15.5192L21.6438 24.2465" fill="#EA4335"/>
<path d="M0.310799 4.36782V8.24651L10.0077 15.5192L10.0075 2.91318L7.29258 0.876919C4.4126 -1.28065 0.310799 0.770253 0.310799 4.36782Z" fill="#C5221F"/>
</svg>
