<?xml version="1.0" standalone="no"?>
<!DOCTYPE svg PUBLIC "-//W3C//DTD SVG 20010904//EN"
 "http://www.w3.org/TR/2001/REC-SVG-20010904/DTD/svg10.dtd">
<svg version="1.0" xmlns="http://www.w3.org/2000/svg"
 width="1280.000000pt" height="1280.000000pt" viewBox="0 0 1280.000000 1280.000000"
 preserveAspectRatio="xMidYMid meet">
<metadata>
Created by potrace 1.14, written by Peter Selinger 2001-2017
</metadata>
<g transform="translate(0.000000,1280.000000) scale(0.100000,-0.100000)"
fill="#000000" stroke="none">
<path d="M390 8909 c-31 -3 -72 -14 -93 -24 -47 -22 -122 -107 -132 -149 -20
-81 -10 -173 25 -234 11 -19 140 -293 140 -297 0 -1 24 -54 54 -117 93 -195
126 -269 126 -279 0 -5 4 -9 10 -9 5 0 9 -3 8 -7 -1 -5 13 -39 31 -78 19 -38
42 -88 51 -110 10 -22 42 -92 73 -155 30 -63 64 -137 77 -165 12 -27 44 -95
70 -150 26 -55 58 -122 70 -150 20 -45 47 -102 130 -280 15 -33 46 -98 68
-145 62 -133 106 -227 151 -323 23 -49 52 -112 65 -140 13 -29 42 -92 66 -142
64 -136 94 -201 140 -300 23 -49 60 -128 82 -175 77 -163 98 -211 98 -219 0
-5 8 -19 19 -32 10 -13 20 -28 21 -34 5 -20 19 -52 66 -150 26 -55 48 -102 49
-105 2 -9 32 -73 85 -185 54 -113 110 -232 150 -320 13 -27 42 -90 65 -140 65
-138 98 -209 100 -215 1 -3 14 -31 29 -62 39 -83 99 -142 166 -166 53 -18 101
-19 1635 -17 869 1 1594 5 1610 10 65 18 139 89 167 160 25 63 18 155 -17 230
-15 33 -40 88 -56 123 -16 34 -43 92 -60 130 -33 71 -89 191 -120 256 -11 22
-19 46 -19 53 0 7 -3 13 -7 13 -5 0 -17 21 -27 48 -11 26 -44 98 -73 160 -29
62 -53 115 -53 117 0 2 -24 55 -54 117 -111 235 -136 290 -136 304 0 8 -4 14
-10 14 -5 0 -10 5 -10 10 0 6 -16 46 -36 88 -71 151 -94 203 -94 211 0 5 -7
14 -15 21 -8 6 -14 15 -13 18 2 9 -10 37 -71 166 -28 59 -51 110 -51 111 0 2
-25 55 -55 120 -30 64 -55 118 -55 120 0 2 -24 54 -54 117 -29 62 -60 129 -69
148 -8 19 -43 93 -76 164 -34 70 -61 130 -61 132 0 1 -25 55 -55 119 -30 65
-55 118 -55 120 0 2 -25 57 -56 122 -30 65 -66 141 -79 168 -24 51 -133 289
-175 380 -12 28 -37 82 -55 120 -28 59 -113 243 -240 520 -15 33 -45 97 -66
142 -22 45 -39 84 -39 87 0 7 -37 51 -64 77 -23 22 -72 46 -111 54 -39 8
-3112 12 -3185 4z"/>
<path d="M9218 8908 c-60 -8 -113 -34 -153 -73 -34 -35 -64 -93 -202 -395 -14
-30 -50 -106 -79 -169 -30 -62 -54 -115 -54 -117 0 -1 -25 -56 -56 -121 -91
-193 -113 -239 -214 -458 -15 -33 -48 -103 -73 -155 -24 -52 -54 -115 -65
-140 -11 -25 -39 -85 -62 -135 -23 -49 -58 -124 -77 -165 -19 -41 -48 -102
-63 -135 -15 -33 -44 -94 -63 -135 -19 -41 -53 -115 -76 -163 -22 -49 -41 -92
-41 -98 0 -5 -5 -9 -10 -9 -6 0 -9 -3 -8 -7 1 -5 -9 -30 -21 -58 -13 -27 -39
-84 -58 -125 -19 -41 -51 -109 -71 -150 -20 -41 -36 -77 -37 -80 -2 -6 -34
-74 -111 -239 -30 -62 -54 -115 -54 -116 0 -2 -24 -55 -54 -117 -55 -116 -90
-191 -146 -313 -18 -38 -57 -121 -86 -184 -30 -62 -54 -115 -54 -117 0 -2 -24
-54 -54 -116 -30 -62 -65 -138 -79 -168 -14 -30 -64 -138 -112 -240 -48 -102
-94 -203 -102 -225 -30 -80 -7 -195 52 -263 25 -30 94 -71 132 -79 35 -8 3210
-8 3238 0 42 11 71 26 95 47 14 12 30 25 35 28 17 12 56 86 125 237 15 33 49
105 76 160 26 55 48 102 49 105 0 3 13 29 28 58 15 30 27 60 27 68 0 8 5 14
10 14 6 0 10 5 10 10 0 6 27 67 60 135 33 69 61 129 62 133 1 4 32 70 68 147
132 276 150 316 150 325 0 6 4 10 10 10 5 0 9 3 8 8 -1 4 10 32 24 62 14 30
39 84 56 120 16 36 62 132 101 213 39 82 71 150 71 152 0 2 27 59 59 127 70
146 120 253 190 403 29 61 60 126 71 145 10 19 19 38 20 42 0 4 24 56 52 115
29 60 52 110 53 113 1 3 17 39 37 80 83 175 132 280 168 355 21 44 63 133 94
198 31 65 56 120 56 122 0 2 34 74 76 162 75 157 97 203 169 358 21 44 58 123
82 175 25 52 60 128 79 168 19 39 34 77 34 82 0 6 3 10 8 10 14 0 29 70 27
127 -4 78 -28 129 -87 185 -36 34 -63 50 -101 59 -40 9 -406 12 -1623 13 -864
1 -1591 -2 -1616 -6z"/>
<path d="M6349 8740 c-40 -7 -94 -45 -125 -87 -11 -15 -41 -71 -66 -123 -25
-52 -85 -176 -133 -275 -48 -99 -118 -243 -155 -320 -37 -77 -90 -188 -119
-246 -28 -58 -51 -111 -51 -118 0 -6 -4 -11 -10 -11 -5 0 -10 -4 -10 -9 0 -6
-34 -81 -76 -168 -289 -599 -277 -572 -299 -681 -22 -109 -21 -299 2 -392 3
-14 7 -32 8 -40 7 -56 72 -202 276 -614 32 -66 59 -126 59 -133 0 -7 5 -13 10
-13 6 0 10 -4 10 -10 0 -5 28 -67 62 -137 34 -71 61 -131 60 -135 -1 -5 3 -8
8 -8 6 0 10 -9 10 -20 0 -11 5 -20 10 -20 6 0 10 -9 10 -20 0 -11 4 -20 10
-20 5 0 9 -3 8 -7 -1 -9 31 -78 177 -378 161 -333 180 -370 188 -373 4 -2 7
-8 7 -13 0 -36 98 -99 153 -99 49 0 146 70 147 107 0 6 4 13 8 15 9 3 132 254
132 269 0 5 4 9 10 9 5 0 9 3 8 8 -1 4 29 70 67 147 38 77 69 142 70 145 0 3
22 49 48 102 26 53 47 101 47 105 0 5 6 15 13 22 6 6 12 15 13 19 0 4 28 64
62 135 34 70 62 132 62 137 0 6 5 10 10 10 6 0 10 4 10 9 0 10 87 196 170 364
32 64 55 117 52 117 -4 0 -2 4 3 8 6 4 21 32 35 62 14 30 27 57 30 60 7 7 48
128 55 165 3 17 8 41 11 55 12 54 11 258 -2 335 -23 134 -20 127 -257 615 -36
74 -101 209 -145 300 -43 91 -108 224 -143 295 -35 72 -64 132 -64 135 -1 3
-39 82 -84 175 -246 504 -241 495 -316 532 -29 14 -50 18 -76 13z"/>
</g>
</svg>
