<svg width="120" height="18" viewBox="0 0 120 18" fill="none" xmlns="http://www.w3.org/2000/svg">
<path d="M29.4462 1.14874C29.1249 1.14874 28.8327 1.33496 28.6971 1.6262L22.0752 15.8411C21.8199 16.3889 22.2199 17.0165 22.8243 17.0165L32.541 17.0165C32.8611 17.0165 33.1524 16.8317 33.2887 16.5421L39.981 2.32721C40.2391 1.77907 39.8392 1.14874 39.2333 1.14874L29.4462 1.14874Z" fill="url(#paint0_linear_294_6224)"/>
<path d="M11.5226 1.14874C11.8449 1.14874 12.1378 1.3361 12.2729 1.6287L18.8373 15.8436C19.0901 16.3912 18.6902 17.0165 18.0869 17.0165L8.46778 17.0165C8.1467 17.0165 7.85467 16.8305 7.71888 16.5396L1.08475 2.3247C0.829039 1.77678 1.229 1.14874 1.83366 1.14874L11.5226 1.14874Z" fill="url(#paint1_linear_294_6224)"/>
<rect width="8.53542" height="8.53542" rx="1.32231" transform="matrix(0.434903 0.900477 -0.434903 0.900477 20.4355 0.983459)" fill="url(#paint2_linear_294_6224)"/>
<path d="M111.567 14.8371V6.53339H113.57V8.4872H113.619V14.8371H111.567ZM117.396 14.8371V9.59435C117.396 9.08419 117.266 8.69886 117.005 8.43835C116.745 8.17784 116.365 8.04759 115.866 8.04759C115.432 8.04759 115.041 8.14528 114.693 8.34066C114.357 8.53604 114.091 8.8074 113.896 9.15475C113.711 9.50209 113.619 9.90371 113.619 10.3596L113.407 8.37323C113.689 7.76538 114.102 7.28235 114.645 6.92415C115.187 6.5551 115.839 6.37057 116.598 6.37057C117.499 6.37057 118.199 6.62566 118.699 7.13582C119.209 7.64598 119.464 8.32438 119.464 9.17103V14.8371H117.396Z" fill="black"/>
<path d="M107.666 14.8371C107.612 14.62 107.568 14.3812 107.536 14.1207C107.514 13.8602 107.503 13.5454 107.503 13.1763H107.438V9.23616C107.438 8.80198 107.313 8.47634 107.064 8.25925C106.825 8.03131 106.456 7.91734 105.956 7.91734C105.468 7.91734 105.077 8.0096 104.784 8.19413C104.502 8.3678 104.328 8.62288 104.263 8.95937H102.293C102.38 8.1887 102.749 7.56457 103.4 7.08697C104.051 6.60937 104.925 6.37057 106.022 6.37057C107.161 6.37057 108.024 6.63108 108.61 7.1521C109.196 7.66226 109.49 8.41664 109.49 9.41525V13.1763C109.49 13.4368 109.506 13.7028 109.538 13.9741C109.582 14.2455 109.642 14.5331 109.718 14.8371H107.666ZM104.784 14.9999C103.948 14.9999 103.281 14.7936 102.782 14.3812C102.293 13.9578 102.049 13.3934 102.049 12.6879C102.049 11.9281 102.326 11.3256 102.879 10.8806C103.433 10.4356 104.214 10.1371 105.224 9.98511L107.813 9.59435V10.8969L105.566 11.2388C105.077 11.3148 104.708 11.4505 104.459 11.6458C104.22 11.8412 104.1 12.1126 104.1 12.4599C104.1 12.7747 104.214 13.0189 104.442 13.1926C104.67 13.3554 104.985 13.4368 105.387 13.4368C105.973 13.4368 106.461 13.2903 106.852 12.9972C107.243 12.7042 107.438 12.346 107.438 11.9226L107.666 13.1763C107.449 13.7733 107.091 14.2292 106.591 14.544C106.103 14.8479 105.501 14.9999 104.784 14.9999Z" fill="black"/>
<path d="M87.3198 14.8371V6.53339H89.3225V8.4872H89.3713V14.8371H87.3198ZM92.9044 14.8371V9.48038C92.9044 8.99193 92.7796 8.63373 92.53 8.40579C92.2912 8.16699 91.9493 8.04759 91.5042 8.04759C91.1135 8.04759 90.7553 8.13985 90.4296 8.32438C90.104 8.50891 89.8435 8.76941 89.6481 9.1059C89.4636 9.44239 89.3713 9.83315 89.3713 10.2782L89.1597 8.37323C89.4419 7.76538 89.8489 7.28235 90.3808 6.92415C90.9127 6.5551 91.5314 6.37057 92.2369 6.37057C93.0835 6.37057 93.7511 6.6148 94.2395 7.10325C94.728 7.58085 94.9722 8.19955 94.9722 8.95937V14.8371H92.9044ZM98.4891 14.8371V9.48038C98.4891 8.99193 98.3697 8.63373 98.1309 8.40579C97.8921 8.16699 97.5502 8.04759 97.1051 8.04759C96.7035 8.04759 96.3399 8.13985 96.0143 8.32438C95.6886 8.50891 95.4335 8.76941 95.249 9.1059C95.0645 9.44239 94.9722 9.83315 94.9722 10.2782L94.614 8.37323C94.8854 7.76538 95.2979 7.28235 95.8514 6.92415C96.405 6.5551 97.0454 6.37057 97.7727 6.37057C98.641 6.37057 99.3194 6.62023 99.8079 7.11953C100.307 7.60798 100.557 8.25925 100.557 9.07334V14.8371H98.4891Z" fill="black"/>
<path d="M78.241 14.8368V2.99997H80.2925V14.8368H78.241ZM83.5976 14.8368L79.8203 10.5221L83.4837 6.5331H85.9585L81.7252 10.8966L81.8392 10.1314L86.1213 14.8368H83.5976Z" fill="black"/>
<path d="M71.8967 14.8371V6.53339H73.8994V8.53604H73.9482V14.8371H71.8967ZM73.9482 10.5061L73.7366 8.53604C73.9319 7.8305 74.263 7.29321 74.7297 6.92415C75.1965 6.5551 75.7555 6.37057 76.4068 6.37057C76.6347 6.37057 76.7975 6.39228 76.8952 6.4357V8.37323C76.8409 8.35152 76.765 8.34066 76.6673 8.34066C76.5696 8.32981 76.4502 8.32438 76.3091 8.32438C75.5167 8.32438 74.9251 8.49805 74.5344 8.84539C74.1436 9.19274 73.9482 9.74631 73.9482 10.5061Z" fill="black"/>
<path d="M65.9591 14.9999C65.0799 14.9999 64.3038 14.8154 63.6309 14.4463C62.9687 14.0772 62.4531 13.5671 62.0841 12.9158C61.715 12.2537 61.5305 11.4993 61.5305 10.6527C61.5305 9.80602 61.715 9.06248 62.0841 8.42207C62.4531 7.78166 62.9687 7.28235 63.6309 6.92415C64.3038 6.5551 65.0799 6.37057 65.9591 6.37057C66.8492 6.37057 67.6253 6.5551 68.2874 6.92415C68.9495 7.28235 69.4651 7.78166 69.8342 8.42207C70.2032 9.06248 70.3878 9.80602 70.3878 10.6527C70.3878 11.4993 70.1978 12.2537 69.8179 12.9158C69.4489 13.5671 68.9333 14.0772 68.2711 14.4463C67.609 14.8154 66.8384 14.9999 65.9591 14.9999ZM65.9591 13.3554C66.3933 13.3554 66.7841 13.2469 67.1314 13.0298C67.4788 12.8018 67.7501 12.4871 67.9455 12.0855C68.1409 11.673 68.2386 11.19 68.2386 10.6364C68.2386 9.8223 68.0215 9.18188 67.5873 8.71514C67.164 8.2484 66.6213 8.01503 65.9591 8.01503C65.297 8.01503 64.7489 8.2484 64.3147 8.71514C63.8805 9.18188 63.6634 9.8223 63.6634 10.6364C63.6634 11.19 63.7611 11.673 63.9565 12.0855C64.1627 12.4871 64.4341 12.8018 64.7706 13.0298C65.1179 13.2469 65.5141 13.3554 65.9591 13.3554Z" fill="black"/>
<path d="M51.0758 14.8373L48.5359 6.5336H50.6851L52.183 12.7695H52.0365L53.8763 6.5336H55.7487L57.6211 12.7695H57.4583L58.9399 6.5336H61.0402L58.5003 14.8373H56.5791L54.7067 8.6665H54.8695L52.9971 14.8373H51.0758Z" fill="black"/>
<defs>
<linearGradient id="paint0_linear_294_6224" x1="21.5276" y1="9.08263" x2="40.5359" y2="9.08263" gradientUnits="userSpaceOnUse">
<stop stop-color="#EFBAA9"/>
<stop offset="1" stop-color="#EA480F"/>
</linearGradient>
<linearGradient id="paint1_linear_294_6224" x1="19.3789" y1="9.08263" x2="0.53593" y2="9.08263" gradientUnits="userSpaceOnUse">
<stop stop-color="#EFBAA9"/>
<stop offset="1" stop-color="#EA480F"/>
</linearGradient>
<linearGradient id="paint2_linear_294_6224" x1="4.26771" y1="0" x2="4.26771" y2="8.53542" gradientUnits="userSpaceOnUse">
<stop stop-color="#EFBAA9"/>
<stop offset="1" stop-color="#EA480F"/>
</linearGradient>
</defs>
</svg>
