<svg width="404" height="460" fill="none" xmlns="http://www.w3.org/2000/svg"><mask id="a" fill="#fff"><path d="M0-26h68.523v142.756H0V-26Z"/></mask><path d="M0-26h68.523v142.756H0V-26Z" fill="#FEFCFB"/><path d="M68.523 116.756v1.428h1.4275v-1.428H68.523Zm-68.523 0h-1.42756v1.428H0v-1.428ZM67.0954-26v142.756h2.8551V-26h-2.8551Zm1.4276 141.329H0v2.855h68.523v-2.855Zm-67.09544 1.427V-26h-2.85512v142.756h2.85512Z" fill="#FEEAD6" mask="url(#a)"/><mask id="b" fill="#fff"><path d="M67.0957-26h68.5233v142.756H67.0957V-26Z"/></mask><path d="M67.0957-26h68.5233v142.756H67.0957V-26Z" fill="#FEFCFB"/><path d="M135.619 116.756v1.428h1.427v-1.428h-1.427Zm-68.5233 0h-1.4276v1.428h1.4276v-1.428ZM134.191-26v142.756h2.855V-26h-2.855Zm1.428 141.329H67.0957v2.855h68.5233v-2.855Zm-67.0957 1.427V-26h-2.8552v142.756h2.8552Z" fill="#FEEAD6" mask="url(#b)"/><mask id="c" fill="#fff"><path d="M134.19-26h68.523v142.756H134.19V-26Z"/></mask><path d="M134.19-26h68.523v142.756H134.19V-26Z" fill="#FEFCFB"/><path d="M202.713 116.756v1.428h1.428v-1.428h-1.428Zm-68.523 0h-1.427v1.428h1.427v-1.428ZM201.286-26v142.756h2.855V-26h-2.855Zm1.427 141.329H134.19v2.855h68.523v-2.855Zm-67.095 1.427V-26h-2.855v142.756h2.855Z" fill="#FEEAD6" mask="url(#c)"/><mask id="d" fill="#fff"><path d="M201.286-26h68.523v142.756h-68.523V-26Z"/></mask><path d="M201.286-26h68.523v142.756h-68.523V-26Z" fill="#FEFCFB"/><path d="M269.809 116.756v1.428h1.428v-1.428h-1.428Zm-68.523 0h-1.427v1.428h1.427v-1.428ZM268.382-26v142.756h2.855V-26h-2.855Zm1.427 141.329h-68.523v2.855h68.523v-2.855Zm-67.095 1.427V-26h-2.855v142.756h2.855Z" fill="#FEEAD6" mask="url(#d)"/><mask id="e" fill="#fff"><path d="M268.382-26h68.523v142.756h-68.523V-26Z"/></mask><path d="M268.382-26h68.523v142.756h-68.523V-26Z" fill="#FEFCFB"/><path d="M336.905 116.756v1.428h1.427v-1.428h-1.427Zm-68.523 0h-1.428v1.428h1.428v-1.428ZM335.477-26v142.756h2.855V-26h-2.855Zm1.428 141.329h-68.523v2.855h68.523v-2.855Zm-67.096 1.427V-26h-2.855v142.756h2.855Z" fill="#FEEAD6" mask="url(#e)"/><mask id="f" fill="#fff"><path d="M335.477-26H404v142.756h-68.523V-26Z"/></mask><path d="M335.477-26H404v142.756h-68.523V-26Z" fill="#FEFCFB"/><path d="M404 116.756v1.428h1.427v-1.428H404Zm-68.523 0h-1.428v1.428h1.428v-1.428ZM402.572-26v142.756h2.855V-26h-2.855ZM404 115.329h-68.523v2.855H404v-2.855Zm-67.096 1.427V-26h-2.855v142.756h2.855Z" fill="#FEEAD6" mask="url(#f)"/><mask id="g" fill="#fff"><path d="M0 116.756h68.523v68.523H0v-68.523Z"/></mask><path d="M0 116.756h68.523v68.523H0v-68.523Z" fill="#FEFCFB"/><path d="M68.523 185.279v1.428h1.4275v-1.428H68.523Zm-68.523 0h-1.42756v1.428H0v-1.428Zm67.0954-68.523v68.523h2.8551v-68.523h-2.8551Zm1.4276 67.096H0v2.855h68.523v-2.855Zm-67.09544 1.427v-68.523h-2.85512v68.523h2.85512Z" fill="#FEEAD6" mask="url(#g)"/><mask id="h" fill="#fff"><path d="M67.0957 116.756h68.5233v68.523H67.0957v-68.523Z"/></mask><path d="M67.0957 116.756h68.5233v68.523H67.0957v-68.523Z" fill="#FEFCFB"/><path d="M135.619 185.279v1.428h1.427v-1.428h-1.427Zm-68.5233 0h-1.4276v1.428h1.4276v-1.428Zm67.0953-68.523v68.523h2.855v-68.523h-2.855Zm1.428 67.096H67.0957v2.855h68.5233v-2.855Zm-67.0957 1.427v-68.523h-2.8552v68.523h2.8552Z" fill="#FEEAD6" mask="url(#h)"/><mask id="i" fill="#fff"><path d="M134.19 116.756h68.523v68.523H134.19v-68.523Z"/></mask><path d="M134.19 116.756h68.523v68.523H134.19v-68.523Z" fill="#FEFCFB"/><path d="M202.713 185.279v1.428h1.428v-1.428h-1.428Zm-68.523 0h-1.427v1.428h1.427v-1.428Zm67.096-68.523v68.523h2.855v-68.523h-2.855Zm1.427 67.096H134.19v2.855h68.523v-2.855Zm-67.095 1.427v-68.523h-2.855v68.523h2.855Z" fill="#FEEAD6" mask="url(#i)"/><mask id="j" fill="#fff"><path d="M201.286 116.756h68.523v68.523h-68.523v-68.523Z"/></mask><path d="M201.286 116.756h68.523v68.523h-68.523v-68.523Z" fill="#FEFCFB"/><path d="M269.809 185.279v1.428h1.428v-1.428h-1.428Zm-68.523 0h-1.427v1.428h1.427v-1.428Zm67.096-68.523v68.523h2.855v-68.523h-2.855Zm1.427 67.096h-68.523v2.855h68.523v-2.855Zm-67.095 1.427v-68.523h-2.855v68.523h2.855Z" fill="#FEEAD6" mask="url(#j)"/><mask id="k" fill="#fff"><path d="M268.382 116.756h68.523v68.523h-68.523v-68.523Z"/></mask><path d="M268.382 116.756h68.523v68.523h-68.523v-68.523Z" fill="#FEFCFB"/><path d="M336.905 185.279v1.428h1.427v-1.428h-1.427Zm-68.523 0h-1.428v1.428h1.428v-1.428Zm67.095-68.523v68.523h2.855v-68.523h-2.855Zm1.428 67.096h-68.523v2.855h68.523v-2.855Zm-67.096 1.427v-68.523h-2.855v68.523h2.855Z" fill="#FEEAD6" mask="url(#k)"/><mask id="l" fill="#fff"><path d="M335.477 116.756H404v68.523h-68.523v-68.523Z"/></mask><path d="M335.477 116.756H404v68.523h-68.523v-68.523Z" fill="#FEFCFB"/><path d="M404 185.279v1.428h1.427v-1.428H404Zm-68.523 0h-1.428v1.428h1.428v-1.428Zm67.095-68.523v68.523h2.855v-68.523h-2.855ZM404 183.852h-68.523v2.855H404v-2.855Zm-67.096 1.427v-68.523h-2.855v68.523h2.855Z" fill="#FEEAD6" mask="url(#l)"/><mask id="m" fill="#fff"><path d="M0 185.279h68.523v68.523H0v-68.523Z"/></mask><path d="M0 185.279h68.523v68.523H0v-68.523Z" fill="#FEFCFB"/><path d="M68.523 253.802v1.428h1.4275v-1.428H68.523Zm-68.523 0h-1.42756v1.428H0v-1.428Zm67.0954-68.523v68.523h2.8551v-68.523h-2.8551Zm1.4276 67.096H0v2.855h68.523v-2.855Zm-67.09544 1.427v-68.523h-2.85512v68.523h2.85512Z" fill="#FEEAD6" mask="url(#m)"/><mask id="n" fill="#fff"><path d="M67.0957 185.279h68.5233v68.523H67.0957v-68.523Z"/></mask><path d="M67.0957 185.279h68.5233v68.523H67.0957v-68.523Z" fill="#FEFCFB"/><path d="M135.619 253.802v1.428h1.427v-1.428h-1.427Zm-68.5233 0h-1.4276v1.428h1.4276v-1.428Zm67.0953-68.523v68.523h2.855v-68.523h-2.855Zm1.428 67.096H67.0957v2.855h68.5233v-2.855Zm-67.0957 1.427v-68.523h-2.8552v68.523h2.8552Z" fill="#FEEAD6" mask="url(#n)"/><mask id="o" fill="#fff"><path d="M134.19 185.279h68.523v68.523H134.19v-68.523Z"/></mask><path d="M134.19 185.279h68.523v68.523H134.19v-68.523Z" fill="#FEFCFB"/><path d="M202.713 253.802v1.428h1.428v-1.428h-1.428Zm-68.523 0h-1.427v1.428h1.427v-1.428Zm67.096-68.523v68.523h2.855v-68.523h-2.855Zm1.427 67.096H134.19v2.855h68.523v-2.855Zm-67.095 1.427v-68.523h-2.855v68.523h2.855Z" fill="#FEEAD6" mask="url(#o)"/><mask id="p" fill="#fff"><path d="M201.286 185.279h68.523v68.523h-68.523v-68.523Z"/></mask><path d="M201.286 185.279h68.523v68.523h-68.523v-68.523Z" fill="#FEFCFB"/><path d="M269.809 253.802v1.428h1.428v-1.428h-1.428Zm-68.523 0h-1.427v1.428h1.427v-1.428Zm67.096-68.523v68.523h2.855v-68.523h-2.855Zm1.427 67.096h-68.523v2.855h68.523v-2.855Zm-67.095 1.427v-68.523h-2.855v68.523h2.855Z" fill="#FEEAD6" mask="url(#p)"/><mask id="q" fill="#fff"><path d="M268.382 185.279h68.523v68.523h-68.523v-68.523Z"/></mask><path d="M268.382 185.279h68.523v68.523h-68.523v-68.523Z" fill="#FEFCFB"/><path d="M336.905 253.802v1.428h1.427v-1.428h-1.427Zm-68.523 0h-1.428v1.428h1.428v-1.428Zm67.095-68.523v68.523h2.855v-68.523h-2.855Zm1.428 67.096h-68.523v2.855h68.523v-2.855Zm-67.096 1.427v-68.523h-2.855v68.523h2.855Z" fill="#FEEAD6" mask="url(#q)"/><mask id="r" fill="#fff"><path d="M335.477 185.279H404v68.523h-68.523v-68.523Z"/></mask><path d="M335.477 185.279H404v68.523h-68.523v-68.523Z" fill="#FEFCFB"/><path d="M404 253.802v1.428h1.427v-1.428H404Zm-68.523 0h-1.428v1.428h1.428v-1.428Zm67.095-68.523v68.523h2.855v-68.523h-2.855ZM404 252.375h-68.523v2.855H404v-2.855Zm-67.096 1.427v-68.523h-2.855v68.523h2.855Z" fill="#FEEAD6" mask="url(#r)"/><mask id="s" fill="#fff"><path d="M0 253.802h68.523v68.523H0v-68.523Z"/></mask><path d="M0 253.802h68.523v68.523H0v-68.523Z" fill="#FEFCFB"/><path d="M68.523 322.325v1.428h1.4275v-1.428H68.523Zm-68.523 0h-1.42756v1.428H0v-1.428Zm67.0954-68.523v68.523h2.8551v-68.523h-2.8551Zm1.4276 67.096H0v2.855h68.523v-2.855Zm-67.09544 1.427v-68.523h-2.85512v68.523h2.85512Z" fill="#FEEAD6" mask="url(#s)"/><mask id="t" fill="#fff"><path d="M67.0957 253.802h68.5233v68.523H67.0957v-68.523Z"/></mask><path d="M67.0957 253.802h68.5233v68.523H67.0957v-68.523Z" fill="#FEFCFB"/><path d="M135.619 322.325v1.428h1.427v-1.428h-1.427Zm-68.5233 0h-1.4276v1.428h1.4276v-1.428Zm67.0953-68.523v68.523h2.855v-68.523h-2.855Zm1.428 67.096H67.0957v2.855h68.5233v-2.855Zm-67.0957 1.427v-68.523h-2.8552v68.523h2.8552Z" fill="#FEEAD6" mask="url(#t)"/><mask id="u" fill="#fff"><path d="M134.19 253.802h68.523v68.523H134.19v-68.523Z"/></mask><path d="M134.19 253.802h68.523v68.523H134.19v-68.523Z" fill="#FEFCFB"/><path d="M202.713 322.325v1.428h1.428v-1.428h-1.428Zm-68.523 0h-1.427v1.428h1.427v-1.428Zm67.096-68.523v68.523h2.855v-68.523h-2.855Zm1.427 67.096H134.19v2.855h68.523v-2.855Zm-67.095 1.427v-68.523h-2.855v68.523h2.855Z" fill="#FEEAD6" mask="url(#u)"/><mask id="v" fill="#fff"><path d="M201.286 253.802h68.523v68.523h-68.523v-68.523Z"/></mask><path d="M201.286 253.802h68.523v68.523h-68.523v-68.523Z" fill="#FEFCFB"/><path d="M269.809 322.325v1.428h1.428v-1.428h-1.428Zm-68.523 0h-1.427v1.428h1.427v-1.428Zm67.096-68.523v68.523h2.855v-68.523h-2.855Zm1.427 67.096h-68.523v2.855h68.523v-2.855Zm-67.095 1.427v-68.523h-2.855v68.523h2.855Z" fill="#FEEAD6" mask="url(#v)"/><mask id="w" fill="#fff"><path d="M268.382 253.802h68.523v68.523h-68.523v-68.523Z"/></mask><path d="M268.382 253.802h68.523v68.523h-68.523v-68.523Z" fill="#FEFCFB"/><path d="M336.905 322.325v1.428h1.427v-1.428h-1.427Zm-68.523 0h-1.428v1.428h1.428v-1.428Zm67.095-68.523v68.523h2.855v-68.523h-2.855Zm1.428 67.096h-68.523v2.855h68.523v-2.855Zm-67.096 1.427v-68.523h-2.855v68.523h2.855Z" fill="#FEEAD6" mask="url(#w)"/><mask id="x" fill="#fff"><path d="M335.477 253.802H404v68.523h-68.523v-68.523Z"/></mask><path d="M335.477 253.802H404v68.523h-68.523v-68.523Z" fill="#FEFCFB"/><path d="M404 322.325v1.428h1.427v-1.428H404Zm-68.523 0h-1.428v1.428h1.428v-1.428Zm67.095-68.523v68.523h2.855v-68.523h-2.855ZM404 320.898h-68.523v2.855H404v-2.855Zm-67.096 1.427v-68.523h-2.855v68.523h2.855Z" fill="#FEEAD6" mask="url(#x)"/><mask id="y" fill="#fff"><path d="M0 322.325h68.523v68.523H0v-68.523Z"/></mask><path d="M0 322.325h68.523v68.523H0v-68.523Z" fill="#FEFCFB"/><path d="M68.523 390.848v1.428h1.4275v-1.428H68.523Zm-68.523 0h-1.42756v1.428H0v-1.428Zm67.0954-68.523v68.523h2.8551v-68.523h-2.8551Zm1.4276 67.095H0v2.856h68.523v-2.856Zm-67.09544 1.428v-68.523h-2.85512v68.523h2.85512Z" fill="#FEEAD6" mask="url(#y)"/><mask id="z" fill="#fff"><path d="M67.0957 322.325h68.5233v68.523H67.0957v-68.523Z"/></mask><path d="M67.0957 322.325h68.5233v68.523H67.0957v-68.523Z" fill="#FEFCFB"/><path d="M135.619 390.848v1.428h1.427v-1.428h-1.427Zm-68.5233 0h-1.4276v1.428h1.4276v-1.428Zm67.0953-68.523v68.523h2.855v-68.523h-2.855Zm1.428 67.095H67.0957v2.856h68.5233v-2.856Zm-67.0957 1.428v-68.523h-2.8552v68.523h2.8552Z" fill="#FEEAD6" mask="url(#z)"/><mask id="A" fill="#fff"><path d="M134.19 322.325h68.523v68.523H134.19v-68.523Z"/></mask><path d="M134.19 322.325h68.523v68.523H134.19v-68.523Z" fill="#FEFCFB"/><path d="M202.713 390.848v1.428h1.428v-1.428h-1.428Zm-68.523 0h-1.427v1.428h1.427v-1.428Zm67.096-68.523v68.523h2.855v-68.523h-2.855Zm1.427 67.095H134.19v2.856h68.523v-2.856Zm-67.095 1.428v-68.523h-2.855v68.523h2.855Z" fill="#FEEAD6" mask="url(#A)"/><mask id="B" fill="#fff"><path d="M201.286 322.325h68.523v68.523h-68.523v-68.523Z"/></mask><path d="M201.286 322.325h68.523v68.523h-68.523v-68.523Z" fill="#FEFCFB"/><path d="M269.809 390.848v1.428h1.428v-1.428h-1.428Zm-68.523 0h-1.427v1.428h1.427v-1.428Zm67.096-68.523v68.523h2.855v-68.523h-2.855Zm1.427 67.095h-68.523v2.856h68.523v-2.856Zm-67.095 1.428v-68.523h-2.855v68.523h2.855Z" fill="#FEEAD6" mask="url(#B)"/><mask id="C" fill="#fff"><path d="M268.382 322.325h68.523v68.523h-68.523v-68.523Z"/></mask><path d="M268.382 322.325h68.523v68.523h-68.523v-68.523Z" fill="#FEFCFB"/><path d="M336.905 390.848v1.428h1.427v-1.428h-1.427Zm-68.523 0h-1.428v1.428h1.428v-1.428Zm67.095-68.523v68.523h2.855v-68.523h-2.855Zm1.428 67.095h-68.523v2.856h68.523v-2.856Zm-67.096 1.428v-68.523h-2.855v68.523h2.855Z" fill="#FEEAD6" mask="url(#C)"/><mask id="D" fill="#fff"><path d="M335.477 322.325H404v68.523h-68.523v-68.523Z"/></mask><path d="M335.477 322.325H404v68.523h-68.523v-68.523Z" fill="#FEFCFB"/><path d="M404 390.848v1.428h1.427v-1.428H404Zm-68.523 0h-1.428v1.428h1.428v-1.428Zm67.095-68.523v68.523h2.855v-68.523h-2.855ZM404 389.42h-68.523v2.856H404v-2.856Zm-67.096 1.428v-68.523h-2.855v68.523h2.855Z" fill="#FEEAD6" mask="url(#D)"/><mask id="E" fill="#fff"><path d="M0 390.848h68.523v68.523H0v-68.523Z"/></mask><path d="M0 390.848h68.523v68.523H0v-68.523Z" fill="#FEFCFB"/><path d="M68.523 459.371v1.428h1.4275v-1.428H68.523Zm-68.523 0h-1.42756v1.428H0v-1.428Zm67.0954-68.523v68.523h2.8551v-68.523h-2.8551Zm1.4276 67.095H0v2.856h68.523v-2.856Zm-67.09544 1.428v-68.523h-2.85512v68.523h2.85512Z" fill="#FEEAD6" mask="url(#E)"/><mask id="F" fill="#fff"><path d="M67.0957 390.848h68.5233v68.523H67.0957v-68.523Z"/></mask><path d="M67.0957 390.848h68.5233v68.523H67.0957v-68.523Z" fill="#FEFCFB"/><path d="M135.619 459.371v1.428h1.427v-1.428h-1.427Zm-68.5233 0h-1.4276v1.428h1.4276v-1.428Zm67.0953-68.523v68.523h2.855v-68.523h-2.855Zm1.428 67.095H67.0957v2.856h68.5233v-2.856Zm-67.0957 1.428v-68.523h-2.8552v68.523h2.8552Z" fill="#FEEAD6" mask="url(#F)"/><mask id="G" fill="#fff"><path d="M134.19 390.848h68.523v68.523H134.19v-68.523Z"/></mask><path d="M134.19 390.848h68.523v68.523H134.19v-68.523Z" fill="#FEFCFB"/><path d="M202.713 459.371v1.428h1.428v-1.428h-1.428Zm-68.523 0h-1.427v1.428h1.427v-1.428Zm67.096-68.523v68.523h2.855v-68.523h-2.855Zm1.427 67.095H134.19v2.856h68.523v-2.856Zm-67.095 1.428v-68.523h-2.855v68.523h2.855Z" fill="#FEEAD6" mask="url(#G)"/><mask id="H" fill="#fff"><path d="M201.286 390.848h68.523v68.523h-68.523v-68.523Z"/></mask><path d="M201.286 390.848h68.523v68.523h-68.523v-68.523Z" fill="#FEFCFB"/><path d="M269.809 459.371v1.428h1.428v-1.428h-1.428Zm-68.523 0h-1.427v1.428h1.427v-1.428Zm67.096-68.523v68.523h2.855v-68.523h-2.855Zm1.427 67.095h-68.523v2.856h68.523v-2.856Zm-67.095 1.428v-68.523h-2.855v68.523h2.855Z" fill="#FEEAD6" mask="url(#H)"/><mask id="I" fill="#fff"><path d="M268.382 390.848h68.523v68.523h-68.523v-68.523Z"/></mask><path d="M268.382 390.848h68.523v68.523h-68.523v-68.523Z" fill="#FEFCFB"/><path d="M336.905 459.371v1.428h1.427v-1.428h-1.427Zm-68.523 0h-1.428v1.428h1.428v-1.428Zm67.095-68.523v68.523h2.855v-68.523h-2.855Zm1.428 67.095h-68.523v2.856h68.523v-2.856Zm-67.096 1.428v-68.523h-2.855v68.523h2.855Z" fill="#FEEAD6" mask="url(#I)"/><mask id="J" fill="#fff"><path d="M335.477 390.848H404v68.523h-68.523v-68.523Z"/></mask><path d="M335.477 390.848H404v68.523h-68.523v-68.523Z" fill="#FEFCFB"/><path d="M404 459.371v1.428h1.427v-1.428H404Zm-68.523 0h-1.428v1.428h1.428v-1.428Zm67.095-68.523v68.523h2.855v-68.523h-2.855ZM404 457.943h-68.523v2.856H404v-2.856Zm-67.096 1.428v-68.523h-2.855v68.523h2.855Z" fill="#FEEAD6" mask="url(#J)"/><path fill="url(#K)" d="M0-33.8556h404v493.778H0z"/><rect x="196.389" y="283.733" width="8.97778" height="8.97778" rx="2.24444" fill="#12A594"/><rect x="62.8438" y="180.489" width="8.97778" height="8.97778" rx="2.24444" fill="#F66219"/><rect x="130.178" y="14.4" width="8.97778" height="8.97778" rx="2.24444" fill="#12A594"/><rect x="264.844" y="76.1221" width="8.97778" height="8.97778" rx="2.24444" fill="#F66219"/><defs><linearGradient id="K" x1="131.3" y1="79.8734" x2="408.452" y2="332.72" gradientUnits="userSpaceOnUse"><stop stop-color="#FEF8F4" stop-opacity="0"/><stop offset=".585" stop-color="#FEF8F4" stop-opacity=".88"/></linearGradient></defs></svg>