<svg width="404" height="460" viewBox="0 0 404 460" fill="none" xmlns="http://www.w3.org/2000/svg">
<mask id="path-1-inside-1_995_5107" fill="white">
<path d="M0 -26H68.523V116.756H0V-26Z"/>
</mask>
<path d="M0 -26H68.523V116.756H0V-26Z" fill="#FEFCFB"/>
<path d="M68.523 116.756V118.184H69.9505V116.756H68.523ZM0 116.756H-1.42756V118.184H0V116.756ZM67.0954 -26V116.756H69.9505V-26H67.0954ZM68.523 115.329H0V118.184H68.523V115.329ZM1.42756 116.756V-26H-1.42756V116.756H1.42756Z" fill="#FEEAD6" mask="url(#path-1-inside-1_995_5107)"/>
<mask id="path-3-inside-2_995_5107" fill="white">
<path d="M67.0957 -26H135.619V116.756H67.0957V-26Z"/>
</mask>
<path d="M67.0957 -26H135.619V116.756H67.0957V-26Z" fill="#FEFCFB"/>
<path d="M135.619 116.756V118.184H137.046V116.756H135.619ZM67.0957 116.756H65.6681V118.184H67.0957V116.756ZM134.191 -26V116.756H137.046V-26H134.191ZM135.619 115.329H67.0957V118.184H135.619V115.329ZM68.5233 116.756V-26H65.6681V116.756H68.5233Z" fill="#FEEAD6" mask="url(#path-3-inside-2_995_5107)"/>
<mask id="path-5-inside-3_995_5107" fill="white">
<path d="M134.19 -26H202.713V116.756H134.19V-26Z"/>
</mask>
<path d="M134.19 -26H202.713V116.756H134.19V-26Z" fill="#FEFCFB"/>
<path d="M202.713 116.756V118.184H204.141V116.756H202.713ZM134.19 116.756H132.763V118.184H134.19V116.756ZM201.286 -26V116.756H204.141V-26H201.286ZM202.713 115.329H134.19V118.184H202.713V115.329ZM135.618 116.756V-26H132.763V116.756H135.618Z" fill="#FEEAD6" mask="url(#path-5-inside-3_995_5107)"/>
<mask id="path-7-inside-4_995_5107" fill="white">
<path d="M201.286 -26H269.809V116.756H201.286V-26Z"/>
</mask>
<path d="M201.286 -26H269.809V116.756H201.286V-26Z" fill="#FEFCFB"/>
<path d="M269.809 116.756V118.184H271.237V116.756H269.809ZM201.286 116.756H199.859V118.184H201.286V116.756ZM268.382 -26V116.756H271.237V-26H268.382ZM269.809 115.329H201.286V118.184H269.809V115.329ZM202.714 116.756V-26H199.859V116.756H202.714Z" fill="#FEEAD6" mask="url(#path-7-inside-4_995_5107)"/>
<mask id="path-9-inside-5_995_5107" fill="white">
<path d="M268.382 -26H336.905V116.756H268.382V-26Z"/>
</mask>
<path d="M268.382 -26H336.905V116.756H268.382V-26Z" fill="#FEFCFB"/>
<path d="M336.905 116.756V118.184H338.332V116.756H336.905ZM268.382 116.756H266.954V118.184H268.382V116.756ZM335.477 -26V116.756H338.332V-26H335.477ZM336.905 115.329H268.382V118.184H336.905V115.329ZM269.809 116.756V-26H266.954V116.756H269.809Z" fill="#FEEAD6" mask="url(#path-9-inside-5_995_5107)"/>
<mask id="path-11-inside-6_995_5107" fill="white">
<path d="M335.477 -26H404V116.756H335.477V-26Z"/>
</mask>
<path d="M335.477 -26H404V116.756H335.477V-26Z" fill="#FEFCFB"/>
<path d="M404 116.756V118.184H405.427V116.756H404ZM335.477 116.756H334.049V118.184H335.477V116.756ZM402.572 -26V116.756H405.427V-26H402.572ZM404 115.329H335.477V118.184H404V115.329ZM336.904 116.756V-26H334.049V116.756H336.904Z" fill="#FEEAD6" mask="url(#path-11-inside-6_995_5107)"/>
<mask id="path-13-inside-7_995_5107" fill="white">
<path d="M0 116.756H68.523V185.279H0V116.756Z"/>
</mask>
<path d="M0 116.756H68.523V185.279H0V116.756Z" fill="#FEFCFB"/>
<path d="M68.523 185.279V186.707H69.9505V185.279H68.523ZM0 185.279H-1.42756V186.707H0V185.279ZM67.0954 116.756V185.279H69.9505V116.756H67.0954ZM68.523 183.852H0V186.707H68.523V183.852ZM1.42756 185.279V116.756H-1.42756V185.279H1.42756Z" fill="#FEEAD6" mask="url(#path-13-inside-7_995_5107)"/>
<mask id="path-15-inside-8_995_5107" fill="white">
<path d="M67.0957 116.756H135.619V185.279H67.0957V116.756Z"/>
</mask>
<path d="M67.0957 116.756H135.619V185.279H67.0957V116.756Z" fill="#FEFCFB"/>
<path d="M135.619 185.279V186.707H137.046V185.279H135.619ZM67.0957 185.279H65.6681V186.707H67.0957V185.279ZM134.191 116.756V185.279H137.046V116.756H134.191ZM135.619 183.852H67.0957V186.707H135.619V183.852ZM68.5233 185.279V116.756H65.6681V185.279H68.5233Z" fill="#FEEAD6" mask="url(#path-15-inside-8_995_5107)"/>
<mask id="path-17-inside-9_995_5107" fill="white">
<path d="M134.19 116.756H202.713V185.279H134.19V116.756Z"/>
</mask>
<path d="M134.19 116.756H202.713V185.279H134.19V116.756Z" fill="#FEFCFB"/>
<path d="M202.713 185.279V186.707H204.141V185.279H202.713ZM134.19 185.279H132.763V186.707H134.19V185.279ZM201.286 116.756V185.279H204.141V116.756H201.286ZM202.713 183.852H134.19V186.707H202.713V183.852ZM135.618 185.279V116.756H132.763V185.279H135.618Z" fill="#FEEAD6" mask="url(#path-17-inside-9_995_5107)"/>
<mask id="path-19-inside-10_995_5107" fill="white">
<path d="M201.286 116.756H269.809V185.279H201.286V116.756Z"/>
</mask>
<path d="M201.286 116.756H269.809V185.279H201.286V116.756Z" fill="#FEFCFB"/>
<path d="M269.809 185.279V186.707H271.237V185.279H269.809ZM201.286 185.279H199.859V186.707H201.286V185.279ZM268.382 116.756V185.279H271.237V116.756H268.382ZM269.809 183.852H201.286V186.707H269.809V183.852ZM202.714 185.279V116.756H199.859V185.279H202.714Z" fill="#FEEAD6" mask="url(#path-19-inside-10_995_5107)"/>
<mask id="path-21-inside-11_995_5107" fill="white">
<path d="M268.382 116.756H336.905V185.279H268.382V116.756Z"/>
</mask>
<path d="M268.382 116.756H336.905V185.279H268.382V116.756Z" fill="#FEFCFB"/>
<path d="M336.905 185.279V186.707H338.332V185.279H336.905ZM268.382 185.279H266.954V186.707H268.382V185.279ZM335.477 116.756V185.279H338.332V116.756H335.477ZM336.905 183.852H268.382V186.707H336.905V183.852ZM269.809 185.279V116.756H266.954V185.279H269.809Z" fill="#FEEAD6" mask="url(#path-21-inside-11_995_5107)"/>
<mask id="path-23-inside-12_995_5107" fill="white">
<path d="M335.477 116.756H404V185.279H335.477V116.756Z"/>
</mask>
<path d="M335.477 116.756H404V185.279H335.477V116.756Z" fill="#FEFCFB"/>
<path d="M404 185.279V186.707H405.427V185.279H404ZM335.477 185.279H334.049V186.707H335.477V185.279ZM402.572 116.756V185.279H405.427V116.756H402.572ZM404 183.852H335.477V186.707H404V183.852ZM336.904 185.279V116.756H334.049V185.279H336.904Z" fill="#FEEAD6" mask="url(#path-23-inside-12_995_5107)"/>
<mask id="path-25-inside-13_995_5107" fill="white">
<path d="M0 185.279H68.523V253.802H0V185.279Z"/>
</mask>
<path d="M0 185.279H68.523V253.802H0V185.279Z" fill="#FEFCFB"/>
<path d="M68.523 253.802V255.23H69.9505V253.802H68.523ZM0 253.802H-1.42756V255.23H0V253.802ZM67.0954 185.279V253.802H69.9505V185.279H67.0954ZM68.523 252.375H0V255.23H68.523V252.375ZM1.42756 253.802V185.279H-1.42756V253.802H1.42756Z" fill="#FEEAD6" mask="url(#path-25-inside-13_995_5107)"/>
<mask id="path-27-inside-14_995_5107" fill="white">
<path d="M67.0957 185.279H135.619V253.802H67.0957V185.279Z"/>
</mask>
<path d="M67.0957 185.279H135.619V253.802H67.0957V185.279Z" fill="#FEFCFB"/>
<path d="M135.619 253.802V255.23H137.046V253.802H135.619ZM67.0957 253.802H65.6681V255.23H67.0957V253.802ZM134.191 185.279V253.802H137.046V185.279H134.191ZM135.619 252.375H67.0957V255.23H135.619V252.375ZM68.5233 253.802V185.279H65.6681V253.802H68.5233Z" fill="#FEEAD6" mask="url(#path-27-inside-14_995_5107)"/>
<mask id="path-29-inside-15_995_5107" fill="white">
<path d="M134.19 185.279H202.713V253.802H134.19V185.279Z"/>
</mask>
<path d="M134.19 185.279H202.713V253.802H134.19V185.279Z" fill="#FEFCFB"/>
<path d="M202.713 253.802V255.23H204.141V253.802H202.713ZM134.19 253.802H132.763V255.23H134.19V253.802ZM201.286 185.279V253.802H204.141V185.279H201.286ZM202.713 252.375H134.19V255.23H202.713V252.375ZM135.618 253.802V185.279H132.763V253.802H135.618Z" fill="#FEEAD6" mask="url(#path-29-inside-15_995_5107)"/>
<mask id="path-31-inside-16_995_5107" fill="white">
<path d="M201.286 185.279H269.809V253.802H201.286V185.279Z"/>
</mask>
<path d="M201.286 185.279H269.809V253.802H201.286V185.279Z" fill="#FEFCFB"/>
<path d="M269.809 253.802V255.23H271.237V253.802H269.809ZM201.286 253.802H199.859V255.23H201.286V253.802ZM268.382 185.279V253.802H271.237V185.279H268.382ZM269.809 252.375H201.286V255.23H269.809V252.375ZM202.714 253.802V185.279H199.859V253.802H202.714Z" fill="#FEEAD6" mask="url(#path-31-inside-16_995_5107)"/>
<mask id="path-33-inside-17_995_5107" fill="white">
<path d="M268.382 185.279H336.905V253.802H268.382V185.279Z"/>
</mask>
<path d="M268.382 185.279H336.905V253.802H268.382V185.279Z" fill="#FEFCFB"/>
<path d="M336.905 253.802V255.23H338.332V253.802H336.905ZM268.382 253.802H266.954V255.23H268.382V253.802ZM335.477 185.279V253.802H338.332V185.279H335.477ZM336.905 252.375H268.382V255.23H336.905V252.375ZM269.809 253.802V185.279H266.954V253.802H269.809Z" fill="#FEEAD6" mask="url(#path-33-inside-17_995_5107)"/>
<mask id="path-35-inside-18_995_5107" fill="white">
<path d="M335.477 185.279H404V253.802H335.477V185.279Z"/>
</mask>
<path d="M335.477 185.279H404V253.802H335.477V185.279Z" fill="#FEFCFB"/>
<path d="M404 253.802V255.23H405.427V253.802H404ZM335.477 253.802H334.049V255.23H335.477V253.802ZM402.572 185.279V253.802H405.427V185.279H402.572ZM404 252.375H335.477V255.23H404V252.375ZM336.904 253.802V185.279H334.049V253.802H336.904Z" fill="#FEEAD6" mask="url(#path-35-inside-18_995_5107)"/>
<mask id="path-37-inside-19_995_5107" fill="white">
<path d="M0 253.802H68.523V322.325H0V253.802Z"/>
</mask>
<path d="M0 253.802H68.523V322.325H0V253.802Z" fill="#FEFCFB"/>
<path d="M68.523 322.325V323.753H69.9505V322.325H68.523ZM0 322.325H-1.42756V323.753H0V322.325ZM67.0954 253.802V322.325H69.9505V253.802H67.0954ZM68.523 320.898H0V323.753H68.523V320.898ZM1.42756 322.325V253.802H-1.42756V322.325H1.42756Z" fill="#FEEAD6" mask="url(#path-37-inside-19_995_5107)"/>
<mask id="path-39-inside-20_995_5107" fill="white">
<path d="M67.0957 253.802H135.619V322.325H67.0957V253.802Z"/>
</mask>
<path d="M67.0957 253.802H135.619V322.325H67.0957V253.802Z" fill="#FEFCFB"/>
<path d="M135.619 322.325V323.753H137.046V322.325H135.619ZM67.0957 322.325H65.6681V323.753H67.0957V322.325ZM134.191 253.802V322.325H137.046V253.802H134.191ZM135.619 320.898H67.0957V323.753H135.619V320.898ZM68.5233 322.325V253.802H65.6681V322.325H68.5233Z" fill="#FEEAD6" mask="url(#path-39-inside-20_995_5107)"/>
<mask id="path-41-inside-21_995_5107" fill="white">
<path d="M134.19 253.802H202.713V322.325H134.19V253.802Z"/>
</mask>
<path d="M134.19 253.802H202.713V322.325H134.19V253.802Z" fill="#FEFCFB"/>
<path d="M202.713 322.325V323.753H204.141V322.325H202.713ZM134.19 322.325H132.763V323.753H134.19V322.325ZM201.286 253.802V322.325H204.141V253.802H201.286ZM202.713 320.898H134.19V323.753H202.713V320.898ZM135.618 322.325V253.802H132.763V322.325H135.618Z" fill="#FEEAD6" mask="url(#path-41-inside-21_995_5107)"/>
<mask id="path-43-inside-22_995_5107" fill="white">
<path d="M201.286 253.802H269.809V322.325H201.286V253.802Z"/>
</mask>
<path d="M201.286 253.802H269.809V322.325H201.286V253.802Z" fill="#FEFCFB"/>
<path d="M269.809 322.325V323.753H271.237V322.325H269.809ZM201.286 322.325H199.859V323.753H201.286V322.325ZM268.382 253.802V322.325H271.237V253.802H268.382ZM269.809 320.898H201.286V323.753H269.809V320.898ZM202.714 322.325V253.802H199.859V322.325H202.714Z" fill="#FEEAD6" mask="url(#path-43-inside-22_995_5107)"/>
<mask id="path-45-inside-23_995_5107" fill="white">
<path d="M268.382 253.802H336.905V322.325H268.382V253.802Z"/>
</mask>
<path d="M268.382 253.802H336.905V322.325H268.382V253.802Z" fill="#FEFCFB"/>
<path d="M336.905 322.325V323.753H338.332V322.325H336.905ZM268.382 322.325H266.954V323.753H268.382V322.325ZM335.477 253.802V322.325H338.332V253.802H335.477ZM336.905 320.898H268.382V323.753H336.905V320.898ZM269.809 322.325V253.802H266.954V322.325H269.809Z" fill="#FEEAD6" mask="url(#path-45-inside-23_995_5107)"/>
<mask id="path-47-inside-24_995_5107" fill="white">
<path d="M335.477 253.802H404V322.325H335.477V253.802Z"/>
</mask>
<path d="M335.477 253.802H404V322.325H335.477V253.802Z" fill="#FEFCFB"/>
<path d="M404 322.325V323.753H405.427V322.325H404ZM335.477 322.325H334.049V323.753H335.477V322.325ZM402.572 253.802V322.325H405.427V253.802H402.572ZM404 320.898H335.477V323.753H404V320.898ZM336.904 322.325V253.802H334.049V322.325H336.904Z" fill="#FEEAD6" mask="url(#path-47-inside-24_995_5107)"/>
<mask id="path-49-inside-25_995_5107" fill="white">
<path d="M0 322.325H68.523V390.848H0V322.325Z"/>
</mask>
<path d="M0 322.325H68.523V390.848H0V322.325Z" fill="#FEFCFB"/>
<path d="M68.523 390.848V392.276H69.9505V390.848H68.523ZM0 390.848H-1.42756V392.276H0V390.848ZM67.0954 322.325V390.848H69.9505V322.325H67.0954ZM68.523 389.42H0V392.276H68.523V389.42ZM1.42756 390.848V322.325H-1.42756V390.848H1.42756Z" fill="#FEEAD6" mask="url(#path-49-inside-25_995_5107)"/>
<mask id="path-51-inside-26_995_5107" fill="white">
<path d="M67.0957 322.325H135.619V390.848H67.0957V322.325Z"/>
</mask>
<path d="M67.0957 322.325H135.619V390.848H67.0957V322.325Z" fill="#FEFCFB"/>
<path d="M135.619 390.848V392.276H137.046V390.848H135.619ZM67.0957 390.848H65.6681V392.276H67.0957V390.848ZM134.191 322.325V390.848H137.046V322.325H134.191ZM135.619 389.42H67.0957V392.276H135.619V389.42ZM68.5233 390.848V322.325H65.6681V390.848H68.5233Z" fill="#FEEAD6" mask="url(#path-51-inside-26_995_5107)"/>
<mask id="path-53-inside-27_995_5107" fill="white">
<path d="M134.19 322.325H202.713V390.848H134.19V322.325Z"/>
</mask>
<path d="M134.19 322.325H202.713V390.848H134.19V322.325Z" fill="#FEFCFB"/>
<path d="M202.713 390.848V392.276H204.141V390.848H202.713ZM134.19 390.848H132.763V392.276H134.19V390.848ZM201.286 322.325V390.848H204.141V322.325H201.286ZM202.713 389.42H134.19V392.276H202.713V389.42ZM135.618 390.848V322.325H132.763V390.848H135.618Z" fill="#FEEAD6" mask="url(#path-53-inside-27_995_5107)"/>
<mask id="path-55-inside-28_995_5107" fill="white">
<path d="M201.286 322.325H269.809V390.848H201.286V322.325Z"/>
</mask>
<path d="M201.286 322.325H269.809V390.848H201.286V322.325Z" fill="#FEFCFB"/>
<path d="M269.809 390.848V392.276H271.237V390.848H269.809ZM201.286 390.848H199.859V392.276H201.286V390.848ZM268.382 322.325V390.848H271.237V322.325H268.382ZM269.809 389.42H201.286V392.276H269.809V389.42ZM202.714 390.848V322.325H199.859V390.848H202.714Z" fill="#FEEAD6" mask="url(#path-55-inside-28_995_5107)"/>
<mask id="path-57-inside-29_995_5107" fill="white">
<path d="M268.382 322.325H336.905V390.848H268.382V322.325Z"/>
</mask>
<path d="M268.382 322.325H336.905V390.848H268.382V322.325Z" fill="#FEFCFB"/>
<path d="M336.905 390.848V392.276H338.332V390.848H336.905ZM268.382 390.848H266.954V392.276H268.382V390.848ZM335.477 322.325V390.848H338.332V322.325H335.477ZM336.905 389.42H268.382V392.276H336.905V389.42ZM269.809 390.848V322.325H266.954V390.848H269.809Z" fill="#FEEAD6" mask="url(#path-57-inside-29_995_5107)"/>
<mask id="path-59-inside-30_995_5107" fill="white">
<path d="M335.477 322.325H404V390.848H335.477V322.325Z"/>
</mask>
<path d="M335.477 322.325H404V390.848H335.477V322.325Z" fill="#FEFCFB"/>
<path d="M404 390.848V392.276H405.427V390.848H404ZM335.477 390.848H334.049V392.276H335.477V390.848ZM402.572 322.325V390.848H405.427V322.325H402.572ZM404 389.42H335.477V392.276H404V389.42ZM336.904 390.848V322.325H334.049V390.848H336.904Z" fill="#FEEAD6" mask="url(#path-59-inside-30_995_5107)"/>
<mask id="path-61-inside-31_995_5107" fill="white">
<path d="M0 390.848H68.523V459.371H0V390.848Z"/>
</mask>
<path d="M0 390.848H68.523V459.371H0V390.848Z" fill="#FEFCFB"/>
<path d="M68.523 459.371V460.799H69.9505V459.371H68.523ZM0 459.371H-1.42756V460.799H0V459.371ZM67.0954 390.848V459.371H69.9505V390.848H67.0954ZM68.523 457.943H0V460.799H68.523V457.943ZM1.42756 459.371V390.848H-1.42756V459.371H1.42756Z" fill="#FEEAD6" mask="url(#path-61-inside-31_995_5107)"/>
<mask id="path-63-inside-32_995_5107" fill="white">
<path d="M67.0957 390.848H135.619V459.371H67.0957V390.848Z"/>
</mask>
<path d="M67.0957 390.848H135.619V459.371H67.0957V390.848Z" fill="#FEFCFB"/>
<path d="M135.619 459.371V460.799H137.046V459.371H135.619ZM67.0957 459.371H65.6681V460.799H67.0957V459.371ZM134.191 390.848V459.371H137.046V390.848H134.191ZM135.619 457.943H67.0957V460.799H135.619V457.943ZM68.5233 459.371V390.848H65.6681V459.371H68.5233Z" fill="#FEEAD6" mask="url(#path-63-inside-32_995_5107)"/>
<mask id="path-65-inside-33_995_5107" fill="white">
<path d="M134.19 390.848H202.713V459.371H134.19V390.848Z"/>
</mask>
<path d="M134.19 390.848H202.713V459.371H134.19V390.848Z" fill="#FEFCFB"/>
<path d="M202.713 459.371V460.799H204.141V459.371H202.713ZM134.19 459.371H132.763V460.799H134.19V459.371ZM201.286 390.848V459.371H204.141V390.848H201.286ZM202.713 457.943H134.19V460.799H202.713V457.943ZM135.618 459.371V390.848H132.763V459.371H135.618Z" fill="#FEEAD6" mask="url(#path-65-inside-33_995_5107)"/>
<mask id="path-67-inside-34_995_5107" fill="white">
<path d="M201.286 390.848H269.809V459.371H201.286V390.848Z"/>
</mask>
<path d="M201.286 390.848H269.809V459.371H201.286V390.848Z" fill="#FEFCFB"/>
<path d="M269.809 459.371V460.799H271.237V459.371H269.809ZM201.286 459.371H199.859V460.799H201.286V459.371ZM268.382 390.848V459.371H271.237V390.848H268.382ZM269.809 457.943H201.286V460.799H269.809V457.943ZM202.714 459.371V390.848H199.859V459.371H202.714Z" fill="#FEEAD6" mask="url(#path-67-inside-34_995_5107)"/>
<mask id="path-69-inside-35_995_5107" fill="white">
<path d="M268.382 390.848H336.905V459.371H268.382V390.848Z"/>
</mask>
<path d="M268.382 390.848H336.905V459.371H268.382V390.848Z" fill="#FEFCFB"/>
<path d="M336.905 459.371V460.799H338.332V459.371H336.905ZM268.382 459.371H266.954V460.799H268.382V459.371ZM335.477 390.848V459.371H338.332V390.848H335.477ZM336.905 457.943H268.382V460.799H336.905V457.943ZM269.809 459.371V390.848H266.954V459.371H269.809Z" fill="#FEEAD6" mask="url(#path-69-inside-35_995_5107)"/>
<mask id="path-71-inside-36_995_5107" fill="white">
<path d="M335.477 390.848H404V459.371H335.477V390.848Z"/>
</mask>
<path d="M335.477 390.848H404V459.371H335.477V390.848Z" fill="#FEFCFB"/>
<path d="M404 459.371V460.799H405.427V459.371H404ZM335.477 459.371H334.049V460.799H335.477V459.371ZM402.572 390.848V459.371H405.427V390.848H402.572ZM404 457.943H335.477V460.799H404V457.943ZM336.904 459.371V390.848H334.049V459.371H336.904Z" fill="#FEEAD6" mask="url(#path-71-inside-36_995_5107)"/>
<rect y="-33.8556" width="404" height="493.778" fill="url(#paint0_linear_995_5107)"/>
<rect x="196.389" y="283.733" width="8.97778" height="8.97778" rx="2.24444" fill="#12A594"/>
<rect x="62.8438" y="180.489" width="8.97778" height="8.97778" rx="2.24444" fill="#F66219"/>
<rect x="130.178" y="14.4" width="8.97778" height="8.97778" rx="2.24444" fill="#12A594"/>
<rect x="264.844" y="76.1221" width="8.97778" height="8.97778" rx="2.24444" fill="#F66219"/>
<defs>
<linearGradient id="paint0_linear_995_5107" x1="131.3" y1="79.8734" x2="408.452" y2="332.72" gradientUnits="userSpaceOnUse">
<stop stop-color="#FEF8F4" stop-opacity="0"/>
<stop offset="0.585" stop-color="#FEF8F4" stop-opacity="0.88"/>
</linearGradient>
</defs>
</svg>
