<svg width="480" height="152" viewBox="0 0 480 152" fill="none" xmlns="http://www.w3.org/2000/svg">
<rect width="480" height="152" rx="12" fill="white" fill-opacity="0.592"/>
<rect x="4" y="4" width="472" height="144" rx="8" fill="white" fill-opacity="0.923"/>
<mask id="path-3-inside-1_995_5337" fill="white">
<path d="M4 4H476V36H4V4Z"/>
</mask>
<path d="M4 4H476V36H4V4Z" fill="#F8F9FA"/>
<path d="M476 35H4V37H476V35Z" fill="#F1F3F5" mask="url(#path-3-inside-1_995_5337)"/>
<path d="M16.888 24.5V15.86H18.16V24.5H16.888ZM19.9229 24.5V18.38H21.1109V19.82H21.1709V24.5H19.9229ZM24.2669 24.5V20.564C24.2669 20.14 24.1589 19.824 23.9429 19.616C23.7349 19.408 23.4229 19.304 23.0069 19.304C22.6469 19.304 22.3269 19.384 22.0469 19.544C21.7749 19.704 21.5589 19.924 21.3989 20.204C21.2469 20.484 21.1709 20.816 21.1709 21.2L21.0149 19.736C21.2149 19.28 21.5229 18.92 21.9389 18.656C22.3549 18.392 22.8389 18.26 23.3909 18.26C24.0469 18.26 24.5629 18.444 24.9389 18.812C25.3149 19.18 25.5029 19.668 25.5029 20.276V24.5H24.2669ZM28.6944 24.5L26.1984 18.38H27.5304L29.5704 23.936H28.9824L30.9984 18.38H32.2824L29.7984 24.5H28.6944ZM35.8056 24.62C35.1816 24.62 34.6336 24.484 34.1616 24.212C33.6896 23.932 33.3216 23.552 33.0576 23.072C32.7936 22.584 32.6616 22.032 32.6616 21.416C32.6616 20.792 32.7936 20.244 33.0576 19.772C33.3296 19.3 33.6976 18.932 34.1616 18.668C34.6336 18.396 35.1816 18.26 35.8056 18.26C36.4376 18.26 36.9896 18.396 37.4616 18.668C37.9336 18.932 38.2976 19.3 38.5536 19.772C38.8176 20.244 38.9496 20.792 38.9496 21.416C38.9496 22.032 38.8176 22.584 38.5536 23.072C38.2976 23.552 37.9336 23.932 37.4616 24.212C36.9896 24.484 36.4376 24.62 35.8056 24.62ZM35.8056 23.6C36.1816 23.6 36.5056 23.508 36.7776 23.324C37.0576 23.14 37.2776 22.884 37.4376 22.556C37.5976 22.228 37.6776 21.844 37.6776 21.404C37.6776 20.748 37.5016 20.232 37.1496 19.856C36.8056 19.472 36.3576 19.28 35.8056 19.28C35.2616 19.28 34.8136 19.472 34.4616 19.856C34.1176 20.24 33.9456 20.756 33.9456 21.404C33.9456 21.844 34.0216 22.228 34.1736 22.556C34.3336 22.884 34.5536 23.14 34.8336 23.324C35.1216 23.508 35.4456 23.6 35.8056 23.6ZM40.2198 24.5V18.38H41.4678V24.5H40.2198ZM40.1598 17.18V15.776H41.5398V17.18H40.1598ZM45.7403 24.62C45.1563 24.62 44.6363 24.484 44.1803 24.212C43.7243 23.932 43.3643 23.552 43.1003 23.072C42.8443 22.592 42.7163 22.044 42.7163 21.428C42.7163 20.812 42.8443 20.268 43.1003 19.796C43.3643 19.316 43.7243 18.94 44.1803 18.668C44.6363 18.396 45.1523 18.26 45.7283 18.26C46.2163 18.26 46.6523 18.352 47.0363 18.536C47.4203 18.72 47.7363 18.976 47.9843 19.304C48.2323 19.632 48.3923 20.02 48.4643 20.468H47.2883C47.2083 20.108 47.0323 19.82 46.7603 19.604C46.4963 19.388 46.1603 19.28 45.7523 19.28C45.4003 19.28 45.0923 19.368 44.8283 19.544C44.5643 19.72 44.3603 19.968 44.2163 20.288C44.0723 20.608 44.0003 20.988 44.0003 21.428C44.0003 21.86 44.0723 22.24 44.2163 22.568C44.3603 22.896 44.5643 23.152 44.8283 23.336C45.0923 23.512 45.4043 23.6 45.7643 23.6C46.1563 23.6 46.4883 23.496 46.7603 23.288C47.0403 23.072 47.2203 22.784 47.3003 22.424H48.4763C48.3963 22.864 48.2283 23.248 47.9723 23.576C47.7243 23.904 47.4083 24.16 47.0243 24.344C46.6403 24.528 46.2123 24.62 45.7403 24.62ZM52.3285 24.62C51.7125 24.62 51.1685 24.484 50.6965 24.212C50.2325 23.94 49.8685 23.564 49.6045 23.084C49.3405 22.604 49.2085 22.052 49.2085 21.428C49.2085 20.796 49.3365 20.244 49.5925 19.772C49.8565 19.292 50.2245 18.92 50.6965 18.656C51.1685 18.392 51.7085 18.26 52.3165 18.26C52.9085 18.26 53.4205 18.388 53.8525 18.644C54.2925 18.892 54.6285 19.24 54.8605 19.688C55.1005 20.136 55.2205 20.668 55.2205 21.284C55.2205 21.38 55.2165 21.472 55.2085 21.56C55.2085 21.64 55.2005 21.724 55.1845 21.812H50.0485V20.876H54.3085L53.9965 21.248C53.9965 20.592 53.8485 20.092 53.5525 19.748C53.2565 19.404 52.8445 19.232 52.3165 19.232C51.7485 19.232 51.2965 19.428 50.9605 19.82C50.6325 20.204 50.4685 20.74 50.4685 21.428C50.4685 22.124 50.6325 22.668 50.9605 23.06C51.2965 23.452 51.7605 23.648 52.3525 23.648C52.7125 23.648 53.0245 23.576 53.2885 23.432C53.5525 23.28 53.7485 23.06 53.8765 22.772H55.0525C54.8525 23.348 54.5125 23.8 54.0325 24.128C53.5605 24.456 52.9925 24.62 52.3285 24.62Z" fill="#11181C"/>
<path d="M161.656 24.5V23.444H163.924C164.612 23.444 165.2 23.304 165.688 23.024C166.184 22.744 166.564 22.356 166.828 21.86C167.092 21.364 167.224 20.788 167.224 20.132C167.224 19.484 167.092 18.92 166.828 18.44C166.572 17.96 166.196 17.588 165.7 17.324C165.212 17.052 164.62 16.916 163.924 16.916H161.668V15.86H163.924C164.852 15.86 165.66 16.036 166.348 16.388C167.036 16.74 167.568 17.24 167.944 17.888C168.328 18.528 168.52 19.284 168.52 20.156C168.52 21.028 168.328 21.792 167.944 22.448C167.56 23.096 167.024 23.6 166.336 23.96C165.656 24.32 164.856 24.5 163.936 24.5H161.656ZM160.888 24.5V15.86H162.16V24.5H160.888ZM173.609 24.5C173.569 24.348 173.541 24.18 173.525 23.996C173.517 23.812 173.513 23.588 173.513 23.324H173.453V20.408C173.453 20.016 173.353 19.724 173.153 19.532C172.961 19.332 172.653 19.232 172.229 19.232C171.821 19.232 171.493 19.312 171.245 19.472C171.005 19.632 170.865 19.86 170.825 20.156H169.637C169.693 19.58 169.953 19.12 170.417 18.776C170.881 18.432 171.501 18.26 172.277 18.26C173.077 18.26 173.677 18.448 174.077 18.824C174.477 19.192 174.677 19.736 174.677 20.456V23.324C174.677 23.508 174.689 23.696 174.713 23.888C174.737 24.08 174.773 24.284 174.821 24.5H173.609ZM171.497 24.62C170.873 24.62 170.377 24.468 170.009 24.164C169.641 23.852 169.457 23.432 169.457 22.904C169.457 22.36 169.649 21.932 170.033 21.62C170.425 21.3 170.985 21.084 171.713 20.972L173.729 20.648V21.524L171.905 21.812C171.497 21.876 171.189 21.984 170.981 22.136C170.781 22.288 170.681 22.508 170.681 22.796C170.681 23.076 170.773 23.288 170.957 23.432C171.149 23.568 171.425 23.636 171.785 23.636C172.265 23.636 172.661 23.52 172.973 23.288C173.293 23.056 173.453 22.764 173.453 22.412L173.609 23.3C173.465 23.724 173.209 24.052 172.841 24.284C172.473 24.508 172.025 24.62 171.497 24.62ZM178.714 24.62C178.002 24.62 177.478 24.456 177.142 24.128C176.814 23.792 176.65 23.3 176.65 22.652V16.976L177.886 16.508V22.664C177.886 22.984 177.97 23.22 178.138 23.372C178.306 23.524 178.578 23.6 178.954 23.6C179.098 23.6 179.226 23.588 179.338 23.564C179.45 23.54 179.546 23.512 179.626 23.48V24.488C179.538 24.528 179.414 24.56 179.254 24.584C179.094 24.608 178.914 24.62 178.714 24.62ZM175.426 19.376V18.38H179.626V19.376H175.426ZM183.297 24.62C182.681 24.62 182.137 24.484 181.665 24.212C181.201 23.94 180.837 23.564 180.573 23.084C180.309 22.604 180.177 22.052 180.177 21.428C180.177 20.796 180.305 20.244 180.561 19.772C180.825 19.292 181.193 18.92 181.665 18.656C182.137 18.392 182.677 18.26 183.285 18.26C183.877 18.26 184.389 18.388 184.821 18.644C185.261 18.892 185.597 19.24 185.829 19.688C186.069 20.136 186.189 20.668 186.189 21.284C186.189 21.38 186.185 21.472 186.177 21.56C186.177 21.64 186.169 21.724 186.153 21.812H181.017V20.876H185.277L184.965 21.248C184.965 20.592 184.817 20.092 184.521 19.748C184.225 19.404 183.813 19.232 183.285 19.232C182.717 19.232 182.265 19.428 181.929 19.82C181.601 20.204 181.437 20.74 181.437 21.428C181.437 22.124 181.601 22.668 181.929 23.06C182.265 23.452 182.729 23.648 183.321 23.648C183.681 23.648 183.993 23.576 184.257 23.432C184.521 23.28 184.717 23.06 184.845 22.772H186.021C185.821 23.348 185.481 23.8 185.001 24.128C184.529 24.456 183.961 24.62 183.297 24.62Z" fill="#11181C"/>
<path d="M265.824 24.5V23.516H268.404C268.892 23.516 269.272 23.384 269.544 23.12C269.824 22.856 269.964 22.496 269.964 22.04C269.964 21.56 269.816 21.176 269.52 20.888C269.232 20.6 268.836 20.456 268.332 20.456H265.824V19.496H268.212C268.7 19.496 269.076 19.38 269.34 19.148C269.612 18.908 269.748 18.568 269.748 18.128C269.748 17.712 269.62 17.396 269.364 17.18C269.116 16.956 268.748 16.844 268.26 16.844H265.824V15.86H268.452C269.236 15.86 269.86 16.052 270.324 16.436C270.788 16.812 271.02 17.328 271.02 17.984C271.02 18.4 270.924 18.768 270.732 19.088C270.548 19.4 270.292 19.644 269.964 19.82C269.636 19.988 269.264 20.072 268.848 20.072L268.908 19.82C269.356 19.82 269.756 19.924 270.108 20.132C270.46 20.332 270.74 20.608 270.948 20.96C271.156 21.312 271.26 21.72 271.26 22.184C271.26 22.64 271.148 23.044 270.924 23.396C270.708 23.748 270.4 24.02 270 24.212C269.6 24.404 269.136 24.5 268.608 24.5H265.824ZM264.888 24.5V15.86H266.16V24.5H264.888ZM276.297 24.5C276.257 24.348 276.229 24.18 276.213 23.996C276.205 23.812 276.201 23.588 276.201 23.324H276.141V20.408C276.141 20.016 276.041 19.724 275.841 19.532C275.649 19.332 275.341 19.232 274.917 19.232C274.509 19.232 274.181 19.312 273.933 19.472C273.693 19.632 273.553 19.86 273.513 20.156H272.325C272.381 19.58 272.641 19.12 273.105 18.776C273.569 18.432 274.189 18.26 274.965 18.26C275.765 18.26 276.365 18.448 276.765 18.824C277.165 19.192 277.365 19.736 277.365 20.456V23.324C277.365 23.508 277.377 23.696 277.401 23.888C277.425 24.08 277.461 24.284 277.509 24.5H276.297ZM274.185 24.62C273.561 24.62 273.065 24.468 272.697 24.164C272.329 23.852 272.145 23.432 272.145 22.904C272.145 22.36 272.337 21.932 272.721 21.62C273.113 21.3 273.673 21.084 274.401 20.972L276.417 20.648V21.524L274.593 21.812C274.185 21.876 273.877 21.984 273.669 22.136C273.469 22.288 273.369 22.508 273.369 22.796C273.369 23.076 273.461 23.288 273.645 23.432C273.837 23.568 274.113 23.636 274.473 23.636C274.953 23.636 275.349 23.52 275.661 23.288C275.981 23.056 276.141 22.764 276.141 22.412L276.297 23.3C276.153 23.724 275.897 24.052 275.529 24.284C275.161 24.508 274.713 24.62 274.185 24.62ZM279.056 24.5V15.86H280.304V24.5H279.056ZM285.848 24.5C285.808 24.348 285.78 24.18 285.764 23.996C285.756 23.812 285.752 23.588 285.752 23.324H285.692V20.408C285.692 20.016 285.592 19.724 285.392 19.532C285.2 19.332 284.892 19.232 284.468 19.232C284.06 19.232 283.732 19.312 283.484 19.472C283.244 19.632 283.104 19.86 283.064 20.156H281.876C281.932 19.58 282.192 19.12 282.656 18.776C283.12 18.432 283.74 18.26 284.516 18.26C285.316 18.26 285.916 18.448 286.316 18.824C286.716 19.192 286.916 19.736 286.916 20.456V23.324C286.916 23.508 286.928 23.696 286.952 23.888C286.976 24.08 287.012 24.284 287.06 24.5H285.848ZM283.736 24.62C283.112 24.62 282.616 24.468 282.248 24.164C281.88 23.852 281.696 23.432 281.696 22.904C281.696 22.36 281.888 21.932 282.272 21.62C282.664 21.3 283.224 21.084 283.952 20.972L285.968 20.648V21.524L284.144 21.812C283.736 21.876 283.428 21.984 283.22 22.136C283.02 22.288 282.92 22.508 282.92 22.796C282.92 23.076 283.012 23.288 283.196 23.432C283.388 23.568 283.664 23.636 284.024 23.636C284.504 23.636 284.9 23.52 285.212 23.288C285.532 23.056 285.692 22.764 285.692 22.412L285.848 23.3C285.704 23.724 285.448 24.052 285.08 24.284C284.712 24.508 284.264 24.62 283.736 24.62ZM288.606 24.5V18.38H289.794V19.82H289.854V24.5H288.606ZM292.95 24.5V20.564C292.95 20.14 292.842 19.824 292.626 19.616C292.418 19.408 292.106 19.304 291.69 19.304C291.33 19.304 291.01 19.384 290.73 19.544C290.458 19.704 290.242 19.924 290.082 20.204C289.93 20.484 289.854 20.816 289.854 21.2L289.698 19.736C289.898 19.28 290.206 18.92 290.622 18.656C291.038 18.392 291.522 18.26 292.074 18.26C292.73 18.26 293.246 18.444 293.622 18.812C293.998 19.18 294.186 19.668 294.186 20.276V24.5H292.95ZM298.428 24.62C297.844 24.62 297.324 24.484 296.868 24.212C296.412 23.932 296.052 23.552 295.788 23.072C295.532 22.592 295.404 22.044 295.404 21.428C295.404 20.812 295.532 20.268 295.788 19.796C296.052 19.316 296.412 18.94 296.868 18.668C297.324 18.396 297.84 18.26 298.416 18.26C298.904 18.26 299.34 18.352 299.724 18.536C300.108 18.72 300.424 18.976 300.672 19.304C300.92 19.632 301.08 20.02 301.152 20.468H299.976C299.896 20.108 299.72 19.82 299.448 19.604C299.184 19.388 298.848 19.28 298.44 19.28C298.088 19.28 297.78 19.368 297.516 19.544C297.252 19.72 297.048 19.968 296.904 20.288C296.76 20.608 296.688 20.988 296.688 21.428C296.688 21.86 296.76 22.24 296.904 22.568C297.048 22.896 297.252 23.152 297.516 23.336C297.78 23.512 298.092 23.6 298.452 23.6C298.844 23.6 299.176 23.496 299.448 23.288C299.728 23.072 299.908 22.784 299.988 22.424H301.164C301.084 22.864 300.916 23.248 300.66 23.576C300.412 23.904 300.096 24.16 299.712 24.344C299.328 24.528 298.9 24.62 298.428 24.62ZM305.016 24.62C304.4 24.62 303.856 24.484 303.384 24.212C302.92 23.94 302.556 23.564 302.292 23.084C302.028 22.604 301.896 22.052 301.896 21.428C301.896 20.796 302.024 20.244 302.28 19.772C302.544 19.292 302.912 18.92 303.384 18.656C303.856 18.392 304.396 18.26 305.004 18.26C305.596 18.26 306.108 18.388 306.54 18.644C306.98 18.892 307.316 19.24 307.548 19.688C307.788 20.136 307.908 20.668 307.908 21.284C307.908 21.38 307.904 21.472 307.896 21.56C307.896 21.64 307.888 21.724 307.872 21.812H302.736V20.876H306.996L306.684 21.248C306.684 20.592 306.536 20.092 306.24 19.748C305.944 19.404 305.532 19.232 305.004 19.232C304.436 19.232 303.984 19.428 303.648 19.82C303.32 20.204 303.156 20.74 303.156 21.428C303.156 22.124 303.32 22.668 303.648 23.06C303.984 23.452 304.448 23.648 305.04 23.648C305.4 23.648 305.712 23.576 305.976 23.432C306.24 23.28 306.436 23.06 306.564 22.772H307.74C307.54 23.348 307.2 23.8 306.72 24.128C306.248 24.456 305.68 24.62 305.016 24.62Z" fill="#11181C"/>
<path d="M372.02 24.608C370.98 24.608 370.148 24.36 369.524 23.864C368.9 23.368 368.536 22.66 368.432 21.74H369.668C369.74 22.34 369.98 22.796 370.388 23.108C370.796 23.42 371.348 23.576 372.044 23.576C372.628 23.576 373.068 23.468 373.364 23.252C373.668 23.036 373.82 22.728 373.82 22.328C373.82 21.968 373.72 21.684 373.52 21.476C373.32 21.26 373.004 21.084 372.572 20.948L371.072 20.468C370.304 20.22 369.74 19.908 369.38 19.532C369.02 19.156 368.84 18.68 368.84 18.104C368.84 17.616 368.96 17.196 369.2 16.844C369.448 16.492 369.792 16.22 370.232 16.028C370.68 15.828 371.2 15.728 371.792 15.728C372.704 15.728 373.432 15.96 373.976 16.424C374.528 16.88 374.844 17.516 374.924 18.332H373.688C373.592 17.788 373.384 17.392 373.064 17.144C372.744 16.888 372.304 16.76 371.744 16.76C371.216 16.76 370.804 16.864 370.508 17.072C370.212 17.28 370.064 17.572 370.064 17.948C370.064 18.252 370.16 18.508 370.352 18.716C370.552 18.916 370.88 19.088 371.336 19.232L372.908 19.736C373.636 19.968 374.172 20.284 374.516 20.684C374.868 21.084 375.044 21.588 375.044 22.196C375.044 22.964 374.78 23.56 374.252 23.984C373.724 24.4 372.98 24.608 372.02 24.608ZM378.933 24.62C378.221 24.62 377.697 24.456 377.361 24.128C377.033 23.792 376.869 23.3 376.869 22.652V16.976L378.105 16.508V22.664C378.105 22.984 378.189 23.22 378.357 23.372C378.525 23.524 378.797 23.6 379.173 23.6C379.317 23.6 379.445 23.588 379.557 23.564C379.669 23.54 379.765 23.512 379.845 23.48V24.488C379.757 24.528 379.633 24.56 379.473 24.584C379.313 24.608 379.133 24.62 378.933 24.62ZM375.645 19.376V18.38H379.845V19.376H375.645ZM384.785 24.5C384.745 24.348 384.717 24.18 384.701 23.996C384.693 23.812 384.689 23.588 384.689 23.324H384.629V20.408C384.629 20.016 384.529 19.724 384.329 19.532C384.137 19.332 383.829 19.232 383.405 19.232C382.997 19.232 382.669 19.312 382.421 19.472C382.181 19.632 382.041 19.86 382.001 20.156H380.813C380.869 19.58 381.129 19.12 381.593 18.776C382.057 18.432 382.677 18.26 383.453 18.26C384.253 18.26 384.853 18.448 385.253 18.824C385.653 19.192 385.853 19.736 385.853 20.456V23.324C385.853 23.508 385.865 23.696 385.889 23.888C385.913 24.08 385.949 24.284 385.997 24.5H384.785ZM382.673 24.62C382.049 24.62 381.553 24.468 381.185 24.164C380.817 23.852 380.633 23.432 380.633 22.904C380.633 22.36 380.825 21.932 381.209 21.62C381.601 21.3 382.161 21.084 382.889 20.972L384.905 20.648V21.524L383.081 21.812C382.673 21.876 382.365 21.984 382.157 22.136C381.957 22.288 381.857 22.508 381.857 22.796C381.857 23.076 381.949 23.288 382.133 23.432C382.325 23.568 382.601 23.636 382.961 23.636C383.441 23.636 383.837 23.52 384.149 23.288C384.469 23.056 384.629 22.764 384.629 22.412L384.785 23.3C384.641 23.724 384.385 24.052 384.017 24.284C383.649 24.508 383.201 24.62 382.673 24.62ZM389.89 24.62C389.178 24.62 388.654 24.456 388.318 24.128C387.99 23.792 387.826 23.3 387.826 22.652V16.976L389.062 16.508V22.664C389.062 22.984 389.146 23.22 389.314 23.372C389.482 23.524 389.754 23.6 390.13 23.6C390.274 23.6 390.402 23.588 390.514 23.564C390.626 23.54 390.722 23.512 390.802 23.48V24.488C390.714 24.528 390.59 24.56 390.43 24.584C390.27 24.608 390.09 24.62 389.89 24.62ZM386.602 19.376V18.38H390.802V19.376H386.602ZM393.895 24.62C393.487 24.62 393.127 24.536 392.815 24.368C392.503 24.192 392.259 23.952 392.083 23.648C391.915 23.344 391.831 22.996 391.831 22.604V18.38H393.079V22.316C393.079 22.74 393.183 23.056 393.391 23.264C393.599 23.472 393.895 23.576 394.279 23.576C394.623 23.576 394.927 23.496 395.191 23.336C395.463 23.176 395.675 22.956 395.827 22.676C395.987 22.388 396.067 22.056 396.067 21.68L396.223 23.144C396.023 23.592 395.715 23.952 395.299 24.224C394.891 24.488 394.423 24.62 393.895 24.62ZM396.115 24.5V23.06H396.067V18.38H397.303V24.5H396.115ZM401.213 24.62C400.413 24.62 399.777 24.444 399.305 24.092C398.833 23.74 398.565 23.244 398.501 22.604H399.653C399.709 22.956 399.869 23.228 400.133 23.42C400.405 23.604 400.773 23.696 401.237 23.696C401.645 23.696 401.957 23.624 402.173 23.48C402.389 23.336 402.497 23.132 402.497 22.868C402.497 22.676 402.433 22.516 402.305 22.388C402.185 22.252 401.945 22.14 401.585 22.052L400.601 21.824C399.985 21.672 399.525 21.448 399.221 21.152C398.925 20.848 398.777 20.476 398.777 20.036C398.777 19.484 398.981 19.052 399.389 18.74C399.805 18.42 400.373 18.26 401.093 18.26C401.805 18.26 402.377 18.42 402.809 18.74C403.249 19.06 403.497 19.508 403.553 20.084H402.401C402.353 19.796 402.213 19.576 401.981 19.424C401.757 19.264 401.449 19.184 401.057 19.184C400.689 19.184 400.405 19.252 400.205 19.388C400.013 19.516 399.917 19.696 399.917 19.928C399.917 20.12 399.989 20.28 400.133 20.408C400.285 20.536 400.533 20.644 400.877 20.732L401.885 20.984C402.469 21.128 402.909 21.364 403.205 21.692C403.501 22.012 403.649 22.4 403.649 22.856C403.649 23.408 403.433 23.84 403.001 24.152C402.577 24.464 401.981 24.62 401.213 24.62Z" fill="#11181C"/>
<mask id="path-9-inside-2_995_5337" fill="white">
<path d="M4 36H476V72H4V36Z"/>
</mask>
<path d="M476 71H4V73H476V71Z" fill="#F1F3F5" mask="url(#path-9-inside-2_995_5337)"/>
<path d="M16.74 58V50.8H19.79C20.31 50.8 20.7533 50.8867 21.12 51.06C21.4867 51.2333 21.7667 51.48 21.96 51.8C22.16 52.12 22.26 52.5 22.26 52.94C22.26 53.3867 22.16 53.7733 21.96 54.1C21.7667 54.42 21.4833 54.67 21.11 54.85C20.7433 55.03 20.3033 55.12 19.79 55.12H17.55V54.24H19.74C20.2133 54.24 20.5733 54.1267 20.82 53.9C21.0733 53.6733 21.2 53.3567 21.2 52.95C21.2 52.5367 21.0767 52.22 20.83 52C20.5833 51.78 20.22 51.67 19.74 51.67H17.8V58H16.74ZM23.3413 58V52.9H24.3313V54.17H24.3813V58H23.3413ZM24.3813 55.34L24.2513 54.13C24.3713 53.6967 24.578 53.3667 24.8713 53.14C25.1647 52.9133 25.5147 52.8 25.9213 52.8C26.0747 52.8 26.1813 52.8133 26.2413 52.84V53.82C26.208 53.8067 26.1613 53.8 26.1013 53.8C26.0413 53.7933 25.968 53.79 25.8813 53.79C25.3813 53.79 25.0047 53.92 24.7513 54.18C24.5047 54.44 24.3813 54.8267 24.3813 55.34ZM29.223 58.1C28.7096 58.1 28.2563 57.9867 27.863 57.76C27.4763 57.5333 27.173 57.22 26.953 56.82C26.733 56.42 26.623 55.96 26.623 55.44C26.623 54.9133 26.7296 54.4533 26.943 54.06C27.163 53.66 27.4696 53.35 27.863 53.13C28.2563 52.91 28.7063 52.8 29.213 52.8C29.7063 52.8 30.133 52.9067 30.493 53.12C30.8596 53.3267 31.1396 53.6167 31.333 53.99C31.533 54.3633 31.633 54.8067 31.633 55.32C31.633 55.4 31.6296 55.4767 31.623 55.55C31.623 55.6167 31.6163 55.6867 31.603 55.76H27.323V54.98H30.873L30.613 55.29C30.613 54.7433 30.4896 54.3267 30.243 54.04C29.9963 53.7533 29.653 53.61 29.213 53.61C28.7396 53.61 28.363 53.7733 28.083 54.1C27.8096 54.42 27.673 54.8667 27.673 55.44C27.673 56.02 27.8096 56.4733 28.083 56.8C28.363 57.1267 28.7496 57.29 29.243 57.29C29.543 57.29 29.803 57.23 30.023 57.11C30.243 56.9833 30.4063 56.8 30.513 56.56H31.493C31.3263 57.04 31.043 57.4167 30.643 57.69C30.2496 57.9633 29.7763 58.1 29.223 58.1ZM34.8461 58.1C34.3594 58.1 33.9261 57.9867 33.5461 57.76C33.1661 57.5267 32.8661 57.21 32.6461 56.81C32.4328 56.41 32.3261 55.9533 32.3261 55.44C32.3261 54.9267 32.4328 54.4733 32.6461 54.08C32.8661 53.68 33.1661 53.3667 33.5461 53.14C33.9261 52.9133 34.3561 52.8 34.8361 52.8C35.2428 52.8 35.6061 52.8767 35.9261 53.03C36.2461 53.1833 36.5094 53.3967 36.7161 53.67C36.9228 53.9433 37.0561 54.2667 37.1161 54.64H36.1361C36.0694 54.34 35.9228 54.1 35.6961 53.92C35.4761 53.74 35.1961 53.65 34.8561 53.65C34.5628 53.65 34.3061 53.7233 34.0861 53.87C33.8661 54.0167 33.6961 54.2233 33.5761 54.49C33.4561 54.7567 33.3961 55.0733 33.3961 55.44C33.3961 55.8 33.4561 56.1167 33.5761 56.39C33.6961 56.6633 33.8661 56.8767 34.0861 57.03C34.3061 57.1767 34.5661 57.25 34.8661 57.25C35.1928 57.25 35.4694 57.1633 35.6961 56.99C35.9294 56.81 36.0794 56.57 36.1461 56.27H37.1261C37.0594 56.6367 36.9194 56.9567 36.7061 57.23C36.4994 57.5033 36.2361 57.7167 35.9161 57.87C35.5961 58.0233 35.2394 58.1 34.8461 58.1ZM38.0972 58V52.9H39.1372V58H38.0972ZM38.0472 51.9V50.73H39.1972V51.9H38.0472ZM42.4274 58.1C41.7608 58.1 41.2308 57.9533 40.8374 57.66C40.4441 57.3667 40.2208 56.9533 40.1674 56.42H41.1274C41.1741 56.7133 41.3074 56.94 41.5274 57.1C41.7541 57.2533 42.0608 57.33 42.4474 57.33C42.7874 57.33 43.0474 57.27 43.2274 57.15C43.4074 57.03 43.4974 56.86 43.4974 56.64C43.4974 56.48 43.4441 56.3467 43.3374 56.24C43.2374 56.1267 43.0374 56.0333 42.7374 55.96L41.9174 55.77C41.4041 55.6433 41.0208 55.4567 40.7674 55.21C40.5208 54.9567 40.3974 54.6467 40.3974 54.28C40.3974 53.82 40.5674 53.46 40.9074 53.2C41.2541 52.9333 41.7274 52.8 42.3274 52.8C42.9208 52.8 43.3974 52.9333 43.7574 53.2C44.1241 53.4667 44.3308 53.84 44.3774 54.32H43.4174C43.3774 54.08 43.2608 53.8967 43.0674 53.77C42.8808 53.6367 42.6241 53.57 42.2974 53.57C41.9908 53.57 41.7541 53.6267 41.5874 53.74C41.4274 53.8467 41.3474 53.9967 41.3474 54.19C41.3474 54.35 41.4074 54.4833 41.5274 54.59C41.6541 54.6967 41.8608 54.7867 42.1474 54.86L42.9874 55.07C43.4741 55.19 43.8408 55.3867 44.0874 55.66C44.3341 55.9267 44.4574 56.25 44.4574 56.63C44.4574 57.09 44.2774 57.45 43.9174 57.71C43.5641 57.97 43.0674 58.1 42.4274 58.1ZM45.4702 58V52.9H46.5102V58H45.4702ZM45.4202 51.9V50.73H46.5702V51.9H45.4202ZM50.1707 58.1C49.6507 58.1 49.194 57.9867 48.8007 57.76C48.4074 57.5267 48.1007 57.21 47.8807 56.81C47.6607 56.4033 47.5507 55.9433 47.5507 55.43C47.5507 54.91 47.6607 54.4533 47.8807 54.06C48.1074 53.6667 48.414 53.36 48.8007 53.14C49.194 52.9133 49.6507 52.8 50.1707 52.8C50.6974 52.8 51.1574 52.9133 51.5507 53.14C51.944 53.36 52.2474 53.6667 52.4607 54.06C52.6807 54.4533 52.7907 54.91 52.7907 55.43C52.7907 55.9433 52.6807 56.4033 52.4607 56.81C52.2474 57.21 51.944 57.5267 51.5507 57.76C51.1574 57.9867 50.6974 58.1 50.1707 58.1ZM50.1707 57.25C50.484 57.25 50.754 57.1733 50.9807 57.02C51.214 56.8667 51.3974 56.6533 51.5307 56.38C51.664 56.1067 51.7307 55.7867 51.7307 55.42C51.7307 54.8733 51.584 54.4433 51.2907 54.13C51.004 53.81 50.6307 53.65 50.1707 53.65C49.7174 53.65 49.344 53.81 49.0507 54.13C48.764 54.45 48.6207 54.88 48.6207 55.42C48.6207 55.7867 48.684 56.1067 48.8107 56.38C48.944 56.6533 49.1274 56.8667 49.3607 57.02C49.6007 57.1733 49.8707 57.25 50.1707 57.25ZM53.8589 58V52.9H54.8489V54.1H54.8989V58H53.8589ZM57.4789 58V54.72C57.4789 54.3667 57.3889 54.1033 57.2089 53.93C57.0356 53.7567 56.7756 53.67 56.4289 53.67C56.1289 53.67 55.8622 53.7367 55.6289 53.87C55.4022 54.0033 55.2222 54.1867 55.0889 54.42C54.9622 54.6533 54.8989 54.93 54.8989 55.25L54.7689 54.03C54.9356 53.65 55.1922 53.35 55.5389 53.13C55.8856 52.91 56.2889 52.8 56.7489 52.8C57.2956 52.8 57.7256 52.9533 58.0389 53.26C58.3522 53.5667 58.5089 53.9733 58.5089 54.48V58H57.4789ZM62.686 58V57.18H64.836C65.2427 57.18 65.5593 57.07 65.786 56.85C66.0193 56.63 66.136 56.33 66.136 55.95C66.136 55.55 66.0127 55.23 65.766 54.99C65.526 54.75 65.196 54.63 64.776 54.63H62.686V53.83H64.676C65.0827 53.83 65.396 53.7333 65.616 53.54C65.8427 53.34 65.956 53.0567 65.956 52.69C65.956 52.3433 65.8493 52.08 65.636 51.9C65.4293 51.7133 65.1227 51.62 64.716 51.62H62.686V50.8H64.876C65.5293 50.8 66.0493 50.96 66.436 51.28C66.8227 51.5933 67.016 52.0233 67.016 52.57C67.016 52.9167 66.936 53.2233 66.776 53.49C66.6227 53.75 66.4093 53.9533 66.136 54.1C65.8627 54.24 65.5527 54.31 65.206 54.31L65.256 54.1C65.6293 54.1 65.9627 54.1867 66.256 54.36C66.5493 54.5267 66.7827 54.7567 66.956 55.05C67.1293 55.3433 67.216 55.6833 67.216 56.07C67.216 56.45 67.1227 56.7867 66.936 57.08C66.756 57.3733 66.4993 57.6 66.166 57.76C65.8327 57.92 65.446 58 65.006 58H62.686ZM61.906 58V50.8H62.966V58H61.906ZM69.9623 58.1C69.6223 58.1 69.3223 58.03 69.0623 57.89C68.8023 57.7433 68.5989 57.5433 68.4523 57.29C68.3123 57.0367 68.2423 56.7467 68.2423 56.42V52.9H69.2823V56.18C69.2823 56.5333 69.3689 56.7967 69.5423 56.97C69.7156 57.1433 69.9623 57.23 70.2823 57.23C70.5689 57.23 70.8223 57.1633 71.0423 57.03C71.2689 56.8967 71.4456 56.7133 71.5723 56.48C71.7056 56.24 71.7723 55.9633 71.7723 55.65L71.9023 56.87C71.7356 57.2433 71.4789 57.5433 71.1323 57.77C70.7923 57.99 70.4023 58.1 69.9623 58.1ZM71.8123 58V56.8H71.7723V52.9H72.8023V58H71.8123ZM74.1616 58V52.9H75.2016V58H74.1616ZM74.1116 51.9V50.73H75.2616V51.9H74.1116ZM76.6616 58V50.8H77.7016V58H76.6616ZM82.8416 58V56.83L82.9416 56.86C82.835 57.24 82.615 57.5433 82.2816 57.77C81.9483 57.99 81.5483 58.1 81.0816 58.1C80.6216 58.1 80.2183 57.99 79.8716 57.77C79.5316 57.55 79.265 57.2433 79.0716 56.85C78.885 56.4567 78.7916 55.9967 78.7916 55.47C78.7916 54.9367 78.8883 54.47 79.0816 54.07C79.275 53.67 79.545 53.36 79.8916 53.14C80.2383 52.92 80.645 52.81 81.1116 52.81C81.5983 52.81 81.9983 52.9267 82.3116 53.16C82.6316 53.3867 82.8416 53.7067 82.9416 54.12L82.8016 54.14V50.8H83.8316V58H82.8416ZM81.3416 57.23C81.8016 57.23 82.165 57.0733 82.4316 56.76C82.6983 56.44 82.8316 56 82.8316 55.44C82.8316 54.8933 82.695 54.4633 82.4216 54.15C82.155 53.83 81.7916 53.67 81.3316 53.67C80.8783 53.67 80.5183 53.83 80.2516 54.15C79.9916 54.4633 79.8616 54.9033 79.8616 55.47C79.8616 56.0233 79.9916 56.4567 80.2516 56.77C80.5183 57.0767 80.8816 57.23 81.3416 57.23ZM90.4471 58.1C89.9471 58.1 89.4838 58.01 89.0571 57.83C88.6304 57.6433 88.2604 57.3867 87.9471 57.06C87.6404 56.7267 87.4004 56.3333 87.2271 55.88C87.0538 55.4267 86.9671 54.93 86.9671 54.39C86.9671 53.85 87.0504 53.3567 87.2171 52.91C87.3904 52.4567 87.6304 52.0667 87.9371 51.74C88.2504 51.4067 88.6204 51.15 89.0471 50.97C89.4738 50.79 89.9371 50.7 90.4371 50.7C90.9971 50.7 91.5004 50.8133 91.9471 51.04C92.3938 51.26 92.7571 51.5733 93.0371 51.98C93.3238 52.3867 93.5004 52.86 93.5671 53.4H92.5271C92.4404 52.8333 92.2104 52.3933 91.8371 52.08C91.4704 51.76 91.0071 51.6 90.4471 51.6C89.9738 51.6 89.5538 51.7167 89.1871 51.95C88.8271 52.1767 88.5471 52.5 88.3471 52.92C88.1471 53.3333 88.0471 53.8233 88.0471 54.39C88.0471 54.95 88.1471 55.4433 88.3471 55.87C88.5538 56.29 88.8371 56.6167 89.1971 56.85C89.5571 57.0833 89.9738 57.2 90.4471 57.2C91.0071 57.2 91.4738 57.0433 91.8471 56.73C92.2271 56.41 92.4571 55.9667 92.5371 55.4H93.5871C93.5138 55.9467 93.3338 56.4233 93.0471 56.83C92.7604 57.23 92.3938 57.5433 91.9471 57.77C91.5071 57.99 91.0071 58.1 90.4471 58.1ZM96.8992 58.1C96.3792 58.1 95.9226 57.9867 95.5292 57.76C95.1359 57.5267 94.8292 57.21 94.6092 56.81C94.3892 56.4033 94.2792 55.9433 94.2792 55.43C94.2792 54.91 94.3892 54.4533 94.6092 54.06C94.8359 53.6667 95.1426 53.36 95.5292 53.14C95.9226 52.9133 96.3792 52.8 96.8992 52.8C97.4259 52.8 97.8859 52.9133 98.2792 53.14C98.6726 53.36 98.9759 53.6667 99.1892 54.06C99.4092 54.4533 99.5192 54.91 99.5192 55.43C99.5192 55.9433 99.4092 56.4033 99.1892 56.81C98.9759 57.21 98.6726 57.5267 98.2792 57.76C97.8859 57.9867 97.4259 58.1 96.8992 58.1ZM96.8992 57.25C97.2126 57.25 97.4826 57.1733 97.7092 57.02C97.9426 56.8667 98.1259 56.6533 98.2592 56.38C98.3926 56.1067 98.4592 55.7867 98.4592 55.42C98.4592 54.8733 98.3126 54.4433 98.0192 54.13C97.7326 53.81 97.3592 53.65 96.8992 53.65C96.4459 53.65 96.0726 53.81 95.7792 54.13C95.4926 54.45 95.3492 54.88 95.3492 55.42C95.3492 55.7867 95.4126 56.1067 95.5392 56.38C95.6726 56.6533 95.8559 56.8667 96.0892 57.02C96.3292 57.1733 96.5992 57.25 96.8992 57.25ZM100.587 58V52.9H101.577V54.17H101.627V58H100.587ZM101.627 55.34L101.497 54.13C101.617 53.6967 101.824 53.3667 102.117 53.14C102.411 52.9133 102.761 52.8 103.167 52.8C103.321 52.8 103.427 52.8133 103.487 52.84V53.82C103.454 53.8067 103.407 53.8 103.347 53.8C103.287 53.7933 103.214 53.79 103.127 53.79C102.627 53.79 102.251 53.92 101.997 54.18C101.751 54.44 101.627 54.8267 101.627 55.34ZM107.136 58.09C106.656 58.09 106.256 57.9767 105.936 57.75C105.622 57.5167 105.416 57.1933 105.316 56.78L105.456 56.76V60.05H104.416V52.9H105.406V54.07L105.306 54.04C105.412 53.6533 105.639 53.35 105.986 53.13C106.332 52.91 106.739 52.8 107.206 52.8C107.666 52.8 108.062 52.91 108.396 53.13C108.736 53.35 108.996 53.6567 109.176 54.05C109.362 54.4433 109.456 54.9033 109.456 55.43C109.456 55.9633 109.359 56.43 109.166 56.83C108.972 57.23 108.702 57.54 108.356 57.76C108.009 57.98 107.602 58.09 107.136 58.09ZM106.916 57.23C107.369 57.23 107.729 57.07 107.996 56.75C108.262 56.43 108.396 55.99 108.396 55.43C108.396 54.8767 108.262 54.4467 107.996 54.14C107.729 53.8267 107.366 53.67 106.906 53.67C106.452 53.67 106.089 53.83 105.816 54.15C105.549 54.4633 105.416 54.9 105.416 55.46C105.416 56.0067 105.549 56.44 105.816 56.76C106.089 57.0733 106.456 57.23 106.916 57.23Z" fill="#11181C"/>
<path d="M162.12 58V51.79L162.31 51.87C162.223 52.0567 162.073 52.24 161.86 52.42C161.647 52.6 161.4 52.7567 161.12 52.89C160.84 53.0167 160.543 53.1067 160.23 53.16V52.14C160.523 52.0933 160.81 52.0067 161.09 51.88C161.37 51.7467 161.62 51.5867 161.84 51.4C162.06 51.2067 162.223 51.0067 162.33 50.8H163.15V58H162.12ZM164.246 58V57.13C164.946 56.5567 165.53 56.0567 165.996 55.63C166.47 55.2033 166.846 54.8233 167.126 54.49C167.406 54.1567 167.606 53.8533 167.726 53.58C167.846 53.3067 167.906 53.0333 167.906 52.76C167.906 52.3867 167.796 52.0967 167.576 51.89C167.363 51.6767 167.066 51.57 166.686 51.57C166.293 51.57 165.973 51.6867 165.726 51.92C165.48 52.1467 165.326 52.47 165.266 52.89H164.186C164.253 52.23 164.51 51.7 164.956 51.3C165.41 50.9 166.006 50.7 166.746 50.7C167.453 50.7 168.01 50.8867 168.416 51.26C168.83 51.6333 169.036 52.1467 169.036 52.8C169.036 53.1333 168.973 53.4667 168.846 53.8C168.726 54.1267 168.526 54.47 168.246 54.83C167.966 55.1833 167.59 55.5767 167.116 56.01C166.65 56.4367 166.07 56.9233 165.376 57.47L165.126 57.13H169.166V58H164.246ZM169.748 58.67L172.318 50.43H173.218L170.648 58.67H169.748ZM175.509 58V51.79L175.699 51.87C175.612 52.0567 175.462 52.24 175.249 52.42C175.035 52.6 174.789 52.7567 174.509 52.89C174.229 53.0167 173.932 53.1067 173.619 53.16V52.14C173.912 52.0933 174.199 52.0067 174.479 51.88C174.759 51.7467 175.009 51.5867 175.229 51.4C175.449 51.2067 175.612 51.0067 175.719 50.8H176.539V58H175.509ZM179.327 58V51.79L179.517 51.87C179.43 52.0567 179.28 52.24 179.067 52.42C178.854 52.6 178.607 52.7567 178.327 52.89C178.047 53.0167 177.75 53.1067 177.437 53.16V52.14C177.73 52.0933 178.017 52.0067 178.297 51.88C178.577 51.7467 178.827 51.5867 179.047 51.4C179.267 51.2067 179.43 51.0067 179.537 50.8H180.357V58H179.327ZM181.173 58.67L183.743 50.43H184.643L182.073 58.67H181.173ZM185.086 58V57.13C185.786 56.5567 186.37 56.0567 186.836 55.63C187.31 55.2033 187.686 54.8233 187.966 54.49C188.246 54.1567 188.446 53.8533 188.566 53.58C188.686 53.3067 188.746 53.0333 188.746 52.76C188.746 52.3867 188.636 52.0967 188.416 51.89C188.203 51.6767 187.906 51.57 187.526 51.57C187.133 51.57 186.813 51.6867 186.566 51.92C186.32 52.1467 186.166 52.47 186.106 52.89H185.026C185.093 52.23 185.35 51.7 185.796 51.3C186.25 50.9 186.846 50.7 187.586 50.7C188.293 50.7 188.85 50.8867 189.256 51.26C189.67 51.6333 189.876 52.1467 189.876 52.8C189.876 53.1333 189.813 53.4667 189.686 53.8C189.566 54.1267 189.366 54.47 189.086 54.83C188.806 55.1833 188.43 55.5767 187.956 56.01C187.49 56.4367 186.91 56.9233 186.216 57.47L185.966 57.13H190.006V58H185.086ZM193.87 58V56.1L193.91 55.9V51.79L194.29 51.9L191.29 55.96L190.88 55.57H195.82V56.44H190.32V55.63L193.91 50.8H194.96V58H193.87Z" fill="#7E868C"/>
<path d="M266.77 51.04V49.7H267.62V51.04H266.77ZM267.62 57.8V59.09H266.77V57.8H267.62ZM267.35 58.09C266.483 58.09 265.79 57.8833 265.27 57.47C264.75 57.0567 264.447 56.4667 264.36 55.7H265.39C265.45 56.2 265.65 56.58 265.99 56.84C266.33 57.1 266.79 57.23 267.37 57.23C267.857 57.23 268.223 57.14 268.47 56.96C268.723 56.78 268.85 56.5233 268.85 56.19C268.85 55.89 268.767 55.6533 268.6 55.48C268.433 55.3 268.17 55.1533 267.81 55.04L266.56 54.64C265.92 54.4333 265.45 54.1733 265.15 53.86C264.85 53.5467 264.7 53.15 264.7 52.67C264.7 52.2633 264.8 51.9133 265 51.62C265.207 51.3267 265.493 51.1 265.86 50.94C266.233 50.7733 266.667 50.69 267.16 50.69C267.92 50.69 268.527 50.8833 268.98 51.27C269.44 51.65 269.703 52.18 269.77 52.86H268.74C268.66 52.4067 268.487 52.0767 268.22 51.87C267.953 51.6567 267.587 51.55 267.12 51.55C266.68 51.55 266.337 51.6367 266.09 51.81C265.843 51.9833 265.72 52.2267 265.72 52.54C265.72 52.7933 265.8 53.0067 265.96 53.18C266.127 53.3467 266.4 53.49 266.78 53.61L268.09 54.03C268.697 54.2233 269.143 54.4867 269.43 54.82C269.723 55.1533 269.87 55.5733 269.87 56.08C269.87 56.72 269.65 57.2167 269.21 57.57C268.77 57.9167 268.15 58.09 267.35 58.09ZM272.311 58V51.79L272.501 51.87C272.415 52.0567 272.265 52.24 272.051 52.42C271.838 52.6 271.591 52.7567 271.311 52.89C271.031 53.0167 270.735 53.1067 270.421 53.16V52.14C270.715 52.0933 271.001 52.0067 271.281 51.88C271.561 51.7467 271.811 51.5867 272.031 51.4C272.251 51.2067 272.415 51.0067 272.521 50.8H273.341V58H272.311ZM274.388 59.52V59C274.621 58.92 274.781 58.7967 274.868 58.63C274.961 58.47 275.008 58.2367 275.008 57.93L275.418 58H274.378V56.77H275.608V57.7C275.608 58.16 275.511 58.5467 275.318 58.86C275.131 59.1733 274.821 59.3933 274.388 59.52ZM279.618 58V56.1L279.658 55.9V51.79L280.038 51.9L277.038 55.96L276.628 55.57H281.568V56.44H276.068V55.63L279.658 50.8H280.708V58H279.618ZM284.762 58.1C284.035 58.1 283.452 57.91 283.012 57.53C282.572 57.1433 282.302 56.6333 282.202 56H283.292C283.372 56.3867 283.542 56.69 283.802 56.91C284.062 57.1233 284.372 57.23 284.732 57.23C285.119 57.23 285.442 57.1067 285.702 56.86C285.969 56.6067 286.102 56.2133 286.102 55.68C286.102 55.1533 285.972 54.7567 285.712 54.49C285.452 54.2167 285.119 54.08 284.712 54.08C284.439 54.08 284.195 54.14 283.982 54.26C283.769 54.3733 283.615 54.5233 283.522 54.71H282.562L282.912 50.8H286.822V51.67H283.412L283.872 51.44L283.662 54.12L283.372 54.05C283.505 53.8233 283.702 53.64 283.962 53.5C284.229 53.3533 284.555 53.28 284.942 53.28C285.389 53.28 285.785 53.3767 286.132 53.57C286.479 53.7633 286.749 54.04 286.942 54.4C287.135 54.76 287.232 55.1867 287.232 55.68C287.232 56.1867 287.129 56.62 286.922 56.98C286.722 57.34 286.435 57.6167 286.062 57.81C285.695 58.0033 285.262 58.1 284.762 58.1ZM290.973 58.1C290.393 58.1 289.883 57.9433 289.443 57.63C289.003 57.31 288.66 56.87 288.413 56.31C288.167 55.7433 288.043 55.0967 288.043 54.37C288.043 53.6433 288.167 53.0067 288.413 52.46C288.66 51.9067 289.003 51.4767 289.443 51.17C289.883 50.8567 290.393 50.7 290.973 50.7C291.553 50.7 292.06 50.8567 292.493 51.17C292.933 51.4767 293.277 51.9067 293.523 52.46C293.77 53.0067 293.893 53.6433 293.893 54.37C293.893 55.1033 293.77 55.75 293.523 56.31C293.277 56.87 292.933 57.31 292.493 57.63C292.053 57.9433 291.547 58.1 290.973 58.1ZM290.973 57.19C291.353 57.19 291.677 57.0733 291.943 56.84C292.21 56.6 292.41 56.27 292.543 55.85C292.683 55.4233 292.753 54.9267 292.753 54.36C292.753 53.8 292.683 53.3133 292.543 52.9C292.41 52.4867 292.21 52.17 291.943 51.95C291.683 51.7233 291.36 51.61 290.973 51.61C290.58 51.61 290.25 51.7233 289.983 51.95C289.723 52.1767 289.523 52.4967 289.383 52.91C289.25 53.3167 289.183 53.8 289.183 54.36C289.183 54.9267 289.253 55.4233 289.393 55.85C289.533 56.2767 289.733 56.6067 289.993 56.84C290.26 57.0733 290.587 57.19 290.973 57.19ZM294.417 58V56.76H295.647V58H294.417ZM299.128 58.1C298.548 58.1 298.038 57.9433 297.598 57.63C297.158 57.31 296.814 56.87 296.568 56.31C296.321 55.7433 296.198 55.0967 296.198 54.37C296.198 53.6433 296.321 53.0067 296.568 52.46C296.814 51.9067 297.158 51.4767 297.598 51.17C298.038 50.8567 298.548 50.7 299.128 50.7C299.708 50.7 300.214 50.8567 300.648 51.17C301.088 51.4767 301.431 51.9067 301.678 52.46C301.924 53.0067 302.048 53.6433 302.048 54.37C302.048 55.1033 301.924 55.75 301.678 56.31C301.431 56.87 301.088 57.31 300.648 57.63C300.208 57.9433 299.701 58.1 299.128 58.1ZM299.128 57.19C299.508 57.19 299.831 57.0733 300.098 56.84C300.364 56.6 300.564 56.27 300.698 55.85C300.838 55.4233 300.908 54.9267 300.908 54.36C300.908 53.8 300.838 53.3133 300.698 52.9C300.564 52.4867 300.364 52.17 300.098 51.95C299.838 51.7233 299.514 51.61 299.128 51.61C298.734 51.61 298.404 51.7233 298.138 51.95C297.878 52.1767 297.678 52.4967 297.538 52.91C297.404 53.3167 297.338 53.8 297.338 54.36C297.338 54.9267 297.408 55.4233 297.548 55.85C297.688 56.2767 297.888 56.6067 298.148 56.84C298.414 57.0733 298.741 57.19 299.128 57.19ZM305.973 58.1C305.393 58.1 304.883 57.9433 304.443 57.63C304.003 57.31 303.66 56.87 303.413 56.31C303.167 55.7433 303.043 55.0967 303.043 54.37C303.043 53.6433 303.167 53.0067 303.413 52.46C303.66 51.9067 304.003 51.4767 304.443 51.17C304.883 50.8567 305.393 50.7 305.973 50.7C306.553 50.7 307.06 50.8567 307.493 51.17C307.933 51.4767 308.277 51.9067 308.523 52.46C308.77 53.0067 308.893 53.6433 308.893 54.37C308.893 55.1033 308.77 55.75 308.523 56.31C308.277 56.87 307.933 57.31 307.493 57.63C307.053 57.9433 306.547 58.1 305.973 58.1ZM305.973 57.19C306.353 57.19 306.677 57.0733 306.943 56.84C307.21 56.6 307.41 56.27 307.543 55.85C307.683 55.4233 307.753 54.9267 307.753 54.36C307.753 53.8 307.683 53.3133 307.543 52.9C307.41 52.4867 307.21 52.17 306.943 51.95C306.683 51.7233 306.36 51.61 305.973 51.61C305.58 51.61 305.25 51.7233 304.983 51.95C304.723 52.1767 304.523 52.4967 304.383 52.91C304.25 53.3167 304.183 53.8 304.183 54.36C304.183 54.9267 304.253 55.4233 304.393 55.85C304.533 56.2767 304.733 56.6067 304.993 56.84C305.26 57.0733 305.587 57.19 305.973 57.19Z" fill="#11181C"/>
<path d="M372.963 45.3652H436.082C438.615 45.3652 440.669 47.4186 440.669 49.9517V58.0483C440.669 60.5814 438.615 62.6348 436.082 62.6348H372.963C370.43 62.6348 368.376 60.5814 368.376 58.0483V49.9517C368.376 47.4186 370.43 45.3652 372.963 45.3652Z" fill="#FEF9C3"/>
<path d="M372.963 45.3652H436.082C438.615 45.3652 440.669 47.4186 440.669 49.9517V58.0483C440.669 60.5814 438.615 62.6348 436.082 62.6348H372.963C370.43 62.6348 368.376 60.5814 368.376 58.0483V49.9517C368.376 47.4186 370.43 45.3652 372.963 45.3652Z" stroke="#FACC15" stroke-width="0.752809"/>
<path d="M374.816 58V50.7811H379.292V51.7188H375.905V53.9182H378.971V54.8523H375.905V58H374.816ZM386.902 54.3906C386.902 55.1613 386.761 55.824 386.479 56.3786C386.197 56.9308 385.811 57.3561 385.32 57.6546C384.831 57.9507 384.275 58.0987 383.652 58.0987C383.027 58.0987 382.469 57.9507 381.978 57.6546C381.489 57.3561 381.104 56.9296 380.822 56.3751C380.54 55.8205 380.399 55.159 380.399 54.3906C380.399 53.6198 380.54 52.9583 380.822 52.4061C381.104 51.8515 381.489 51.4262 381.978 51.1301C382.469 50.8317 383.027 50.6824 383.652 50.6824C384.275 50.6824 384.831 50.8317 385.32 51.1301C385.811 51.4262 386.197 51.8515 386.479 52.4061C386.761 52.9583 386.902 53.6198 386.902 54.3906ZM385.824 54.3906C385.824 53.8031 385.728 53.3084 385.538 52.9066C385.35 52.5024 385.092 52.197 384.763 51.9902C384.436 51.781 384.066 51.6765 383.652 51.6765C383.236 51.6765 382.865 51.781 382.538 51.9902C382.212 52.197 381.953 52.5024 381.763 52.9066C381.575 53.3084 381.481 53.8031 381.481 54.3906C381.481 54.978 381.575 55.4739 381.763 55.8781C381.953 56.2799 382.212 56.5854 382.538 56.7945C382.865 57.0013 383.236 57.1047 383.652 57.1047C384.066 57.1047 384.436 57.0013 384.763 56.7945C385.092 56.5854 385.35 56.2799 385.538 55.8781C385.728 55.4739 385.824 54.978 385.824 54.3906ZM388.26 58V50.7811H390.833C391.393 50.7811 391.857 50.8775 392.226 51.0702C392.597 51.2629 392.874 51.5296 393.057 51.8703C393.241 52.2087 393.332 52.6 393.332 53.0441C393.332 53.4859 393.24 53.8748 393.054 54.2108C392.871 54.5445 392.593 54.8042 392.222 54.9898C391.853 55.1754 391.389 55.2683 390.83 55.2683H388.881V54.3307H390.731C391.084 54.3307 391.37 54.2801 391.591 54.1791C391.814 54.078 391.978 53.9312 392.081 53.7385C392.184 53.5458 392.236 53.3143 392.236 53.0441C392.236 52.7715 392.183 52.5353 392.078 52.3356C391.974 52.1359 391.811 51.9831 391.588 51.8774C391.367 51.7693 391.076 51.7152 390.717 51.7152H389.349V58H388.26ZM391.824 54.7431L393.607 58H392.367L390.618 54.7431H391.824ZM397.285 58V50.7811H399.858C400.417 50.7811 400.881 50.8775 401.25 51.0702C401.621 51.2629 401.899 51.5296 402.082 51.8703C402.265 52.2087 402.357 52.6 402.357 53.0441C402.357 53.4859 402.264 53.8748 402.078 54.2108C401.895 54.5445 401.618 54.8042 401.246 54.9898C400.878 55.1754 400.413 55.2683 399.854 55.2683H397.905V54.3307H399.755C400.108 54.3307 400.395 54.2801 400.616 54.1791C400.839 54.078 401.002 53.9312 401.106 53.7385C401.209 53.5458 401.261 53.3143 401.261 53.0441C401.261 52.7715 401.208 52.5353 401.102 52.3356C400.999 52.1359 400.835 51.9831 400.612 51.8774C400.391 51.7693 400.101 51.7152 399.741 51.7152H398.374V58H397.285ZM400.848 54.7431L402.632 58H401.391L399.643 54.7431H400.848ZM403.682 58V50.7811H408.208V51.7188H404.771V53.9182H407.972V54.8523H404.771V57.0624H408.25V58H403.682ZM410.294 50.7811L412.303 56.6606H412.384L414.393 50.7811H415.571L412.973 58H411.714L409.117 50.7811H410.294ZM417.702 50.7811V58H416.613V50.7811H417.702ZM419.288 58V50.7811H423.814V51.7188H420.378V53.9182H423.578V54.8523H420.378V57.0624H423.857V58H419.288ZM426.683 58L424.68 50.7811H425.826L427.232 56.3715H427.299L428.762 50.7811H429.897L431.36 56.3751H431.427L432.83 50.7811H433.979L431.973 58H430.877L429.358 52.5929H429.302L427.782 58H426.683Z" fill="#CA8A04"/>
<mask id="path-16-inside-3_995_5337" fill="white">
<path d="M4 72H476V108H4V72Z"/>
</mask>
<path d="M476 107H4V109H476V107Z" fill="#F1F3F5" mask="url(#path-16-inside-3_995_5337)"/>
<path d="M18.75 94V87.67H16.32V86.8H22.24V87.67H19.81V94H18.75ZM23.1851 94V88.9H24.2251V94H23.1851ZM23.1351 87.9V86.73H24.2851V87.9H23.1351ZM27.816 94.1C27.2227 94.1 26.786 93.9633 26.506 93.69C26.2327 93.41 26.096 93 26.096 92.46V87.73L27.126 87.34V92.47C27.126 92.7367 27.196 92.9333 27.336 93.06C27.476 93.1867 27.7027 93.25 28.016 93.25C28.136 93.25 28.2427 93.24 28.336 93.22C28.4293 93.2 28.5093 93.1767 28.576 93.15V93.99C28.5027 94.0233 28.3993 94.05 28.266 94.07C28.1327 94.09 27.9827 94.1 27.816 94.1ZM25.076 89.73V88.9H28.576V89.73H25.076ZM32.6927 94C32.6594 93.8733 32.6361 93.7333 32.6227 93.58C32.6161 93.4267 32.6127 93.24 32.6127 93.02H32.5627V90.59C32.5627 90.2633 32.4794 90.02 32.3127 89.86C32.1527 89.6933 31.8961 89.61 31.5427 89.61C31.2027 89.61 30.9294 89.6767 30.7227 89.81C30.5227 89.9433 30.4061 90.1333 30.3727 90.38H29.3827C29.4294 89.9 29.6461 89.5167 30.0327 89.23C30.4194 88.9433 30.9361 88.8 31.5827 88.8C32.2494 88.8 32.7494 88.9567 33.0827 89.27C33.4161 89.5767 33.5827 90.03 33.5827 90.63V93.02C33.5827 93.1733 33.5927 93.33 33.6127 93.49C33.6327 93.65 33.6627 93.82 33.7027 94H32.6927ZM30.9327 94.1C30.4127 94.1 29.9994 93.9733 29.6927 93.72C29.3861 93.46 29.2327 93.11 29.2327 92.67C29.2327 92.2167 29.3927 91.86 29.7127 91.6C30.0394 91.3333 30.5061 91.1533 31.1127 91.06L32.7927 90.79V91.52L31.2727 91.76C30.9327 91.8133 30.6761 91.9033 30.5027 92.03C30.3361 92.1567 30.2527 92.34 30.2527 92.58C30.2527 92.8133 30.3294 92.99 30.4827 93.11C30.6427 93.2233 30.8727 93.28 31.1727 93.28C31.5727 93.28 31.9027 93.1833 32.1627 92.99C32.4294 92.7967 32.5627 92.5533 32.5627 92.26L32.6927 93C32.5727 93.3533 32.3594 93.6267 32.0527 93.82C31.7461 94.0067 31.3727 94.1 30.9327 94.1ZM34.9917 94V88.9H35.9817V90.1H36.0317V94H34.9917ZM38.6117 94V90.72C38.6117 90.3667 38.5217 90.1033 38.3417 89.93C38.1684 89.7567 37.9084 89.67 37.5617 89.67C37.2617 89.67 36.9951 89.7367 36.7617 89.87C36.5351 90.0033 36.3551 90.1867 36.2217 90.42C36.0951 90.6533 36.0317 90.93 36.0317 91.25L35.9017 90.03C36.0684 89.65 36.3251 89.35 36.6717 89.13C37.0184 88.91 37.4217 88.8 37.8817 88.8C38.4284 88.8 38.8584 88.9533 39.1717 89.26C39.4851 89.5667 39.6417 89.9733 39.6417 90.48V94H38.6117ZM43.0388 94V86.8H44.0988V94H43.0388ZM47.8088 94V86.8H48.8688V94H47.8088ZM43.5588 89.81H48.2788V90.69H43.5588V89.81ZM52.5633 94.1C52.0433 94.1 51.5866 93.9867 51.1933 93.76C50.7999 93.5267 50.4933 93.21 50.2733 92.81C50.0533 92.4033 49.9433 91.9433 49.9433 91.43C49.9433 90.91 50.0533 90.4533 50.2733 90.06C50.4999 89.6667 50.8066 89.36 51.1933 89.14C51.5866 88.9133 52.0433 88.8 52.5633 88.8C53.0899 88.8 53.5499 88.9133 53.9433 89.14C54.3366 89.36 54.6399 89.6667 54.8533 90.06C55.0733 90.4533 55.1833 90.91 55.1833 91.43C55.1833 91.9433 55.0733 92.4033 54.8533 92.81C54.6399 93.21 54.3366 93.5267 53.9433 93.76C53.5499 93.9867 53.0899 94.1 52.5633 94.1ZM52.5633 93.25C52.8766 93.25 53.1466 93.1733 53.3733 93.02C53.6066 92.8667 53.7899 92.6533 53.9233 92.38C54.0566 92.1067 54.1233 91.7867 54.1233 91.42C54.1233 90.8733 53.9766 90.4433 53.6833 90.13C53.3966 89.81 53.0233 89.65 52.5633 89.65C52.1099 89.65 51.7366 89.81 51.4433 90.13C51.1566 90.45 51.0133 90.88 51.0133 91.42C51.0133 91.7867 51.0766 92.1067 51.2033 92.38C51.3366 92.6533 51.5199 92.8667 51.7533 93.02C51.9933 93.1733 52.2633 93.25 52.5633 93.25ZM56.2515 94V88.9H57.2415V90.1H57.2915V94H56.2515ZM59.6915 94V90.67C59.6915 90.3233 59.6115 90.07 59.4515 89.91C59.2915 89.75 59.0615 89.67 58.7615 89.67C58.4815 89.67 58.2282 89.7367 58.0015 89.87C57.7815 89.9967 57.6082 90.1767 57.4815 90.41C57.3548 90.6367 57.2915 90.9067 57.2915 91.22L57.1615 90.03C57.3282 89.65 57.5782 89.35 57.9115 89.13C58.2515 88.91 58.6315 88.8 59.0515 88.8C59.5582 88.8 59.9615 88.9467 60.2615 89.24C60.5682 89.5333 60.7215 89.92 60.7215 90.4V94H59.6915ZM63.1315 94V90.67C63.1315 90.3233 63.0482 90.07 62.8815 89.91C62.7215 89.75 62.4915 89.67 62.1915 89.67C61.9182 89.67 61.6682 89.7367 61.4415 89.87C61.2215 89.9967 61.0448 90.1767 60.9115 90.41C60.7848 90.6367 60.7215 90.9067 60.7215 91.22L60.5115 90.03C60.6848 89.65 60.9448 89.35 61.2915 89.13C61.6448 88.91 62.0382 88.8 62.4715 88.8C62.9848 88.8 63.3948 88.95 63.7015 89.25C64.0082 89.5433 64.1615 89.9367 64.1615 90.43V94H63.1315ZM67.7581 94.1C67.2448 94.1 66.7915 93.9867 66.3981 93.76C66.0115 93.5333 65.7081 93.22 65.4881 92.82C65.2681 92.42 65.1581 91.96 65.1581 91.44C65.1581 90.9133 65.2648 90.4533 65.4781 90.06C65.6981 89.66 66.0048 89.35 66.3981 89.13C66.7915 88.91 67.2415 88.8 67.7481 88.8C68.2415 88.8 68.6681 88.9067 69.0281 89.12C69.3948 89.3267 69.6748 89.6167 69.8681 89.99C70.0681 90.3633 70.1681 90.8067 70.1681 91.32C70.1681 91.4 70.1648 91.4767 70.1581 91.55C70.1581 91.6167 70.1515 91.6867 70.1381 91.76H65.8581V90.98H69.4081L69.1481 91.29C69.1481 90.7433 69.0248 90.3267 68.7781 90.04C68.5315 89.7533 68.1881 89.61 67.7481 89.61C67.2748 89.61 66.8981 89.7733 66.6181 90.1C66.3448 90.42 66.2081 90.8667 66.2081 91.44C66.2081 92.02 66.3448 92.4733 66.6181 92.8C66.8981 93.1267 67.2848 93.29 67.7781 93.29C68.0781 93.29 68.3381 93.23 68.5581 93.11C68.7781 92.9833 68.9415 92.8 69.0481 92.56H70.0281C69.8615 93.04 69.5781 93.4167 69.1781 93.69C68.7848 93.9633 68.3115 94.1 67.7581 94.1ZM73.0915 94.1C72.4248 94.1 71.8948 93.9533 71.5015 93.66C71.1082 93.3667 70.8848 92.9533 70.8315 92.42H71.7915C71.8382 92.7133 71.9715 92.94 72.1915 93.1C72.4182 93.2533 72.7248 93.33 73.1115 93.33C73.4515 93.33 73.7115 93.27 73.8915 93.15C74.0715 93.03 74.1615 92.86 74.1615 92.64C74.1615 92.48 74.1082 92.3467 74.0015 92.24C73.9015 92.1267 73.7015 92.0333 73.4015 91.96L72.5815 91.77C72.0682 91.6433 71.6848 91.4567 71.4315 91.21C71.1848 90.9567 71.0615 90.6467 71.0615 90.28C71.0615 89.82 71.2315 89.46 71.5715 89.2C71.9182 88.9333 72.3915 88.8 72.9915 88.8C73.5848 88.8 74.0615 88.9333 74.4215 89.2C74.7882 89.4667 74.9948 89.84 75.0415 90.32H74.0815C74.0415 90.08 73.9248 89.8967 73.7315 89.77C73.5448 89.6367 73.2882 89.57 72.9615 89.57C72.6548 89.57 72.4182 89.6267 72.2515 89.74C72.0915 89.8467 72.0115 89.9967 72.0115 90.19C72.0115 90.35 72.0715 90.4833 72.1915 90.59C72.3182 90.6967 72.5248 90.7867 72.8115 90.86L73.6515 91.07C74.1382 91.19 74.5048 91.3867 74.7515 91.66C74.9982 91.9267 75.1215 92.25 75.1215 92.63C75.1215 93.09 74.9415 93.45 74.5815 93.71C74.2282 93.97 73.7315 94.1 73.0915 94.1Z" fill="#11181C"/>
<path d="M163.36 94.1C162.78 94.1 162.27 93.9433 161.83 93.63C161.39 93.31 161.047 92.87 160.8 92.31C160.553 91.7433 160.43 91.0967 160.43 90.37C160.43 89.6433 160.553 89.0067 160.8 88.46C161.047 87.9067 161.39 87.4767 161.83 87.17C162.27 86.8567 162.78 86.7 163.36 86.7C163.94 86.7 164.447 86.8567 164.88 87.17C165.32 87.4767 165.663 87.9067 165.91 88.46C166.157 89.0067 166.28 89.6433 166.28 90.37C166.28 91.1033 166.157 91.75 165.91 92.31C165.663 92.87 165.32 93.31 164.88 93.63C164.44 93.9433 163.933 94.1 163.36 94.1ZM163.36 93.19C163.74 93.19 164.063 93.0733 164.33 92.84C164.597 92.6 164.797 92.27 164.93 91.85C165.07 91.4233 165.14 90.9267 165.14 90.36C165.14 89.8 165.07 89.3133 164.93 88.9C164.797 88.4867 164.597 88.17 164.33 87.95C164.07 87.7233 163.747 87.61 163.36 87.61C162.967 87.61 162.637 87.7233 162.37 87.95C162.11 88.1767 161.91 88.4967 161.77 88.91C161.637 89.3167 161.57 89.8 161.57 90.36C161.57 90.9267 161.64 91.4233 161.78 91.85C161.92 92.2767 162.12 92.6067 162.38 92.84C162.647 93.0733 162.973 93.19 163.36 93.19ZM169.757 94.1C169.237 94.1 168.783 94.01 168.397 93.83C168.017 93.65 167.72 93.4033 167.507 93.09C167.3 92.77 167.197 92.41 167.197 92.01C167.197 91.65 167.273 91.3267 167.427 91.04C167.587 90.7533 167.803 90.5267 168.077 90.36C168.357 90.1867 168.667 90.1 169.007 90.1L169.077 90.31C168.737 90.31 168.44 90.24 168.187 90.1C167.933 89.9533 167.733 89.7533 167.587 89.5C167.447 89.24 167.377 88.95 167.377 88.63C167.377 88.25 167.477 87.9167 167.677 87.63C167.877 87.3367 168.153 87.11 168.507 86.95C168.867 86.7833 169.287 86.7 169.767 86.7C170.24 86.7 170.653 86.7833 171.007 86.95C171.36 87.11 171.637 87.3367 171.837 87.63C172.037 87.9167 172.137 88.25 172.137 88.63C172.137 88.95 172.063 89.2367 171.917 89.49C171.777 89.7433 171.58 89.9433 171.327 90.09C171.073 90.2367 170.773 90.31 170.427 90.31L170.507 90.1C170.853 90.1 171.163 90.1867 171.437 90.36C171.71 90.5267 171.923 90.7533 172.077 91.04C172.237 91.3267 172.317 91.6533 172.317 92.02C172.317 92.42 172.21 92.7767 171.997 93.09C171.79 93.4033 171.493 93.65 171.107 93.83C170.727 94.01 170.277 94.1 169.757 94.1ZM169.757 93.23C170.197 93.23 170.543 93.1133 170.797 92.88C171.057 92.64 171.187 92.32 171.187 91.92C171.187 91.5267 171.057 91.2167 170.797 90.99C170.543 90.7633 170.197 90.65 169.757 90.65C169.317 90.65 168.967 90.7633 168.707 90.99C168.453 91.2167 168.327 91.5267 168.327 91.92C168.327 92.32 168.453 92.64 168.707 92.88C168.967 93.1133 169.317 93.23 169.757 93.23ZM169.757 89.82C170.143 89.82 170.447 89.72 170.667 89.52C170.893 89.32 171.007 89.05 171.007 88.71C171.007 88.3633 170.89 88.0867 170.657 87.88C170.43 87.6733 170.13 87.57 169.757 87.57C169.377 87.57 169.073 87.6733 168.847 87.88C168.62 88.0867 168.507 88.3633 168.507 88.71C168.507 89.05 168.62 89.32 168.847 89.52C169.073 89.72 169.377 89.82 169.757 89.82ZM172.765 94.67L175.335 86.43H176.235L173.665 94.67H172.765ZM178.526 94V87.79L178.716 87.87C178.63 88.0567 178.48 88.24 178.266 88.42C178.053 88.6 177.806 88.7567 177.526 88.89C177.246 89.0167 176.95 89.1067 176.636 89.16V88.14C176.93 88.0933 177.216 88.0067 177.496 87.88C177.776 87.7467 178.026 87.5867 178.246 87.4C178.466 87.2067 178.63 87.0067 178.736 86.8H179.556V94H178.526ZM182.345 94V87.79L182.535 87.87C182.448 88.0567 182.298 88.24 182.085 88.42C181.871 88.6 181.625 88.7567 181.345 88.89C181.065 89.0167 180.768 89.1067 180.455 89.16V88.14C180.748 88.0933 181.035 88.0067 181.315 87.88C181.595 87.7467 181.845 87.5867 182.065 87.4C182.285 87.2067 182.448 87.0067 182.555 86.8H183.375V94H182.345ZM184.191 94.67L186.761 86.43H187.661L185.091 94.67H184.191ZM188.104 94V93.13C188.804 92.5567 189.387 92.0567 189.854 91.63C190.327 91.2033 190.704 90.8233 190.984 90.49C191.264 90.1567 191.464 89.8533 191.584 89.58C191.704 89.3067 191.764 89.0333 191.764 88.76C191.764 88.3867 191.654 88.0967 191.434 87.89C191.221 87.6767 190.924 87.57 190.544 87.57C190.151 87.57 189.831 87.6867 189.584 87.92C189.337 88.1467 189.184 88.47 189.124 88.89H188.044C188.111 88.23 188.367 87.7 188.814 87.3C189.267 86.9 189.864 86.7 190.604 86.7C191.311 86.7 191.867 86.8867 192.274 87.26C192.687 87.6333 192.894 88.1467 192.894 88.8C192.894 89.1333 192.831 89.4667 192.704 89.8C192.584 90.1267 192.384 90.47 192.104 90.83C191.824 91.1833 191.447 91.5767 190.974 92.01C190.507 92.4367 189.927 92.9233 189.234 93.47L188.984 93.13H193.024V94H188.104ZM196.887 94V92.1L196.927 91.9V87.79L197.307 87.9L194.307 91.96L193.897 91.57H198.837V92.44H193.337V91.63L196.927 86.8H197.977V94H196.887Z" fill="#7E868C"/>
<path d="M266.77 87.04V85.7H267.62V87.04H266.77ZM267.62 93.8V95.09H266.77V93.8H267.62ZM267.35 94.09C266.483 94.09 265.79 93.8833 265.27 93.47C264.75 93.0567 264.447 92.4667 264.36 91.7H265.39C265.45 92.2 265.65 92.58 265.99 92.84C266.33 93.1 266.79 93.23 267.37 93.23C267.857 93.23 268.223 93.14 268.47 92.96C268.723 92.78 268.85 92.5233 268.85 92.19C268.85 91.89 268.767 91.6533 268.6 91.48C268.433 91.3 268.17 91.1533 267.81 91.04L266.56 90.64C265.92 90.4333 265.45 90.1733 265.15 89.86C264.85 89.5467 264.7 89.15 264.7 88.67C264.7 88.2633 264.8 87.9133 265 87.62C265.207 87.3267 265.493 87.1 265.86 86.94C266.233 86.7733 266.667 86.69 267.16 86.69C267.92 86.69 268.527 86.8833 268.98 87.27C269.44 87.65 269.703 88.18 269.77 88.86H268.74C268.66 88.4067 268.487 88.0767 268.22 87.87C267.953 87.6567 267.587 87.55 267.12 87.55C266.68 87.55 266.337 87.6367 266.09 87.81C265.843 87.9833 265.72 88.2267 265.72 88.54C265.72 88.7933 265.8 89.0067 265.96 89.18C266.127 89.3467 266.4 89.49 266.78 89.61L268.09 90.03C268.697 90.2233 269.143 90.4867 269.43 90.82C269.723 91.1533 269.87 91.5733 269.87 92.08C269.87 92.72 269.65 93.2167 269.21 93.57C268.77 93.9167 268.15 94.09 267.35 94.09ZM273.111 94.1C272.657 94.1 272.257 94.0133 271.911 93.84C271.571 93.6667 271.297 93.4167 271.091 93.09C270.884 92.7633 270.754 92.3633 270.701 91.89H271.791C271.851 92.3567 271.997 92.6967 272.231 92.91C272.464 93.1233 272.767 93.23 273.141 93.23C273.421 93.23 273.657 93.1733 273.851 93.06C274.051 92.9467 274.211 92.7733 274.331 92.54C274.457 92.3067 274.551 92.01 274.611 91.65C274.671 91.2833 274.701 90.8467 274.701 90.34V89.69L274.991 89.71C274.924 90.0233 274.791 90.3 274.591 90.54C274.391 90.7733 274.141 90.9533 273.841 91.08C273.547 91.2067 273.221 91.27 272.861 91.27C272.414 91.27 272.021 91.1733 271.681 90.98C271.341 90.7867 271.074 90.52 270.881 90.18C270.687 89.8333 270.591 89.44 270.591 89C270.591 88.5333 270.697 88.13 270.911 87.79C271.124 87.4433 271.421 87.1767 271.801 86.99C272.187 86.7967 272.631 86.7 273.131 86.7C274.017 86.7 274.694 87.01 275.161 87.63C275.634 88.25 275.871 89.1533 275.871 90.34C275.871 91.1333 275.761 91.8133 275.541 92.38C275.327 92.94 275.014 93.3667 274.601 93.66C274.194 93.9533 273.697 94.1 273.111 94.1ZM273.171 90.42C273.604 90.42 273.951 90.3 274.211 90.06C274.477 89.82 274.611 89.4867 274.611 89.06C274.611 88.7733 274.547 88.52 274.421 88.3C274.301 88.0733 274.131 87.8967 273.911 87.77C273.691 87.6367 273.434 87.57 273.141 87.57C272.721 87.57 272.384 87.7033 272.131 87.97C271.884 88.23 271.761 88.5767 271.761 89.01C271.761 89.43 271.884 89.77 272.131 90.03C272.377 90.29 272.724 90.42 273.171 90.42ZM276.664 94V93.13C277.364 92.5567 277.948 92.0567 278.414 91.63C278.888 91.2033 279.264 90.8233 279.544 90.49C279.824 90.1567 280.024 89.8533 280.144 89.58C280.264 89.3067 280.324 89.0333 280.324 88.76C280.324 88.3867 280.214 88.0967 279.994 87.89C279.781 87.6767 279.484 87.57 279.104 87.57C278.711 87.57 278.391 87.6867 278.144 87.92C277.898 88.1467 277.744 88.47 277.684 88.89H276.604C276.671 88.23 276.928 87.7 277.374 87.3C277.828 86.9 278.424 86.7 279.164 86.7C279.871 86.7 280.428 86.8867 280.834 87.26C281.248 87.6333 281.454 88.1467 281.454 88.8C281.454 89.1333 281.391 89.4667 281.264 89.8C281.144 90.1267 280.944 90.47 280.664 90.83C280.384 91.1833 280.008 91.5767 279.534 92.01C279.068 92.4367 278.488 92.9233 277.794 93.47L277.544 93.13H281.584V94H276.664ZM285.27 94.1C284.69 94.1 284.18 93.9433 283.74 93.63C283.3 93.31 282.957 92.87 282.71 92.31C282.463 91.7433 282.34 91.0967 282.34 90.37C282.34 89.6433 282.463 89.0067 282.71 88.46C282.957 87.9067 283.3 87.4767 283.74 87.17C284.18 86.8567 284.69 86.7 285.27 86.7C285.85 86.7 286.357 86.8567 286.79 87.17C287.23 87.4767 287.573 87.9067 287.82 88.46C288.067 89.0067 288.19 89.6433 288.19 90.37C288.19 91.1033 288.067 91.75 287.82 92.31C287.573 92.87 287.23 93.31 286.79 93.63C286.35 93.9433 285.843 94.1 285.27 94.1ZM285.27 93.19C285.65 93.19 285.973 93.0733 286.24 92.84C286.507 92.6 286.707 92.27 286.84 91.85C286.98 91.4233 287.05 90.9267 287.05 90.36C287.05 89.8 286.98 89.3133 286.84 88.9C286.707 88.4867 286.507 88.17 286.24 87.95C285.98 87.7233 285.657 87.61 285.27 87.61C284.877 87.61 284.547 87.7233 284.28 87.95C284.02 88.1767 283.82 88.4967 283.68 88.91C283.547 89.3167 283.48 89.8 283.48 90.36C283.48 90.9267 283.55 91.4233 283.69 91.85C283.83 92.2767 284.03 92.6067 284.29 92.84C284.557 93.0733 284.883 93.19 285.27 93.19ZM288.714 94V92.76H289.944V94H288.714ZM293.424 94.1C292.844 94.1 292.334 93.9433 291.894 93.63C291.454 93.31 291.111 92.87 290.864 92.31C290.618 91.7433 290.494 91.0967 290.494 90.37C290.494 89.6433 290.618 89.0067 290.864 88.46C291.111 87.9067 291.454 87.4767 291.894 87.17C292.334 86.8567 292.844 86.7 293.424 86.7C294.004 86.7 294.511 86.8567 294.944 87.17C295.384 87.4767 295.728 87.9067 295.974 88.46C296.221 89.0067 296.344 89.6433 296.344 90.37C296.344 91.1033 296.221 91.75 295.974 92.31C295.728 92.87 295.384 93.31 294.944 93.63C294.504 93.9433 293.998 94.1 293.424 94.1ZM293.424 93.19C293.804 93.19 294.128 93.0733 294.394 92.84C294.661 92.6 294.861 92.27 294.994 91.85C295.134 91.4233 295.204 90.9267 295.204 90.36C295.204 89.8 295.134 89.3133 294.994 88.9C294.861 88.4867 294.661 88.17 294.394 87.95C294.134 87.7233 293.811 87.61 293.424 87.61C293.031 87.61 292.701 87.7233 292.434 87.95C292.174 88.1767 291.974 88.4967 291.834 88.91C291.701 89.3167 291.634 89.8 291.634 90.36C291.634 90.9267 291.704 91.4233 291.844 91.85C291.984 92.2767 292.184 92.6067 292.444 92.84C292.711 93.0733 293.038 93.19 293.424 93.19ZM300.27 94.1C299.69 94.1 299.18 93.9433 298.74 93.63C298.3 93.31 297.957 92.87 297.71 92.31C297.463 91.7433 297.34 91.0967 297.34 90.37C297.34 89.6433 297.463 89.0067 297.71 88.46C297.957 87.9067 298.3 87.4767 298.74 87.17C299.18 86.8567 299.69 86.7 300.27 86.7C300.85 86.7 301.357 86.8567 301.79 87.17C302.23 87.4767 302.573 87.9067 302.82 88.46C303.067 89.0067 303.19 89.6433 303.19 90.37C303.19 91.1033 303.067 91.75 302.82 92.31C302.573 92.87 302.23 93.31 301.79 93.63C301.35 93.9433 300.843 94.1 300.27 94.1ZM300.27 93.19C300.65 93.19 300.973 93.0733 301.24 92.84C301.507 92.6 301.707 92.27 301.84 91.85C301.98 91.4233 302.05 90.9267 302.05 90.36C302.05 89.8 301.98 89.3133 301.84 88.9C301.707 88.4867 301.507 88.17 301.24 87.95C300.98 87.7233 300.657 87.61 300.27 87.61C299.877 87.61 299.547 87.7233 299.28 87.95C299.02 88.1767 298.82 88.4967 298.68 88.91C298.547 89.3167 298.48 89.8 298.48 90.36C298.48 90.9267 298.55 91.4233 298.69 91.85C298.83 92.2767 299.03 92.6067 299.29 92.84C299.557 93.0733 299.883 93.19 300.27 93.19Z" fill="#11181C"/>
<path d="M372.963 81.3652H436.082C438.615 81.3652 440.669 83.4186 440.669 85.9517V94.0483C440.669 96.5814 438.615 98.6348 436.082 98.6348H372.963C370.43 98.6348 368.376 96.5814 368.376 94.0483V85.9517C368.376 83.4186 370.43 81.3652 372.963 81.3652Z" fill="#FEF9C3"/>
<path d="M372.963 81.3652H436.082C438.615 81.3652 440.669 83.4186 440.669 85.9517V94.0483C440.669 96.5814 438.615 98.6348 436.082 98.6348H372.963C370.43 98.6348 368.376 96.5814 368.376 94.0483V85.9517C368.376 83.4186 370.43 81.3652 372.963 81.3652Z" stroke="#FACC15" stroke-width="0.752809"/>
<path d="M374.816 94V86.7811H379.292V87.7188H375.905V89.9182H378.971V90.8523H375.905V94H374.816ZM386.902 90.3906C386.902 91.1613 386.761 91.824 386.479 92.3786C386.197 92.9308 385.811 93.3561 385.32 93.6546C384.831 93.9507 384.275 94.0987 383.652 94.0987C383.027 94.0987 382.469 93.9507 381.978 93.6546C381.489 93.3561 381.104 92.9296 380.822 92.3751C380.54 91.8205 380.399 91.159 380.399 90.3906C380.399 89.6198 380.54 88.9583 380.822 88.4061C381.104 87.8515 381.489 87.4262 381.978 87.1301C382.469 86.8317 383.027 86.6824 383.652 86.6824C384.275 86.6824 384.831 86.8317 385.32 87.1301C385.811 87.4262 386.197 87.8515 386.479 88.4061C386.761 88.9583 386.902 89.6198 386.902 90.3906ZM385.824 90.3906C385.824 89.8031 385.728 89.3084 385.538 88.9066C385.35 88.5024 385.092 88.197 384.763 87.9902C384.436 87.781 384.066 87.6765 383.652 87.6765C383.236 87.6765 382.865 87.781 382.538 87.9902C382.212 88.197 381.953 88.5024 381.763 88.9066C381.575 89.3084 381.481 89.8031 381.481 90.3906C381.481 90.978 381.575 91.4739 381.763 91.8781C381.953 92.2799 382.212 92.5854 382.538 92.7945C382.865 93.0013 383.236 93.1047 383.652 93.1047C384.066 93.1047 384.436 93.0013 384.763 92.7945C385.092 92.5854 385.35 92.2799 385.538 91.8781C385.728 91.4739 385.824 90.978 385.824 90.3906ZM388.26 94V86.7811H390.833C391.393 86.7811 391.857 86.8775 392.226 87.0702C392.597 87.2629 392.874 87.5296 393.057 87.8703C393.241 88.2087 393.332 88.6 393.332 89.0441C393.332 89.4859 393.24 89.8748 393.054 90.2108C392.871 90.5445 392.593 90.8042 392.222 90.9898C391.853 91.1754 391.389 91.2683 390.83 91.2683H388.881V90.3307H390.731C391.084 90.3307 391.37 90.2801 391.591 90.1791C391.814 90.078 391.978 89.9312 392.081 89.7385C392.184 89.5458 392.236 89.3143 392.236 89.0441C392.236 88.7715 392.183 88.5353 392.078 88.3356C391.974 88.1359 391.811 87.9831 391.588 87.8774C391.367 87.7693 391.076 87.7152 390.717 87.7152H389.349V94H388.26ZM391.824 90.7431L393.607 94H392.367L390.618 90.7431H391.824ZM397.285 94V86.7811H399.858C400.417 86.7811 400.881 86.8775 401.25 87.0702C401.621 87.2629 401.899 87.5296 402.082 87.8703C402.265 88.2087 402.357 88.6 402.357 89.0441C402.357 89.4859 402.264 89.8748 402.078 90.2108C401.895 90.5445 401.618 90.8042 401.246 90.9898C400.878 91.1754 400.413 91.2683 399.854 91.2683H397.905V90.3307H399.755C400.108 90.3307 400.395 90.2801 400.616 90.1791C400.839 90.078 401.002 89.9312 401.106 89.7385C401.209 89.5458 401.261 89.3143 401.261 89.0441C401.261 88.7715 401.208 88.5353 401.102 88.3356C400.999 88.1359 400.835 87.9831 400.612 87.8774C400.391 87.7693 400.101 87.7152 399.741 87.7152H398.374V94H397.285ZM400.848 90.7431L402.632 94H401.391L399.643 90.7431H400.848ZM403.682 94V86.7811H408.208V87.7188H404.771V89.9182H407.972V90.8523H404.771V93.0624H408.25V94H403.682ZM410.294 86.7811L412.303 92.6606H412.384L414.393 86.7811H415.571L412.973 94H411.714L409.117 86.7811H410.294ZM417.702 86.7811V94H416.613V86.7811H417.702ZM419.288 94V86.7811H423.814V87.7188H420.378V89.9182H423.578V90.8523H420.378V93.0624H423.857V94H419.288ZM426.683 94L424.68 86.7811H425.826L427.232 92.3715H427.299L428.762 86.7811H429.897L431.36 92.3751H431.427L432.83 86.7811H433.979L431.973 94H430.877L429.358 88.5929H429.302L427.782 94H426.683Z" fill="#CA8A04"/>
<mask id="path-23-inside-4_995_5337" fill="white">
<path d="M4 108H476V144H4V108Z"/>
</mask>
<path d="M476 143H4V145H476V143Z" fill="#F1F3F5" mask="url(#path-23-inside-4_995_5337)"/>
<path d="M18.54 130L16.45 122.8H17.53L19.36 129.43H19.1L20.84 122.8H22.09L23.84 129.43H23.58L25.41 122.8H26.43L24.34 130H23.1L21.34 123.55H21.55L19.78 130H18.54ZM29.2332 130.1C28.7132 130.1 28.2565 129.987 27.8632 129.76C27.4699 129.527 27.1632 129.21 26.9432 128.81C26.7232 128.403 26.6132 127.943 26.6132 127.43C26.6132 126.91 26.7232 126.453 26.9432 126.06C27.1699 125.667 27.4765 125.36 27.8632 125.14C28.2565 124.913 28.7132 124.8 29.2332 124.8C29.7599 124.8 30.2199 124.913 30.6132 125.14C31.0065 125.36 31.3099 125.667 31.5232 126.06C31.7432 126.453 31.8532 126.91 31.8532 127.43C31.8532 127.943 31.7432 128.403 31.5232 128.81C31.3099 129.21 31.0065 129.527 30.6132 129.76C30.2199 129.987 29.7599 130.1 29.2332 130.1ZM29.2332 129.25C29.5465 129.25 29.8165 129.173 30.0432 129.02C30.2765 128.867 30.4599 128.653 30.5932 128.38C30.7265 128.107 30.7932 127.787 30.7932 127.42C30.7932 126.873 30.6465 126.443 30.3532 126.13C30.0665 125.81 29.6932 125.65 29.2332 125.65C28.7799 125.65 28.4065 125.81 28.1132 126.13C27.8265 126.45 27.6832 126.88 27.6832 127.42C27.6832 127.787 27.7465 128.107 27.8732 128.38C28.0065 128.653 28.1899 128.867 28.4232 129.02C28.6632 129.173 28.9332 129.25 29.2332 129.25ZM32.9214 130V124.9H33.9114V126.17H33.9614V130H32.9214ZM33.9614 127.34L33.8314 126.13C33.9514 125.697 34.1581 125.367 34.4514 125.14C34.7447 124.913 35.0947 124.8 35.5014 124.8C35.6547 124.8 35.7614 124.813 35.8214 124.84V125.82C35.7881 125.807 35.7414 125.8 35.6814 125.8C35.6214 125.793 35.5481 125.79 35.4614 125.79C34.9614 125.79 34.5847 125.92 34.3314 126.18C34.0847 126.44 33.9614 126.827 33.9614 127.34ZM36.7495 130V122.67H37.7895V130H36.7495ZM40.0595 130L37.5495 127.35L39.9795 124.9H41.2895L38.5295 127.58L38.5795 127.11L41.3895 130H40.0595ZM42.2085 130V124.9H43.1985V126.1H43.2485V130H42.2085ZM45.6485 130V126.67C45.6485 126.323 45.5685 126.07 45.4085 125.91C45.2485 125.75 45.0185 125.67 44.7185 125.67C44.4385 125.67 44.1852 125.737 43.9585 125.87C43.7385 125.997 43.5652 126.177 43.4385 126.41C43.3118 126.637 43.2485 126.907 43.2485 127.22L43.1185 126.03C43.2852 125.65 43.5352 125.35 43.8685 125.13C44.2085 124.91 44.5885 124.8 45.0085 124.8C45.5152 124.8 45.9185 124.947 46.2185 125.24C46.5252 125.533 46.6785 125.92 46.6785 126.4V130H45.6485ZM49.0885 130V126.67C49.0885 126.323 49.0052 126.07 48.8385 125.91C48.6785 125.75 48.4485 125.67 48.1485 125.67C47.8752 125.67 47.6252 125.737 47.3985 125.87C47.1785 125.997 47.0018 126.177 46.8685 126.41C46.7418 126.637 46.6785 126.907 46.6785 127.22L46.4685 126.03C46.6418 125.65 46.9018 125.35 47.2485 125.13C47.6018 124.91 47.9952 124.8 48.4285 124.8C48.9418 124.8 49.3518 124.95 49.6585 125.25C49.9652 125.543 50.1185 125.937 50.1185 126.43V130H49.0885ZM54.6166 130C54.5832 129.873 54.5599 129.733 54.5466 129.58C54.5399 129.427 54.5366 129.24 54.5366 129.02H54.4866V126.59C54.4866 126.263 54.4032 126.02 54.2366 125.86C54.0766 125.693 53.8199 125.61 53.4666 125.61C53.1266 125.61 52.8532 125.677 52.6466 125.81C52.4466 125.943 52.3299 126.133 52.2966 126.38H51.3066C51.3532 125.9 51.5699 125.517 51.9566 125.23C52.3432 124.943 52.8599 124.8 53.5066 124.8C54.1732 124.8 54.6732 124.957 55.0066 125.27C55.3399 125.577 55.5066 126.03 55.5066 126.63V129.02C55.5066 129.173 55.5166 129.33 55.5366 129.49C55.5566 129.65 55.5866 129.82 55.6266 130H54.6166ZM52.8566 130.1C52.3366 130.1 51.9232 129.973 51.6166 129.72C51.3099 129.46 51.1566 129.11 51.1566 128.67C51.1566 128.217 51.3166 127.86 51.6366 127.6C51.9632 127.333 52.4299 127.153 53.0366 127.06L54.7166 126.79V127.52L53.1966 127.76C52.8566 127.813 52.5999 127.903 52.4266 128.03C52.2599 128.157 52.1766 128.34 52.1766 128.58C52.1766 128.813 52.2532 128.99 52.4066 129.11C52.5666 129.223 52.7966 129.28 53.0966 129.28C53.4966 129.28 53.8266 129.183 54.0866 128.99C54.3532 128.797 54.4866 128.553 54.4866 128.26L54.6166 129C54.4966 129.353 54.2832 129.627 53.9766 129.82C53.6699 130.007 53.2966 130.1 52.8566 130.1ZM56.9155 130V124.9H57.9055V126.1H57.9555V130H56.9155ZM60.5355 130V126.72C60.5355 126.367 60.4455 126.103 60.2655 125.93C60.0922 125.757 59.8322 125.67 59.4855 125.67C59.1855 125.67 58.9189 125.737 58.6855 125.87C58.4589 126.003 58.2789 126.187 58.1455 126.42C58.0189 126.653 57.9555 126.93 57.9555 127.25L57.8255 126.03C57.9922 125.65 58.2489 125.35 58.5955 125.13C58.9422 124.91 59.3455 124.8 59.8055 124.8C60.3522 124.8 60.7822 124.953 61.0955 125.26C61.4089 125.567 61.5655 125.973 61.5655 126.48V130H60.5355ZM67.5727 130.09C66.706 130.09 66.0127 129.883 65.4927 129.47C64.9727 129.057 64.6693 128.467 64.5827 127.7H65.6127C65.6727 128.2 65.8727 128.58 66.2127 128.84C66.5527 129.1 67.0127 129.23 67.5927 129.23C68.0793 129.23 68.446 129.14 68.6927 128.96C68.946 128.78 69.0727 128.523 69.0727 128.19C69.0727 127.89 68.9893 127.653 68.8227 127.48C68.656 127.3 68.3927 127.153 68.0327 127.04L66.7827 126.64C66.1427 126.433 65.6727 126.173 65.3727 125.86C65.0727 125.547 64.9227 125.15 64.9227 124.67C64.9227 124.263 65.0227 123.913 65.2227 123.62C65.4293 123.327 65.716 123.1 66.0827 122.94C66.456 122.773 66.8893 122.69 67.3827 122.69C68.1427 122.69 68.7493 122.883 69.2027 123.27C69.6627 123.65 69.926 124.18 69.9927 124.86H68.9627C68.8827 124.407 68.7093 124.077 68.4427 123.87C68.176 123.657 67.8093 123.55 67.3427 123.55C66.9027 123.55 66.5593 123.637 66.3127 123.81C66.066 123.983 65.9427 124.227 65.9427 124.54C65.9427 124.793 66.0227 125.007 66.1827 125.18C66.3493 125.347 66.6227 125.49 67.0027 125.61L68.3127 126.03C68.9193 126.223 69.366 126.487 69.6527 126.82C69.946 127.153 70.0927 127.573 70.0927 128.08C70.0927 128.72 69.8727 129.217 69.4327 129.57C68.9927 129.917 68.3727 130.09 67.5727 130.09ZM73.3836 130.1C72.8636 130.1 72.4069 129.987 72.0136 129.76C71.6203 129.527 71.3136 129.21 71.0936 128.81C70.8736 128.403 70.7636 127.943 70.7636 127.43C70.7636 126.91 70.8736 126.453 71.0936 126.06C71.3203 125.667 71.6269 125.36 72.0136 125.14C72.4069 124.913 72.8636 124.8 73.3836 124.8C73.9103 124.8 74.3703 124.913 74.7636 125.14C75.1569 125.36 75.4603 125.667 75.6736 126.06C75.8936 126.453 76.0036 126.91 76.0036 127.43C76.0036 127.943 75.8936 128.403 75.6736 128.81C75.4603 129.21 75.1569 129.527 74.7636 129.76C74.3703 129.987 73.9103 130.1 73.3836 130.1ZM73.3836 129.25C73.6969 129.25 73.9669 129.173 74.1936 129.02C74.4269 128.867 74.6103 128.653 74.7436 128.38C74.8769 128.107 74.9436 127.787 74.9436 127.42C74.9436 126.873 74.7969 126.443 74.5036 126.13C74.2169 125.81 73.8436 125.65 73.3836 125.65C72.9303 125.65 72.5569 125.81 72.2636 126.13C71.9769 126.45 71.8336 126.88 71.8336 127.42C71.8336 127.787 71.8969 128.107 72.0236 128.38C72.1569 128.653 72.3403 128.867 72.5736 129.02C72.8136 129.173 73.0836 129.25 73.3836 129.25ZM77.0718 130V122.8H78.1118V130H77.0718ZM81.2318 130.1C80.8918 130.1 80.5918 130.03 80.3318 129.89C80.0718 129.743 79.8685 129.543 79.7218 129.29C79.5818 129.037 79.5118 128.747 79.5118 128.42V124.9H80.5518V128.18C80.5518 128.533 80.6385 128.797 80.8118 128.97C80.9851 129.143 81.2318 129.23 81.5518 129.23C81.8385 129.23 82.0918 129.163 82.3118 129.03C82.5385 128.897 82.7151 128.713 82.8418 128.48C82.9751 128.24 83.0418 127.963 83.0418 127.65L83.1718 128.87C83.0051 129.243 82.7485 129.543 82.4018 129.77C82.0618 129.99 81.6718 130.1 81.2318 130.1ZM83.0818 130V128.8H83.0418V124.9H84.0718V130H83.0818ZM87.65 130.1C87.0567 130.1 86.62 129.963 86.34 129.69C86.0667 129.41 85.93 129 85.93 128.46V123.73L86.96 123.34V128.47C86.96 128.737 87.03 128.933 87.17 129.06C87.31 129.187 87.5367 129.25 87.85 129.25C87.97 129.25 88.0767 129.24 88.17 129.22C88.2633 129.2 88.3433 129.177 88.41 129.15V129.99C88.3367 130.023 88.2333 130.05 88.1 130.07C87.9667 130.09 87.8167 130.1 87.65 130.1ZM84.91 125.73V124.9H88.41V125.73H84.91ZM89.3765 130V124.9H90.4165V130H89.3765ZM89.3265 123.9V122.73H90.4765V123.9H89.3265ZM94.077 130.1C93.557 130.1 93.1003 129.987 92.707 129.76C92.3136 129.527 92.007 129.21 91.787 128.81C91.567 128.403 91.457 127.943 91.457 127.43C91.457 126.91 91.567 126.453 91.787 126.06C92.0136 125.667 92.3203 125.36 92.707 125.14C93.1003 124.913 93.557 124.8 94.077 124.8C94.6036 124.8 95.0636 124.913 95.457 125.14C95.8503 125.36 96.1536 125.667 96.367 126.06C96.587 126.453 96.697 126.91 96.697 127.43C96.697 127.943 96.587 128.403 96.367 128.81C96.1536 129.21 95.8503 129.527 95.457 129.76C95.0636 129.987 94.6036 130.1 94.077 130.1ZM94.077 129.25C94.3903 129.25 94.6603 129.173 94.887 129.02C95.1203 128.867 95.3036 128.653 95.437 128.38C95.5703 128.107 95.637 127.787 95.637 127.42C95.637 126.873 95.4903 126.443 95.197 126.13C94.9103 125.81 94.537 125.65 94.077 125.65C93.6236 125.65 93.2503 125.81 92.957 126.13C92.6703 126.45 92.527 126.88 92.527 127.42C92.527 127.787 92.5903 128.107 92.717 128.38C92.8503 128.653 93.0336 128.867 93.267 129.02C93.507 129.173 93.777 129.25 94.077 129.25ZM97.7652 130V124.9H98.7552V126.1H98.8052V130H97.7652ZM101.385 130V126.72C101.385 126.367 101.295 126.103 101.115 125.93C100.942 125.757 100.682 125.67 100.335 125.67C100.035 125.67 99.7685 125.737 99.5352 125.87C99.3085 126.003 99.1285 126.187 98.9952 126.42C98.8685 126.653 98.8052 126.93 98.8052 127.25L98.6752 126.03C98.8418 125.65 99.0985 125.35 99.4452 125.13C99.7918 124.91 100.195 124.8 100.655 124.8C101.202 124.8 101.632 124.953 101.945 125.26C102.258 125.567 102.415 125.973 102.415 126.48V130H101.385ZM105.65 130.1C104.983 130.1 104.453 129.953 104.06 129.66C103.667 129.367 103.443 128.953 103.39 128.42H104.35C104.397 128.713 104.53 128.94 104.75 129.1C104.977 129.253 105.283 129.33 105.67 129.33C106.01 129.33 106.27 129.27 106.45 129.15C106.63 129.03 106.72 128.86 106.72 128.64C106.72 128.48 106.667 128.347 106.56 128.24C106.46 128.127 106.26 128.033 105.96 127.96L105.14 127.77C104.627 127.643 104.243 127.457 103.99 127.21C103.743 126.957 103.62 126.647 103.62 126.28C103.62 125.82 103.79 125.46 104.13 125.2C104.477 124.933 104.95 124.8 105.55 124.8C106.143 124.8 106.62 124.933 106.98 125.2C107.347 125.467 107.553 125.84 107.6 126.32H106.64C106.6 126.08 106.483 125.897 106.29 125.77C106.103 125.637 105.847 125.57 105.52 125.57C105.213 125.57 104.977 125.627 104.81 125.74C104.65 125.847 104.57 125.997 104.57 126.19C104.57 126.35 104.63 126.483 104.75 126.59C104.877 126.697 105.083 126.787 105.37 126.86L106.21 127.07C106.697 127.19 107.063 127.387 107.31 127.66C107.557 127.927 107.68 128.25 107.68 128.63C107.68 129.09 107.5 129.45 107.14 129.71C106.787 129.97 106.29 130.1 105.65 130.1Z" fill="#11181C"/>
<path d="M160.35 130V129.13C161.05 128.557 161.633 128.057 162.1 127.63C162.573 127.203 162.95 126.823 163.23 126.49C163.51 126.157 163.71 125.853 163.83 125.58C163.95 125.307 164.01 125.033 164.01 124.76C164.01 124.387 163.9 124.097 163.68 123.89C163.467 123.677 163.17 123.57 162.79 123.57C162.397 123.57 162.077 123.687 161.83 123.92C161.583 124.147 161.43 124.47 161.37 124.89H160.29C160.357 124.23 160.613 123.7 161.06 123.3C161.513 122.9 162.11 122.7 162.85 122.7C163.557 122.7 164.113 122.887 164.52 123.26C164.933 123.633 165.14 124.147 165.14 124.8C165.14 125.133 165.077 125.467 164.95 125.8C164.83 126.127 164.63 126.47 164.35 126.83C164.07 127.183 163.693 127.577 163.22 128.01C162.753 128.437 162.173 128.923 161.48 129.47L161.23 129.13H165.27V130H160.35ZM167.059 130C167.152 128.867 167.422 127.753 167.869 126.66C168.315 125.567 168.949 124.487 169.769 123.42L169.799 123.67H165.709V122.8H170.719V123.57C170.212 124.303 169.785 125.023 169.439 125.73C169.092 126.43 168.819 127.13 168.619 127.83C168.425 128.53 168.299 129.253 168.239 130H167.059ZM170.265 130.67L172.835 122.43H173.735L171.165 130.67H170.265ZM176.026 130V123.79L176.216 123.87C176.13 124.057 175.98 124.24 175.766 124.42C175.553 124.6 175.306 124.757 175.026 124.89C174.746 125.017 174.45 125.107 174.136 125.16V124.14C174.43 124.093 174.716 124.007 174.996 123.88C175.276 123.747 175.526 123.587 175.746 123.4C175.966 123.207 176.13 123.007 176.236 122.8H177.056V130H176.026ZM181.153 130.1C180.573 130.1 180.063 129.943 179.623 129.63C179.183 129.31 178.84 128.87 178.593 128.31C178.346 127.743 178.223 127.097 178.223 126.37C178.223 125.643 178.346 125.007 178.593 124.46C178.84 123.907 179.183 123.477 179.623 123.17C180.063 122.857 180.573 122.7 181.153 122.7C181.733 122.7 182.24 122.857 182.673 123.17C183.113 123.477 183.456 123.907 183.703 124.46C183.95 125.007 184.073 125.643 184.073 126.37C184.073 127.103 183.95 127.75 183.703 128.31C183.456 128.87 183.113 129.31 182.673 129.63C182.233 129.943 181.726 130.1 181.153 130.1ZM181.153 129.19C181.533 129.19 181.856 129.073 182.123 128.84C182.39 128.6 182.59 128.27 182.723 127.85C182.863 127.423 182.933 126.927 182.933 126.36C182.933 125.8 182.863 125.313 182.723 124.9C182.59 124.487 182.39 124.17 182.123 123.95C181.863 123.723 181.54 123.61 181.153 123.61C180.76 123.61 180.43 123.723 180.163 123.95C179.903 124.177 179.703 124.497 179.563 124.91C179.43 125.317 179.363 125.8 179.363 126.36C179.363 126.927 179.433 127.423 179.573 127.85C179.713 128.277 179.913 128.607 180.173 128.84C180.44 129.073 180.766 129.19 181.153 129.19ZM184.416 130.67L186.986 122.43H187.886L185.316 130.67H184.416ZM188.329 130V129.13C189.029 128.557 189.612 128.057 190.079 127.63C190.552 127.203 190.929 126.823 191.209 126.49C191.489 126.157 191.689 125.853 191.809 125.58C191.929 125.307 191.989 125.033 191.989 124.76C191.989 124.387 191.879 124.097 191.659 123.89C191.445 123.677 191.149 123.57 190.769 123.57C190.375 123.57 190.055 123.687 189.809 123.92C189.562 124.147 189.409 124.47 189.349 124.89H188.269C188.335 124.23 188.592 123.7 189.039 123.3C189.492 122.9 190.089 122.7 190.829 122.7C191.535 122.7 192.092 122.887 192.499 123.26C192.912 123.633 193.119 124.147 193.119 124.8C193.119 125.133 193.055 125.467 192.929 125.8C192.809 126.127 192.609 126.47 192.329 126.83C192.049 127.183 191.672 127.577 191.199 128.01C190.732 128.437 190.152 128.923 189.459 129.47L189.209 129.13H193.249V130H188.329ZM197.112 130V128.1L197.152 127.9V123.79L197.532 123.9L194.532 127.96L194.122 127.57H199.062V128.44H193.562V127.63L197.152 122.8H198.202V130H197.112Z" fill="#7E868C"/>
<path d="M266.77 123.04V121.7H267.62V123.04H266.77ZM267.62 129.8V131.09H266.77V129.8H267.62ZM267.35 130.09C266.483 130.09 265.79 129.883 265.27 129.47C264.75 129.057 264.447 128.467 264.36 127.7H265.39C265.45 128.2 265.65 128.58 265.99 128.84C266.33 129.1 266.79 129.23 267.37 129.23C267.857 129.23 268.223 129.14 268.47 128.96C268.723 128.78 268.85 128.523 268.85 128.19C268.85 127.89 268.767 127.653 268.6 127.48C268.433 127.3 268.17 127.153 267.81 127.04L266.56 126.64C265.92 126.433 265.45 126.173 265.15 125.86C264.85 125.547 264.7 125.15 264.7 124.67C264.7 124.263 264.8 123.913 265 123.62C265.207 123.327 265.493 123.1 265.86 122.94C266.233 122.773 266.667 122.69 267.16 122.69C267.92 122.69 268.527 122.883 268.98 123.27C269.44 123.65 269.703 124.18 269.77 124.86H268.74C268.66 124.407 268.487 124.077 268.22 123.87C267.953 123.657 267.587 123.55 267.12 123.55C266.68 123.55 266.337 123.637 266.09 123.81C265.843 123.983 265.72 124.227 265.72 124.54C265.72 124.793 265.8 125.007 265.96 125.18C266.127 125.347 266.4 125.49 266.78 125.61L268.09 126.03C268.697 126.223 269.143 126.487 269.43 126.82C269.723 127.153 269.87 127.573 269.87 128.08C269.87 128.72 269.65 129.217 269.21 129.57C268.77 129.917 268.15 130.09 267.35 130.09ZM271.576 130C271.67 128.867 271.94 127.753 272.386 126.66C272.833 125.567 273.466 124.487 274.286 123.42L274.316 123.67H270.226V122.8H275.236V123.57C274.73 124.303 274.303 125.023 273.956 125.73C273.61 126.43 273.336 127.13 273.136 127.83C272.943 128.53 272.816 129.253 272.756 130H271.576ZM277.143 130C277.236 128.867 277.506 127.753 277.953 126.66C278.399 125.567 279.033 124.487 279.853 123.42L279.883 123.67H275.793V122.8H280.803V123.57C280.296 124.303 279.869 125.023 279.523 125.73C279.176 126.43 278.903 127.13 278.703 127.83C278.509 128.53 278.383 129.253 278.323 130H277.143ZM283.727 130.1C283 130.1 282.417 129.91 281.977 129.53C281.537 129.143 281.267 128.633 281.167 128H282.257C282.337 128.387 282.507 128.69 282.767 128.91C283.027 129.123 283.337 129.23 283.697 129.23C284.084 129.23 284.407 129.107 284.667 128.86C284.934 128.607 285.067 128.213 285.067 127.68C285.067 127.153 284.937 126.757 284.677 126.49C284.417 126.217 284.084 126.08 283.677 126.08C283.404 126.08 283.16 126.14 282.947 126.26C282.734 126.373 282.58 126.523 282.487 126.71H281.527L281.877 122.8H285.787V123.67H282.377L282.837 123.44L282.627 126.12L282.337 126.05C282.47 125.823 282.667 125.64 282.927 125.5C283.194 125.353 283.52 125.28 283.907 125.28C284.354 125.28 284.75 125.377 285.097 125.57C285.444 125.763 285.714 126.04 285.907 126.4C286.1 126.76 286.197 127.187 286.197 127.68C286.197 128.187 286.094 128.62 285.887 128.98C285.687 129.34 285.4 129.617 285.027 129.81C284.66 130.003 284.227 130.1 283.727 130.1ZM286.888 130V128.76H288.118V130H286.888ZM291.598 130.1C291.018 130.1 290.508 129.943 290.068 129.63C289.628 129.31 289.285 128.87 289.038 128.31C288.792 127.743 288.668 127.097 288.668 126.37C288.668 125.643 288.792 125.007 289.038 124.46C289.285 123.907 289.628 123.477 290.068 123.17C290.508 122.857 291.018 122.7 291.598 122.7C292.178 122.7 292.685 122.857 293.118 123.17C293.558 123.477 293.902 123.907 294.148 124.46C294.395 125.007 294.518 125.643 294.518 126.37C294.518 127.103 294.395 127.75 294.148 128.31C293.902 128.87 293.558 129.31 293.118 129.63C292.678 129.943 292.172 130.1 291.598 130.1ZM291.598 129.19C291.978 129.19 292.302 129.073 292.568 128.84C292.835 128.6 293.035 128.27 293.168 127.85C293.308 127.423 293.378 126.927 293.378 126.36C293.378 125.8 293.308 125.313 293.168 124.9C293.035 124.487 292.835 124.17 292.568 123.95C292.308 123.723 291.985 123.61 291.598 123.61C291.205 123.61 290.875 123.723 290.608 123.95C290.348 124.177 290.148 124.497 290.008 124.91C289.875 125.317 289.808 125.8 289.808 126.36C289.808 126.927 289.878 127.423 290.018 127.85C290.158 128.277 290.358 128.607 290.618 128.84C290.885 129.073 291.212 129.19 291.598 129.19ZM298.444 130.1C297.864 130.1 297.354 129.943 296.914 129.63C296.474 129.31 296.131 128.87 295.884 128.31C295.637 127.743 295.514 127.097 295.514 126.37C295.514 125.643 295.637 125.007 295.884 124.46C296.131 123.907 296.474 123.477 296.914 123.17C297.354 122.857 297.864 122.7 298.444 122.7C299.024 122.7 299.531 122.857 299.964 123.17C300.404 123.477 300.747 123.907 300.994 124.46C301.241 125.007 301.364 125.643 301.364 126.37C301.364 127.103 301.241 127.75 300.994 128.31C300.747 128.87 300.404 129.31 299.964 129.63C299.524 129.943 299.017 130.1 298.444 130.1ZM298.444 129.19C298.824 129.19 299.147 129.073 299.414 128.84C299.681 128.6 299.881 128.27 300.014 127.85C300.154 127.423 300.224 126.927 300.224 126.36C300.224 125.8 300.154 125.313 300.014 124.9C299.881 124.487 299.681 124.17 299.414 123.95C299.154 123.723 298.831 123.61 298.444 123.61C298.051 123.61 297.721 123.723 297.454 123.95C297.194 124.177 296.994 124.497 296.854 124.91C296.721 125.317 296.654 125.8 296.654 126.36C296.654 126.927 296.724 127.423 296.864 127.85C297.004 128.277 297.204 128.607 297.464 128.84C297.731 129.073 298.057 129.19 298.444 129.19Z" fill="#11181C"/>
<path d="M372.963 117.365H429.082C431.615 117.365 433.669 119.419 433.669 121.952V130.048C433.669 132.581 431.615 134.635 429.082 134.635H372.963C370.43 134.635 368.376 132.581 368.376 130.048V121.952C368.376 119.419 370.43 117.365 372.963 117.365Z" fill="#DCFCE7"/>
<path d="M372.963 117.365H429.082C431.615 117.365 433.669 119.419 433.669 121.952V130.048C433.669 132.581 431.615 134.635 429.082 134.635H372.963C370.43 134.635 368.376 132.581 368.376 130.048V121.952C368.376 119.419 370.43 117.365 372.963 117.365Z" stroke="#86EFAC" stroke-width="0.752809"/>
<path d="M375.425 130H374.269L376.867 122.781H378.125L380.723 130H379.567L377.526 124.092H377.47L375.425 130ZM375.619 127.173H379.37V128.09H375.619V127.173ZM381.766 130V122.781H384.339C384.9 122.781 385.366 122.883 385.735 123.088C386.104 123.292 386.38 123.572 386.563 123.927C386.746 124.279 386.838 124.676 386.838 125.118C386.838 125.562 386.745 125.962 386.559 126.317C386.376 126.669 386.099 126.949 385.728 127.155C385.359 127.36 384.895 127.462 384.335 127.462H382.566V126.539H384.237C384.591 126.539 384.879 126.478 385.1 126.355C385.321 126.231 385.483 126.062 385.587 125.848C385.69 125.634 385.742 125.391 385.742 125.118C385.742 124.846 385.69 124.603 385.587 124.392C385.483 124.181 385.32 124.015 385.097 123.895C384.876 123.775 384.584 123.715 384.222 123.715H382.855V130H381.766ZM388.115 130V122.781H390.688C391.249 122.781 391.715 122.883 392.084 123.088C392.453 123.292 392.729 123.572 392.912 123.927C393.095 124.279 393.187 124.676 393.187 125.118C393.187 125.562 393.094 125.962 392.909 126.317C392.725 126.669 392.448 126.949 392.077 127.155C391.708 127.36 391.244 127.462 390.684 127.462H388.915V126.539H390.586C390.94 126.539 391.228 126.478 391.449 126.355C391.67 126.231 391.832 126.062 391.936 125.848C392.039 125.634 392.091 125.391 392.091 125.118C392.091 124.846 392.039 124.603 391.936 124.392C391.832 124.181 391.669 124.015 391.446 123.895C391.225 123.775 390.933 123.715 390.572 123.715H389.204V130H388.115ZM394.464 130V122.781H397.037C397.596 122.781 398.06 122.877 398.429 123.07C398.801 123.263 399.078 123.53 399.261 123.87C399.444 124.209 399.536 124.6 399.536 125.044C399.536 125.486 399.443 125.875 399.258 126.211C399.074 126.544 398.797 126.804 398.426 126.99C398.057 127.175 397.593 127.268 397.033 127.268H395.084V126.331H396.935C397.287 126.331 397.574 126.28 397.795 126.179C398.018 126.078 398.181 125.931 398.285 125.738C398.388 125.546 398.44 125.314 398.44 125.044C398.44 124.771 398.387 124.535 398.281 124.336C398.178 124.136 398.015 123.983 397.791 123.877C397.57 123.769 397.28 123.715 396.921 123.715H395.553V130H394.464ZM398.027 126.743L399.811 130H398.57L396.822 126.743H398.027ZM407.132 126.391C407.132 127.161 406.991 127.824 406.709 128.379C406.427 128.931 406.041 129.356 405.549 129.655C405.061 129.951 404.505 130.099 403.882 130.099C403.257 130.099 402.699 129.951 402.208 129.655C401.719 129.356 401.334 128.93 401.052 128.375C400.77 127.82 400.629 127.159 400.629 126.391C400.629 125.62 400.77 124.958 401.052 124.406C401.334 123.852 401.719 123.426 402.208 123.13C402.699 122.832 403.257 122.682 403.882 122.682C404.505 122.682 405.061 122.832 405.549 123.13C406.041 123.426 406.427 123.852 406.709 124.406C406.991 124.958 407.132 125.62 407.132 126.391ZM406.053 126.391C406.053 125.803 405.958 125.308 405.768 124.907C405.58 124.502 405.321 124.197 404.993 123.99C404.666 123.781 404.296 123.676 403.882 123.676C403.466 123.676 403.095 123.781 402.768 123.99C402.442 124.197 402.183 124.502 401.993 124.907C401.805 125.308 401.711 125.803 401.711 126.391C401.711 126.978 401.805 127.474 401.993 127.878C402.183 128.28 402.442 128.585 402.768 128.795C403.095 129.001 403.466 129.105 403.882 129.105C404.296 129.105 404.666 129.001 404.993 128.795C405.321 128.585 405.58 128.28 405.768 127.878C405.958 127.474 406.053 126.978 406.053 126.391ZM408.762 122.781L410.771 128.661H410.853L412.862 122.781H414.039L411.441 130H410.183L407.585 122.781H408.762ZM415.081 130V122.781H419.607V123.719H416.171V125.918H419.371V126.852H416.171V129.062H419.65V130H415.081ZM423.399 130H421.062V122.781H423.473C424.181 122.781 424.788 122.926 425.296 123.215C425.803 123.501 426.192 123.914 426.462 124.452C426.735 124.988 426.871 125.63 426.871 126.38C426.871 127.132 426.734 127.778 426.459 128.319C426.186 128.859 425.791 129.275 425.274 129.566C424.757 129.855 424.132 130 423.399 130ZM422.151 129.048H423.339C423.889 129.048 424.346 128.945 424.71 128.738C425.075 128.529 425.347 128.227 425.528 127.832C425.709 127.435 425.8 126.951 425.8 126.38C425.8 125.814 425.709 125.333 425.528 124.938C425.35 124.544 425.083 124.244 424.728 124.04C424.373 123.835 423.933 123.733 423.406 123.733H422.151V129.048Z" fill="#16A34A"/>
</svg>
