<svg width="167" height="112" viewBox="0 0 167 112" fill="none" xmlns="http://www.w3.org/2000/svg">
<rect width="16" height="16" rx="8" fill="#0E9888"/>
<path d="M11.3337 5.5L6.75033 10.0833L4.66699 8" stroke="white" stroke-opacity="0.923" stroke-width="1.5" stroke-linecap="square"/>
<path d="M27.4502 4.5V3.252H29.9462V12H28.5662V4.5H27.4502ZM32.5575 12.084C32.3095 12.084 32.1015 12 31.9335 11.832C31.7655 11.664 31.6815 11.456 31.6815 11.208C31.6815 10.96 31.7655 10.752 31.9335 10.584C32.1015 10.416 32.3095 10.332 32.5575 10.332C32.7975 10.332 33.0015 10.416 33.1695 10.584C33.3375 10.752 33.4215 10.96 33.4215 11.208C33.4215 11.456 33.3375 11.664 33.1695 11.832C33.0015 12 32.7975 12.084 32.5575 12.084ZM41.648 12.084C41.088 12.084 40.584 11.988 40.136 11.796C39.688 11.596 39.336 11.316 39.08 10.956C38.824 10.596 38.696 10.176 38.696 9.696H40.16C40.192 10.056 40.332 10.352 40.58 10.584C40.836 10.816 41.192 10.932 41.648 10.932C42.12 10.932 42.488 10.82 42.752 10.596C43.016 10.364 43.148 10.068 43.148 9.708C43.148 9.428 43.064 9.2 42.896 9.024C42.736 8.848 42.532 8.712 42.284 8.616C42.044 8.52 41.708 8.416 41.276 8.304C40.732 8.16 40.288 8.016 39.944 7.872C39.608 7.72 39.32 7.488 39.08 7.176C38.84 6.864 38.72 6.448 38.72 5.928C38.72 5.448 38.84 5.028 39.08 4.668C39.32 4.308 39.656 4.032 40.088 3.84C40.52 3.648 41.02 3.552 41.588 3.552C42.396 3.552 43.056 3.756 43.568 4.164C44.088 4.564 44.376 5.116 44.432 5.82H42.92C42.896 5.516 42.752 5.256 42.488 5.04C42.224 4.824 41.876 4.716 41.444 4.716C41.052 4.716 40.732 4.816 40.484 5.016C40.236 5.216 40.112 5.504 40.112 5.88C40.112 6.136 40.188 6.348 40.34 6.516C40.5 6.676 40.7 6.804 40.94 6.9C41.18 6.996 41.508 7.1 41.924 7.212C42.476 7.364 42.924 7.516 43.268 7.668C43.62 7.82 43.916 8.056 44.156 8.376C44.404 8.688 44.528 9.108 44.528 9.636C44.528 10.06 44.412 10.46 44.18 10.836C43.956 11.212 43.624 11.516 43.184 11.748C42.752 11.972 42.24 12.084 41.648 12.084ZM45.6862 8.688C45.6862 8.008 45.8222 7.412 46.0942 6.9C46.3742 6.38 46.7582 5.98 47.2462 5.7C47.7342 5.42 48.2942 5.28 48.9262 5.28C49.7262 5.28 50.3862 5.472 50.9062 5.856C51.4342 6.232 51.7902 6.772 51.9742 7.476H50.4982C50.3782 7.148 50.1862 6.892 49.9222 6.708C49.6582 6.524 49.3262 6.432 48.9262 6.432C48.3662 6.432 47.9182 6.632 47.5822 7.032C47.2542 7.424 47.0902 7.976 47.0902 8.688C47.0902 9.4 47.2542 9.956 47.5822 10.356C47.9182 10.756 48.3662 10.956 48.9262 10.956C49.7182 10.956 50.2422 10.608 50.4982 9.912H51.9742C51.7822 10.584 51.4222 11.12 50.8942 11.52C50.3662 11.912 49.7102 12.108 48.9262 12.108C48.2942 12.108 47.7342 11.968 47.2462 11.688C46.7582 11.4 46.3742 11 46.0942 10.488C45.8222 9.968 45.6862 9.368 45.6862 8.688ZM52.8815 8.664C52.8815 8 53.0175 7.412 53.2895 6.9C53.5695 6.388 53.9455 5.992 54.4175 5.712C54.8975 5.424 55.4255 5.28 56.0015 5.28C56.5215 5.28 56.9735 5.384 57.3575 5.592C57.7495 5.792 58.0615 6.044 58.2935 6.348V5.388H59.6735V12H58.2935V11.016C58.0615 11.328 57.7455 11.588 57.3455 11.796C56.9455 12.004 56.4895 12.108 55.9775 12.108C55.4095 12.108 54.8895 11.964 54.4175 11.676C53.9455 11.38 53.5695 10.972 53.2895 10.452C53.0175 9.924 52.8815 9.328 52.8815 8.664ZM58.2935 8.688C58.2935 8.232 58.1975 7.836 58.0055 7.5C57.8215 7.164 57.5775 6.908 57.2735 6.732C56.9695 6.556 56.6415 6.468 56.2895 6.468C55.9375 6.468 55.6095 6.556 55.3055 6.732C55.0015 6.9 54.7535 7.152 54.5615 7.488C54.3775 7.816 54.2855 8.208 54.2855 8.664C54.2855 9.12 54.3775 9.52 54.5615 9.864C54.7535 10.208 55.0015 10.472 55.3055 10.656C55.6175 10.832 55.9455 10.92 56.2895 10.92C56.6415 10.92 56.9695 10.832 57.2735 10.656C57.5775 10.48 57.8215 10.224 58.0055 9.888C58.1975 9.544 58.2935 9.144 58.2935 8.688ZM64.8063 5.28C65.3263 5.28 65.7903 5.388 66.1983 5.604C66.6143 5.82 66.9383 6.14 67.1703 6.564C67.4023 6.988 67.5183 7.5 67.5183 8.1V12H66.1623V8.304C66.1623 7.712 66.0143 7.26 65.7183 6.948C65.4223 6.628 65.0183 6.468 64.5063 6.468C63.9943 6.468 63.5863 6.628 63.2823 6.948C62.9863 7.26 62.8383 7.712 62.8383 8.304V12H61.4703V5.388H62.8383V6.144C63.0623 5.872 63.3463 5.66 63.6903 5.508C64.0423 5.356 64.4143 5.28 64.8063 5.28ZM78.8245 12L77.7925 10.968C77.3925 11.368 76.9565 11.668 76.4845 11.868C76.0125 12.06 75.4845 12.156 74.9005 12.156C74.3085 12.156 73.7845 12.052 73.3285 11.844C72.8725 11.636 72.5205 11.34 72.2725 10.956C72.0245 10.564 71.9005 10.112 71.9005 9.6C71.9005 9.024 72.0645 8.512 72.3925 8.064C72.7205 7.608 73.2085 7.248 73.8565 6.984C73.6245 6.704 73.4605 6.444 73.3645 6.204C73.2685 5.956 73.2205 5.684 73.2205 5.388C73.2205 5.02 73.3125 4.692 73.4965 4.404C73.6885 4.116 73.9605 3.888 74.3125 3.72C74.6645 3.552 75.0725 3.468 75.5365 3.468C76.0085 3.468 76.4085 3.56 76.7365 3.744C77.0725 3.92 77.3205 4.164 77.4805 4.476C77.6485 4.788 77.7165 5.136 77.6845 5.52H76.3165C76.3245 5.224 76.2525 4.996 76.1005 4.836C75.9485 4.668 75.7405 4.584 75.4765 4.584C75.2125 4.584 74.9965 4.664 74.8285 4.824C74.6685 4.976 74.5885 5.164 74.5885 5.388C74.5885 5.604 74.6485 5.82 74.7685 6.036C74.8965 6.244 75.1165 6.516 75.4285 6.852L77.6365 9.048L78.4885 7.644H79.9645L78.8845 9.492L78.5845 9.984L80.6125 12H78.8245ZM74.9005 10.992C75.6525 10.992 76.3165 10.684 76.8925 10.068L74.6845 7.848C73.7405 8.224 73.2685 8.792 73.2685 9.552C73.2685 9.96 73.4205 10.304 73.7245 10.584C74.0285 10.856 74.4205 10.992 74.9005 10.992ZM85.9946 4.764V7.212H88.8746V8.328H85.9946V10.884H89.2346V12H84.6266V3.648H89.2346V4.764H85.9946ZM93.7515 8.652L95.8875 12H94.3395L92.9115 9.756L91.5675 12H90.1395L92.2755 8.748L90.1395 5.388H91.6875L93.1155 7.632L94.4595 5.388H95.8875L93.7515 8.652ZM98.5038 6.504V10.164C98.5038 10.412 98.5598 10.592 98.6718 10.704C98.7918 10.808 98.9918 10.86 99.2718 10.86H100.112V12H99.0318C98.4158 12 97.9438 11.856 97.6158 11.568C97.2878 11.28 97.1238 10.812 97.1238 10.164V6.504H96.3438V5.388H97.1238V3.744H98.5038V5.388H100.112V6.504H98.5038ZM102.741 6.348C102.941 6.012 103.205 5.752 103.533 5.568C103.869 5.376 104.265 5.28 104.721 5.28V6.696H104.373C103.837 6.696 103.429 6.832 103.149 7.104C102.877 7.376 102.741 7.848 102.741 8.52V12H101.373V5.388H102.741V6.348ZM105.522 8.664C105.522 8 105.658 7.412 105.93 6.9C106.21 6.388 106.586 5.992 107.058 5.712C107.538 5.424 108.066 5.28 108.642 5.28C109.162 5.28 109.614 5.384 109.998 5.592C110.39 5.792 110.702 6.044 110.934 6.348V5.388H112.314V12H110.934V11.016C110.702 11.328 110.386 11.588 109.986 11.796C109.586 12.004 109.13 12.108 108.618 12.108C108.05 12.108 107.53 11.964 107.058 11.676C106.586 11.38 106.21 10.972 105.93 10.452C105.658 9.924 105.522 9.328 105.522 8.664ZM110.934 8.688C110.934 8.232 110.838 7.836 110.646 7.5C110.462 7.164 110.218 6.908 109.914 6.732C109.61 6.556 109.282 6.468 108.93 6.468C108.578 6.468 108.25 6.556 107.946 6.732C107.642 6.9 107.394 7.152 107.202 7.488C107.018 7.816 106.926 8.208 106.926 8.664C106.926 9.12 107.018 9.52 107.202 9.864C107.394 10.208 107.642 10.472 107.946 10.656C108.258 10.832 108.586 10.92 108.93 10.92C109.282 10.92 109.61 10.832 109.914 10.656C110.218 10.48 110.462 10.224 110.646 9.888C110.838 9.544 110.934 9.144 110.934 8.688ZM113.655 8.688C113.655 8.008 113.791 7.412 114.063 6.9C114.343 6.38 114.727 5.98 115.215 5.7C115.703 5.42 116.263 5.28 116.895 5.28C117.695 5.28 118.355 5.472 118.875 5.856C119.403 6.232 119.759 6.772 119.943 7.476H118.467C118.347 7.148 118.155 6.892 117.891 6.708C117.627 6.524 117.295 6.432 116.895 6.432C116.335 6.432 115.887 6.632 115.551 7.032C115.223 7.424 115.059 7.976 115.059 8.688C115.059 9.4 115.223 9.956 115.551 10.356C115.887 10.756 116.335 10.956 116.895 10.956C117.687 10.956 118.211 10.608 118.467 9.912H119.943C119.751 10.584 119.391 11.12 118.863 11.52C118.335 11.912 117.679 12.108 116.895 12.108C116.263 12.108 115.703 11.968 115.215 11.688C114.727 11.4 114.343 11 114.063 10.488C113.791 9.968 113.655 9.368 113.655 8.688ZM122.902 6.504V10.164C122.902 10.412 122.958 10.592 123.07 10.704C123.19 10.808 123.39 10.86 123.67 10.86H124.51V12H123.43C122.814 12 122.342 11.856 122.014 11.568C121.686 11.28 121.522 10.812 121.522 10.164V6.504H120.742V5.388H121.522V3.744H122.902V5.388H124.51V6.504H122.902Z" fill="#10302B"/>
<path d="M131.912 14.232C131.128 13.48 130.524 12.524 130.1 11.364C129.684 10.204 129.476 8.96 129.476 7.632C129.476 6.272 129.7 4.988 130.148 3.78C130.604 2.572 131.272 1.576 132.152 0.792H133.568V0.924C132.648 1.772 131.956 2.788 131.492 3.972C131.028 5.156 130.796 6.376 130.796 7.632C130.796 8.84 131.012 10.008 131.444 11.136C131.876 12.264 132.504 13.252 133.328 14.1V14.232H131.912ZM135.371 10.14C136.139 9.476 136.743 8.932 137.183 8.508C137.631 8.076 138.003 7.628 138.299 7.164C138.595 6.7 138.743 6.236 138.743 5.772C138.743 5.292 138.627 4.916 138.395 4.644C138.171 4.372 137.815 4.236 137.327 4.236C136.855 4.236 136.487 4.388 136.223 4.692C135.967 4.988 135.831 5.388 135.815 5.892H134.495C134.519 4.98 134.791 4.284 135.311 3.804C135.839 3.316 136.507 3.072 137.315 3.072C138.187 3.072 138.867 3.312 139.355 3.792C139.851 4.272 140.099 4.912 140.099 5.712C140.099 6.288 139.951 6.844 139.655 7.38C139.367 7.908 139.019 8.384 138.611 8.808C138.211 9.224 137.699 9.708 137.075 10.26L136.535 10.74H140.339V11.88H134.507V10.884L135.371 10.14ZM142.272 12.084C142.024 12.084 141.816 12 141.648 11.832C141.48 11.664 141.396 11.456 141.396 11.208C141.396 10.96 141.48 10.752 141.648 10.584C141.816 10.416 142.024 10.332 142.272 10.332C142.512 10.332 142.716 10.416 142.884 10.584C143.052 10.752 143.136 10.96 143.136 11.208C143.136 11.456 143.052 11.664 142.884 11.832C142.716 12 142.512 12.084 142.272 12.084ZM144.255 4.5V3.252H146.751V12H145.371V4.5H144.255ZM150.106 7.428C149.274 7.012 148.858 6.356 148.858 5.46C148.858 5.028 148.966 4.632 149.182 4.272C149.398 3.912 149.722 3.628 150.154 3.42C150.586 3.204 151.114 3.096 151.738 3.096C152.354 3.096 152.878 3.204 153.31 3.42C153.75 3.628 154.078 3.912 154.294 4.272C154.51 4.632 154.618 5.028 154.618 5.46C154.618 5.908 154.502 6.304 154.27 6.648C154.046 6.984 153.746 7.244 153.37 7.428C153.826 7.596 154.186 7.872 154.45 8.256C154.714 8.632 154.846 9.076 154.846 9.588C154.846 10.108 154.714 10.568 154.45 10.968C154.186 11.368 153.818 11.676 153.346 11.892C152.874 12.108 152.338 12.216 151.738 12.216C151.138 12.216 150.602 12.108 150.13 11.892C149.666 11.676 149.302 11.368 149.038 10.968C148.774 10.568 148.642 10.108 148.642 9.588C148.642 9.068 148.774 8.62 149.038 8.244C149.302 7.868 149.658 7.596 150.106 7.428ZM153.31 5.628C153.31 5.18 153.17 4.836 152.89 4.596C152.61 4.356 152.226 4.236 151.738 4.236C151.258 4.236 150.878 4.356 150.598 4.596C150.318 4.836 150.178 5.184 150.178 5.64C150.178 6.04 150.322 6.368 150.61 6.624C150.906 6.872 151.282 6.996 151.738 6.996C152.194 6.996 152.57 6.868 152.866 6.612C153.162 6.356 153.31 6.028 153.31 5.628ZM151.738 8.028C151.21 8.028 150.778 8.16 150.442 8.424C150.114 8.68 149.95 9.052 149.95 9.54C149.95 9.996 150.11 10.368 150.43 10.656C150.75 10.936 151.186 11.076 151.738 11.076C152.282 11.076 152.71 10.932 153.022 10.644C153.342 10.356 153.502 9.988 153.502 9.54C153.502 9.06 153.338 8.688 153.01 8.424C152.69 8.16 152.266 8.028 151.738 8.028ZM158.863 12.108C158.343 12.108 157.875 12.016 157.459 11.832C157.051 11.64 156.727 11.384 156.487 11.064C156.247 10.736 156.119 10.372 156.103 9.972H157.519C157.543 10.252 157.675 10.488 157.915 10.68C158.163 10.864 158.471 10.956 158.839 10.956C159.223 10.956 159.519 10.884 159.727 10.74C159.943 10.588 160.051 10.396 160.051 10.164C160.051 9.916 159.931 9.732 159.691 9.612C159.459 9.492 159.087 9.36 158.575 9.216C158.079 9.08 157.675 8.948 157.363 8.82C157.051 8.692 156.779 8.496 156.547 8.232C156.323 7.968 156.211 7.62 156.211 7.188C156.211 6.836 156.315 6.516 156.523 6.228C156.731 5.932 157.027 5.7 157.411 5.532C157.803 5.364 158.251 5.28 158.755 5.28C159.507 5.28 160.111 5.472 160.567 5.856C161.031 6.232 161.279 6.748 161.311 7.404H159.943C159.919 7.108 159.799 6.872 159.583 6.696C159.367 6.52 159.075 6.432 158.707 6.432C158.347 6.432 158.071 6.5 157.879 6.636C157.687 6.772 157.591 6.952 157.591 7.176C157.591 7.352 157.655 7.5 157.783 7.62C157.911 7.74 158.067 7.836 158.251 7.908C158.435 7.972 158.707 8.056 159.067 8.16C159.547 8.288 159.939 8.42 160.243 8.556C160.555 8.684 160.823 8.876 161.047 9.132C161.271 9.388 161.387 9.728 161.395 10.152C161.395 10.528 161.291 10.864 161.083 11.16C160.875 11.456 160.579 11.688 160.195 11.856C159.819 12.024 159.375 12.108 158.863 12.108ZM162.537 14.232V14.1C163.361 13.252 163.989 12.264 164.421 11.136C164.853 10.008 165.069 8.84 165.069 7.632C165.069 6.376 164.837 5.156 164.373 3.972C163.909 2.788 163.217 1.772 162.297 0.924V0.792H163.713C164.593 1.576 165.257 2.572 165.705 3.78C166.161 4.988 166.389 6.272 166.389 7.632C166.389 8.96 166.177 10.204 165.753 11.364C165.337 12.524 164.737 13.48 163.953 14.232H162.537Z" fill="#687076"/>
<path d="M4.66699 28L8.00033 31.3333L11.3337 28M4.66699 32.6667L8.00033 36L11.3337 32.6667" stroke="#53B9AB" stroke-width="1.5" stroke-linecap="square"/>
<rect x="0.75" y="48.75" width="14.5" height="14.5" rx="7.25" stroke="#53B9AB" stroke-width="1.5"/>
<path d="M25.6557 58.14C26.4237 57.476 27.0277 56.932 27.4677 56.508C27.9157 56.076 28.2877 55.628 28.5837 55.164C28.8797 54.7 29.0277 54.236 29.0277 53.772C29.0277 53.292 28.9117 52.916 28.6797 52.644C28.4557 52.372 28.0997 52.236 27.6117 52.236C27.1397 52.236 26.7717 52.388 26.5077 52.692C26.2517 52.988 26.1157 53.388 26.0997 53.892H24.7797C24.8037 52.98 25.0757 52.284 25.5957 51.804C26.1237 51.316 26.7917 51.072 27.5997 51.072C28.4717 51.072 29.1517 51.312 29.6397 51.792C30.1357 52.272 30.3837 52.912 30.3837 53.712C30.3837 54.288 30.2357 54.844 29.9397 55.38C29.6517 55.908 29.3037 56.384 28.8957 56.808C28.4957 57.224 27.9837 57.708 27.3597 58.26L26.8197 58.74H30.6237V59.88H24.7917V58.884L25.6557 58.14ZM32.5575 60.084C32.3095 60.084 32.1015 60 31.9335 59.832C31.7655 59.664 31.6815 59.456 31.6815 59.208C31.6815 58.96 31.7655 58.752 31.9335 58.584C32.1015 58.416 32.3095 58.332 32.5575 58.332C32.7975 58.332 33.0015 58.416 33.1695 58.584C33.3375 58.752 33.4215 58.96 33.4215 59.208C33.4215 59.456 33.3375 59.664 33.1695 59.832C33.0015 60 32.7975 60.084 32.5575 60.084ZM43.232 60L41.312 56.664H40.268V60H38.9V51.66H41.78C42.42 51.66 42.96 51.772 43.4 51.996C43.848 52.22 44.18 52.52 44.396 52.896C44.62 53.272 44.732 53.692 44.732 54.156C44.732 54.7 44.572 55.196 44.252 55.644C43.94 56.084 43.456 56.384 42.8 56.544L44.864 60H43.232ZM40.268 55.572H41.78C42.292 55.572 42.676 55.444 42.932 55.188C43.196 54.932 43.328 54.588 43.328 54.156C43.328 53.724 43.2 53.388 42.944 53.148C42.688 52.9 42.3 52.776 41.78 52.776H40.268V55.572ZM52.542 56.532C52.542 56.78 52.526 57.004 52.494 57.204H47.442C47.482 57.732 47.678 58.156 48.03 58.476C48.382 58.796 48.814 58.956 49.326 58.956C50.062 58.956 50.582 58.648 50.886 58.032H52.362C52.162 58.64 51.798 59.14 51.27 59.532C50.75 59.916 50.102 60.108 49.326 60.108C48.694 60.108 48.126 59.968 47.622 59.688C47.126 59.4 46.734 59 46.446 58.488C46.166 57.968 46.026 57.368 46.026 56.688C46.026 56.008 46.162 55.412 46.434 54.9C46.714 54.38 47.102 53.98 47.598 53.7C48.102 53.42 48.678 53.28 49.326 53.28C49.95 53.28 50.506 53.416 50.994 53.688C51.482 53.96 51.862 54.344 52.134 54.84C52.406 55.328 52.542 55.892 52.542 56.532ZM51.114 56.1C51.106 55.596 50.926 55.192 50.574 54.888C50.222 54.584 49.786 54.432 49.266 54.432C48.794 54.432 48.39 54.584 48.054 54.888C47.718 55.184 47.518 55.588 47.454 56.1H51.114ZM56.4443 58.776L58.3163 53.388H59.7683L57.2483 60H55.6163L53.1083 53.388H54.5723L56.4443 58.776ZM61.4983 52.512C61.2503 52.512 61.0423 52.428 60.8743 52.26C60.7063 52.092 60.6223 51.884 60.6223 51.636C60.6223 51.388 60.7063 51.18 60.8743 51.012C61.0423 50.844 61.2503 50.76 61.4983 50.76C61.7383 50.76 61.9423 50.844 62.1103 51.012C62.2783 51.18 62.3623 51.388 62.3623 51.636C62.3623 51.884 62.2783 52.092 62.1103 52.26C61.9423 52.428 61.7383 52.512 61.4983 52.512ZM62.1703 53.388V60H60.8023V53.388H62.1703ZM70.0264 56.532C70.0264 56.78 70.0104 57.004 69.9784 57.204H64.9264C64.9664 57.732 65.1624 58.156 65.5144 58.476C65.8664 58.796 66.2984 58.956 66.8104 58.956C67.5464 58.956 68.0664 58.648 68.3704 58.032H69.8464C69.6464 58.64 69.2824 59.14 68.7544 59.532C68.2344 59.916 67.5864 60.108 66.8104 60.108C66.1784 60.108 65.6104 59.968 65.1064 59.688C64.6104 59.4 64.2184 59 63.9304 58.488C63.6504 57.968 63.5104 57.368 63.5104 56.688C63.5104 56.008 63.6464 55.412 63.9184 54.9C64.1984 54.38 64.5864 53.98 65.0824 53.7C65.5864 53.42 66.1624 53.28 66.8104 53.28C67.4344 53.28 67.9904 53.416 68.4784 53.688C68.9664 53.96 69.3464 54.344 69.6184 54.84C69.8904 55.328 70.0264 55.892 70.0264 56.532ZM68.5984 56.1C68.5904 55.596 68.4104 55.192 68.0584 54.888C67.7064 54.584 67.2704 54.432 66.7504 54.432C66.2784 54.432 65.8744 54.584 65.5384 54.888C65.2024 55.184 65.0024 55.588 64.9384 56.1H68.5984ZM80.2527 53.388L78.2007 60H76.7607L75.4287 55.116L74.0967 60H72.6567L70.5927 53.388H71.9847L73.3647 58.704L74.7687 53.388H76.1967L77.5407 58.68L78.9087 53.388H80.2527ZM87.1162 51.66C88.0042 51.66 88.7802 51.832 89.4442 52.176C90.1162 52.512 90.6322 53 90.9922 53.64C91.3602 54.272 91.5442 55.012 91.5442 55.86C91.5442 56.708 91.3602 57.444 90.9922 58.068C90.6322 58.692 90.1162 59.172 89.4442 59.508C88.7802 59.836 88.0042 60 87.1162 60H84.3922V51.66H87.1162ZM87.1162 58.884C88.0922 58.884 88.8402 58.62 89.3602 58.092C89.8802 57.564 90.1402 56.82 90.1402 55.86C90.1402 54.892 89.8802 54.136 89.3602 53.592C88.8402 53.048 88.0922 52.776 87.1162 52.776H85.7602V58.884H87.1162ZM92.444 56.664C92.444 56 92.58 55.412 92.852 54.9C93.132 54.388 93.508 53.992 93.98 53.712C94.46 53.424 94.988 53.28 95.564 53.28C96.084 53.28 96.536 53.384 96.92 53.592C97.312 53.792 97.624 54.044 97.856 54.348V53.388H99.236V60H97.856V59.016C97.624 59.328 97.308 59.588 96.908 59.796C96.508 60.004 96.052 60.108 95.54 60.108C94.972 60.108 94.452 59.964 93.98 59.676C93.508 59.38 93.132 58.972 92.852 58.452C92.58 57.924 92.444 57.328 92.444 56.664ZM97.856 56.688C97.856 56.232 97.76 55.836 97.568 55.5C97.384 55.164 97.14 54.908 96.836 54.732C96.532 54.556 96.204 54.468 95.852 54.468C95.5 54.468 95.172 54.556 94.868 54.732C94.564 54.9 94.316 55.152 94.124 55.488C93.94 55.816 93.848 56.208 93.848 56.664C93.848 57.12 93.94 57.52 94.124 57.864C94.316 58.208 94.564 58.472 94.868 58.656C95.18 58.832 95.508 58.92 95.852 58.92C96.204 58.92 96.532 58.832 96.836 58.656C97.14 58.48 97.384 58.224 97.568 57.888C97.76 57.544 97.856 57.144 97.856 56.688ZM102.629 54.504V58.164C102.629 58.412 102.685 58.592 102.797 58.704C102.917 58.808 103.117 58.86 103.397 58.86H104.237V60H103.157C102.541 60 102.069 59.856 101.741 59.568C101.413 59.28 101.249 58.812 101.249 58.164V54.504H100.469V53.388H101.249V51.744H102.629V53.388H104.237V54.504H102.629ZM105.042 56.664C105.042 56 105.178 55.412 105.45 54.9C105.73 54.388 106.106 53.992 106.578 53.712C107.058 53.424 107.586 53.28 108.162 53.28C108.682 53.28 109.134 53.384 109.518 53.592C109.91 53.792 110.222 54.044 110.454 54.348V53.388H111.834V60H110.454V59.016C110.222 59.328 109.906 59.588 109.506 59.796C109.106 60.004 108.65 60.108 108.138 60.108C107.57 60.108 107.05 59.964 106.578 59.676C106.106 59.38 105.73 58.972 105.45 58.452C105.178 57.924 105.042 57.328 105.042 56.664ZM110.454 56.688C110.454 56.232 110.358 55.836 110.166 55.5C109.982 55.164 109.738 54.908 109.434 54.732C109.13 54.556 108.802 54.468 108.45 54.468C108.098 54.468 107.77 54.556 107.466 54.732C107.162 54.9 106.914 55.152 106.722 55.488C106.538 55.816 106.446 56.208 106.446 56.664C106.446 57.12 106.538 57.52 106.722 57.864C106.914 58.208 107.162 58.472 107.466 58.656C107.778 58.832 108.106 58.92 108.45 58.92C108.802 58.92 109.13 58.832 109.434 58.656C109.738 58.48 109.982 58.224 110.166 57.888C110.358 57.544 110.454 57.144 110.454 56.688Z" fill="#10302B"/>
<path d="M4.66699 76L8.00033 79.3333L11.3337 76M4.66699 80.6667L8.00033 84L11.3337 80.6667" stroke="#53B9AB" stroke-width="1.5" stroke-linecap="square"/>
<rect x="0.75" y="96.75" width="14.5" height="14.5" rx="7.25" stroke="#53B9AB" stroke-width="1.5"/>
<path d="M24.6765 101.412C24.7245 100.668 25.0085 100.088 25.5285 99.672C26.0565 99.256 26.7285 99.048 27.5445 99.048C28.1045 99.048 28.5885 99.148 28.9965 99.348C29.4045 99.548 29.7125 99.82 29.9205 100.164C30.1285 100.508 30.2325 100.896 30.2325 101.328C30.2325 101.824 30.1005 102.248 29.8365 102.6C29.5725 102.952 29.2565 103.188 28.8885 103.308V103.356C29.3605 103.5 29.7285 103.764 29.9925 104.148C30.2565 104.524 30.3885 105.008 30.3885 105.6C30.3885 106.072 30.2805 106.492 30.0645 106.86C29.8485 107.228 29.5285 107.52 29.1045 107.736C28.6805 107.944 28.1725 108.048 27.5805 108.048C26.7165 108.048 26.0045 107.828 25.4445 107.388C24.8925 106.94 24.5965 106.3 24.5565 105.468H25.8765C25.9085 105.892 26.0725 106.24 26.3685 106.512C26.6645 106.776 27.0645 106.908 27.5685 106.908C28.0565 106.908 28.4325 106.776 28.6965 106.512C28.9605 106.24 29.0925 105.892 29.0925 105.468C29.0925 104.908 28.9125 104.512 28.5525 104.28C28.2005 104.04 27.6565 103.92 26.9205 103.92H26.6085V102.792H26.9325C27.5805 102.784 28.0725 102.676 28.4085 102.468C28.7525 102.26 28.9245 101.932 28.9245 101.484C28.9245 101.1 28.8005 100.796 28.5525 100.572C28.3045 100.34 27.9525 100.224 27.4965 100.224C27.0485 100.224 26.7005 100.34 26.4525 100.572C26.2045 100.796 26.0565 101.076 26.0085 101.412H24.6765ZM32.5575 108.084C32.3095 108.084 32.1015 108 31.9335 107.832C31.7655 107.664 31.6815 107.456 31.6815 107.208C31.6815 106.96 31.7655 106.752 31.9335 106.584C32.1015 106.416 32.3095 106.332 32.5575 106.332C32.7975 106.332 33.0015 106.416 33.1695 106.584C33.3375 106.752 33.4215 106.96 33.4215 107.208C33.4215 107.456 33.3375 107.664 33.1695 107.832C33.0015 108 32.7975 108.084 32.5575 108.084ZM41.648 108.084C41.088 108.084 40.584 107.988 40.136 107.796C39.688 107.596 39.336 107.316 39.08 106.956C38.824 106.596 38.696 106.176 38.696 105.696H40.16C40.192 106.056 40.332 106.352 40.58 106.584C40.836 106.816 41.192 106.932 41.648 106.932C42.12 106.932 42.488 106.82 42.752 106.596C43.016 106.364 43.148 106.068 43.148 105.708C43.148 105.428 43.064 105.2 42.896 105.024C42.736 104.848 42.532 104.712 42.284 104.616C42.044 104.52 41.708 104.416 41.276 104.304C40.732 104.16 40.288 104.016 39.944 103.872C39.608 103.72 39.32 103.488 39.08 103.176C38.84 102.864 38.72 102.448 38.72 101.928C38.72 101.448 38.84 101.028 39.08 100.668C39.32 100.308 39.656 100.032 40.088 99.84C40.52 99.648 41.02 99.552 41.588 99.552C42.396 99.552 43.056 99.756 43.568 100.164C44.088 100.564 44.376 101.116 44.432 101.82H42.92C42.896 101.516 42.752 101.256 42.488 101.04C42.224 100.824 41.876 100.716 41.444 100.716C41.052 100.716 40.732 100.816 40.484 101.016C40.236 101.216 40.112 101.504 40.112 101.88C40.112 102.136 40.188 102.348 40.34 102.516C40.5 102.676 40.7 102.804 40.94 102.9C41.18 102.996 41.508 103.1 41.924 103.212C42.476 103.364 42.924 103.516 43.268 103.668C43.62 103.82 43.916 104.056 44.156 104.376C44.404 104.688 44.528 105.108 44.528 105.636C44.528 106.06 44.412 106.46 44.18 106.836C43.956 107.212 43.624 107.516 43.184 107.748C42.752 107.972 42.24 108.084 41.648 108.084ZM52.2022 104.532C52.2022 104.78 52.1862 105.004 52.1542 105.204H47.1022C47.1422 105.732 47.3382 106.156 47.6902 106.476C48.0422 106.796 48.4742 106.956 48.9862 106.956C49.7222 106.956 50.2422 106.648 50.5462 106.032H52.0222C51.8222 106.64 51.4582 107.14 50.9302 107.532C50.4102 107.916 49.7622 108.108 48.9862 108.108C48.3542 108.108 47.7862 107.968 47.2822 107.688C46.7862 107.4 46.3942 107 46.1062 106.488C45.8262 105.968 45.6862 105.368 45.6862 104.688C45.6862 104.008 45.8222 103.412 46.0942 102.9C46.3742 102.38 46.7622 101.98 47.2582 101.7C47.7622 101.42 48.3382 101.28 48.9862 101.28C49.6102 101.28 50.1662 101.416 50.6542 101.688C51.1422 101.96 51.5222 102.344 51.7942 102.84C52.0662 103.328 52.2022 103.892 52.2022 104.532ZM50.7742 104.1C50.7662 103.596 50.5862 103.192 50.2342 102.888C49.8822 102.584 49.4462 102.432 48.9262 102.432C48.4542 102.432 48.0502 102.584 47.7142 102.888C47.3782 103.184 47.1782 103.588 47.1142 104.1H50.7742ZM56.8844 101.28C57.4044 101.28 57.8684 101.388 58.2764 101.604C58.6924 101.82 59.0164 102.14 59.2484 102.564C59.4804 102.988 59.5964 103.5 59.5964 104.1V108H58.2404V104.304C58.2404 103.712 58.0924 103.26 57.7964 102.948C57.5004 102.628 57.0964 102.468 56.5844 102.468C56.0724 102.468 55.6644 102.628 55.3604 102.948C55.0644 103.26 54.9164 103.712 54.9164 104.304V108H53.5484V101.388H54.9164V102.144C55.1404 101.872 55.4244 101.66 55.7684 101.508C56.1204 101.356 56.4924 101.28 56.8844 101.28ZM60.8854 104.664C60.8854 104 61.0214 103.412 61.2934 102.9C61.5734 102.388 61.9494 101.992 62.4214 101.712C62.9014 101.424 63.4334 101.28 64.0174 101.28C64.4494 101.28 64.8734 101.376 65.2894 101.568C65.7134 101.752 66.0494 102 66.2974 102.312V99.12H67.6774V108H66.2974V107.004C66.0734 107.324 65.7614 107.588 65.3614 107.796C64.9694 108.004 64.5174 108.108 64.0054 108.108C63.4294 108.108 62.9014 107.964 62.4214 107.676C61.9494 107.38 61.5734 106.972 61.2934 106.452C61.0214 105.924 60.8854 105.328 60.8854 104.664ZM66.2974 104.688C66.2974 104.232 66.2014 103.836 66.0094 103.5C65.8254 103.164 65.5814 102.908 65.2774 102.732C64.9734 102.556 64.6454 102.468 64.2934 102.468C63.9414 102.468 63.6134 102.556 63.3094 102.732C63.0054 102.9 62.7574 103.152 62.5654 103.488C62.3814 103.816 62.2894 104.208 62.2894 104.664C62.2894 105.12 62.3814 105.52 62.5654 105.864C62.7574 106.208 63.0054 106.472 63.3094 106.656C63.6214 106.832 63.9494 106.92 64.2934 106.92C64.6454 106.92 64.9734 106.832 65.2774 106.656C65.5814 106.48 65.8254 106.224 66.0094 105.888C66.2014 105.544 66.2974 105.144 66.2974 104.688ZM77.4994 99.66V100.776H73.9594V103.236H76.7194V104.352H73.9594V108H72.5914V99.66H77.4994ZM81.6352 108.108C81.0112 108.108 80.4472 107.968 79.9432 107.688C79.4392 107.4 79.0432 107 78.7552 106.488C78.4672 105.968 78.3232 105.368 78.3232 104.688C78.3232 104.016 78.4712 103.42 78.7672 102.9C79.0632 102.38 79.4672 101.98 79.9792 101.7C80.4912 101.42 81.0632 101.28 81.6952 101.28C82.3272 101.28 82.8992 101.42 83.4112 101.7C83.9232 101.98 84.3272 102.38 84.6232 102.9C84.9192 103.42 85.0672 104.016 85.0672 104.688C85.0672 105.36 84.9152 105.956 84.6112 106.476C84.3072 106.996 83.8912 107.4 83.3632 107.688C82.8432 107.968 82.2672 108.108 81.6352 108.108ZM81.6352 106.92C81.9872 106.92 82.3152 106.836 82.6192 106.668C82.9312 106.5 83.1832 106.248 83.3752 105.912C83.5672 105.576 83.6632 105.168 83.6632 104.688C83.6632 104.208 83.5712 103.804 83.3872 103.476C83.2032 103.14 82.9592 102.888 82.6552 102.72C82.3512 102.552 82.0232 102.468 81.6712 102.468C81.3192 102.468 80.9912 102.552 80.6872 102.72C80.3912 102.888 80.1552 103.14 79.9792 103.476C79.8032 103.804 79.7152 104.208 79.7152 104.688C79.7152 105.4 79.8952 105.952 80.2552 106.344C80.6232 106.728 81.0832 106.92 81.6352 106.92ZM87.7875 102.348C87.9875 102.012 88.2515 101.752 88.5795 101.568C88.9155 101.376 89.3115 101.28 89.7675 101.28V102.696H89.4195C88.8835 102.696 88.4755 102.832 88.1955 103.104C87.9235 103.376 87.7875 103.848 87.7875 104.52V108H86.4195V101.388H87.7875V102.348ZM99.1702 106.296H95.6782L95.0782 108H93.6502L96.6382 99.648H98.2222L101.21 108H99.7702L99.1702 106.296ZM98.7862 105.18L97.4302 101.304L96.0622 105.18H98.7862ZM103.877 102.36C104.109 102.056 104.425 101.8 104.825 101.592C105.225 101.384 105.677 101.28 106.181 101.28C106.757 101.28 107.281 101.424 107.753 101.712C108.233 101.992 108.609 102.388 108.881 102.9C109.153 103.412 109.289 104 109.289 104.664C109.289 105.328 109.153 105.924 108.881 106.452C108.609 106.972 108.233 107.38 107.753 107.676C107.281 107.964 106.757 108.108 106.181 108.108C105.677 108.108 105.229 108.008 104.837 107.808C104.445 107.6 104.125 107.344 103.877 107.04V111.144H102.509V101.388H103.877V102.36ZM107.897 104.664C107.897 104.208 107.801 103.816 107.609 103.488C107.425 103.152 107.177 102.9 106.865 102.732C106.561 102.556 106.233 102.468 105.881 102.468C105.537 102.468 105.209 102.556 104.897 102.732C104.593 102.908 104.345 103.164 104.153 103.5C103.969 103.836 103.877 104.232 103.877 104.688C103.877 105.144 103.969 105.544 104.153 105.888C104.345 106.224 104.593 106.48 104.897 106.656C105.209 106.832 105.537 106.92 105.881 106.92C106.233 106.92 106.561 106.832 106.865 106.656C107.177 106.472 107.425 106.208 107.609 105.864C107.801 105.52 107.897 105.12 107.897 104.664ZM112.01 102.36C112.242 102.056 112.558 101.8 112.958 101.592C113.358 101.384 113.81 101.28 114.314 101.28C114.89 101.28 115.414 101.424 115.886 101.712C116.366 101.992 116.742 102.388 117.014 102.9C117.286 103.412 117.422 104 117.422 104.664C117.422 105.328 117.286 105.924 117.014 106.452C116.742 106.972 116.366 107.38 115.886 107.676C115.414 107.964 114.89 108.108 114.314 108.108C113.81 108.108 113.362 108.008 112.97 107.808C112.578 107.6 112.258 107.344 112.01 107.04V111.144H110.642V101.388H112.01V102.36ZM116.03 104.664C116.03 104.208 115.934 103.816 115.742 103.488C115.558 103.152 115.31 102.9 114.998 102.732C114.694 102.556 114.366 102.468 114.014 102.468C113.67 102.468 113.342 102.556 113.03 102.732C112.726 102.908 112.478 103.164 112.286 103.5C112.102 103.836 112.01 104.232 112.01 104.688C112.01 105.144 112.102 105.544 112.286 105.888C112.478 106.224 112.726 106.48 113.03 106.656C113.342 106.832 113.67 106.92 114.014 106.92C114.366 106.92 114.694 106.832 114.998 106.656C115.31 106.472 115.558 106.208 115.742 105.864C115.934 105.52 116.03 105.12 116.03 104.664ZM120.143 102.348C120.343 102.012 120.607 101.752 120.935 101.568C121.271 101.376 121.667 101.28 122.123 101.28V102.696H121.775C121.239 102.696 120.831 102.832 120.551 103.104C120.279 103.376 120.143 103.848 120.143 104.52V108H118.775V101.388H120.143V102.348ZM126.248 108.108C125.624 108.108 125.06 107.968 124.556 107.688C124.052 107.4 123.656 107 123.368 106.488C123.08 105.968 122.936 105.368 122.936 104.688C122.936 104.016 123.084 103.42 123.38 102.9C123.676 102.38 124.08 101.98 124.592 101.7C125.104 101.42 125.676 101.28 126.308 101.28C126.94 101.28 127.512 101.42 128.024 101.7C128.536 101.98 128.94 102.38 129.236 102.9C129.532 103.42 129.68 104.016 129.68 104.688C129.68 105.36 129.528 105.956 129.224 106.476C128.92 106.996 128.504 107.4 127.976 107.688C127.456 107.968 126.88 108.108 126.248 108.108ZM126.248 106.92C126.6 106.92 126.928 106.836 127.232 106.668C127.544 106.5 127.796 106.248 127.988 105.912C128.18 105.576 128.276 105.168 128.276 104.688C128.276 104.208 128.184 103.804 128 103.476C127.816 103.14 127.572 102.888 127.268 102.72C126.964 102.552 126.636 102.468 126.284 102.468C125.932 102.468 125.604 102.552 125.3 102.72C125.004 102.888 124.768 103.14 124.592 103.476C124.416 103.804 124.328 104.208 124.328 104.688C124.328 105.4 124.508 105.952 124.868 106.344C125.236 106.728 125.696 106.92 126.248 106.92ZM133.589 106.776L135.461 101.388H136.913L134.393 108H132.761L130.253 101.388H131.717L133.589 106.776ZM137.491 104.664C137.491 104 137.627 103.412 137.899 102.9C138.179 102.388 138.555 101.992 139.027 101.712C139.507 101.424 140.035 101.28 140.611 101.28C141.131 101.28 141.583 101.384 141.967 101.592C142.359 101.792 142.671 102.044 142.903 102.348V101.388H144.283V108H142.903V107.016C142.671 107.328 142.355 107.588 141.955 107.796C141.555 108.004 141.099 108.108 140.587 108.108C140.019 108.108 139.499 107.964 139.027 107.676C138.555 107.38 138.179 106.972 137.899 106.452C137.627 105.924 137.491 105.328 137.491 104.664ZM142.903 104.688C142.903 104.232 142.807 103.836 142.615 103.5C142.431 103.164 142.187 102.908 141.883 102.732C141.579 102.556 141.251 102.468 140.899 102.468C140.547 102.468 140.219 102.556 139.915 102.732C139.611 102.9 139.363 103.152 139.171 103.488C138.987 103.816 138.895 104.208 138.895 104.664C138.895 105.12 138.987 105.52 139.171 105.864C139.363 106.208 139.611 106.472 139.915 106.656C140.227 106.832 140.555 106.92 140.899 106.92C141.251 106.92 141.579 106.832 141.883 106.656C142.187 106.48 142.431 106.224 142.615 105.888C142.807 105.544 142.903 105.144 142.903 104.688ZM147.448 99.12V108H146.08V99.12H147.448Z" fill="#10302B"/>
</svg>
